<svg width="714" height="448" viewBox="0 0 714 448" fill="none" xmlns="http://www.w3.org/2000/svg">
<g clip-path="url(#clip0_192_1183)">
<rect width="411" height="314" transform="translate(0 103)" fill="white"/>
<path fill-rule="evenodd" clip-rule="evenodd" d="M0 280.5V486.883H81.6449H163.291L163.229 470.344C163.195 461.248 163.443 452.548 163.782 451.01C164.12 449.473 164.014 447.613 163.545 446.877C162.805 445.715 162.483 445.715 161.086 446.877C159.594 448.12 159.564 448.05 160.673 445.886C161.329 444.605 162.42 442.913 163.095 442.128C164.164 440.885 167.353 423.575 166.664 422.75C166.523 422.582 165.332 423.154 164.019 424.022C161.889 425.43 161.629 425.442 161.629 424.132C161.629 423.323 162.424 420.445 163.396 417.736C165.038 413.156 167.171 402.565 167.171 398.989C167.171 398.056 166.433 397.435 165.324 397.435C162.236 397.435 162.9 391.963 166.675 386.305C168.434 383.667 170.121 379.956 170.423 378.058C170.725 376.16 171.153 373.703 171.376 372.599C171.689 371.043 171.412 370.688 170.148 371.021C168.619 371.425 163.786 367.375 164.052 365.913C164.177 365.218 163.75 363.704 162.381 359.998C161.249 356.93 162.255 344.556 164.111 338.734C167.553 327.939 170.868 323.13 178.069 318.483C180.895 316.658 184.899 313.605 186.965 311.698C189.031 309.79 192.413 307.366 194.479 306.312C196.545 305.258 198.831 303.672 199.559 302.786C200.968 301.071 205.966 298.669 208.126 298.669C208.841 298.669 209.675 299.927 209.979 301.464C210.305 303.104 211.116 304.26 211.942 304.26C213.632 304.26 213.832 306.704 212.196 307.37C211.484 307.66 211.639 307.867 212.601 307.913C213.458 307.953 214.163 308.72 214.167 309.617C214.181 312.466 215.439 316.816 216.438 317.471C216.969 317.819 218.15 317.236 219.061 316.175C220.474 314.531 221.408 314.329 225.385 314.804C229.8 315.332 230.101 315.229 230.978 312.9C232.461 308.966 231.672 306.98 228.128 305.722C224.647 304.487 217.903 298.546 216.229 295.239C214.146 291.123 220.81 288.658 226.703 291.366C227.999 291.962 229.339 292.167 229.681 291.823C230.61 290.885 227.02 288.55 225.534 289.125C223.998 289.72 222.56 287.71 223.241 285.92C223.807 284.432 235.614 284.742 237.582 286.296C239.301 287.655 242.906 288.383 242.906 287.372C242.906 286.891 242.178 286.248 241.289 285.943C240.401 285.638 237.387 284.309 234.593 282.99C231.799 281.67 228.474 280.508 227.204 280.408C223.391 280.104 219.816 278.314 219.816 276.707C219.816 274.555 223.382 269.785 224.991 269.785C226.07 269.785 226.141 269.397 225.332 267.875C223.918 265.208 220.098 263.537 218.682 264.965C216.72 266.945 214.944 266.273 215.563 263.785C216.488 260.068 214.439 259.863 211.7 263.4C210.684 264.711 211.04 265.549 214.162 269.189C218.407 274.137 218.342 275.744 213.699 280.428C211.984 282.158 210.58 284.388 210.58 285.381C210.58 287.777 206.141 289.975 205.374 287.96C205.085 287.201 205.315 285.232 205.884 283.586C206.739 281.112 206.671 280.453 205.497 279.79C204.715 279.349 204.357 278.529 204.699 277.969C205.086 277.339 204.894 277.219 204.195 277.654C203.477 278.103 202.883 277.646 202.559 276.401C201.761 273.322 198.86 274.018 197.126 277.705C194.991 282.242 192.7 281.975 191.228 277.016C189.448 271.026 188.657 247.395 189.99 240.054C194.122 217.299 194.952 215.494 199.459 219.437C200.651 220.48 201.95 221.334 202.344 221.334C202.739 221.334 203.196 222.277 203.357 223.43C203.571 224.944 204.374 225.611 206.247 225.827C209.116 226.158 209.186 228.128 206.347 228.643C204.411 228.996 199.365 234.341 199.995 235.371C200.211 235.723 199.156 237.844 197.649 240.086C193.757 245.882 193.991 247.05 198.936 246.517C199.906 246.413 201.606 247.495 202.753 248.946C204.608 251.292 205.337 251.544 209.779 251.366C212.505 251.256 214.32 251.477 213.812 251.857C212.192 253.068 212.235 255.809 213.873 255.809C216.332 255.809 224.552 250.01 224.032 248.643C223.777 247.972 224.028 247.423 224.59 247.423C225.927 247.423 224.831 237.554 223.259 235.439C222.613 234.569 220.534 233.806 218.43 233.665C212.211 233.248 210.58 232.618 210.58 230.634C210.58 229.377 211.201 228.788 212.529 228.788C214.224 228.788 214.409 228.392 213.94 225.76C211.951 214.604 211.649 215.7 218.114 210.608C221.336 208.071 224.777 205.254 225.763 204.347C226.747 203.44 227.88 202.699 228.28 202.699C228.679 202.699 229.867 200.791 230.92 198.459C231.973 196.128 233.438 193.987 234.176 193.701C234.913 193.416 235.517 192.756 235.517 192.236C235.517 191.676 234.968 191.749 234.176 192.412C233.438 193.03 232.212 193.395 231.451 193.226C229.694 192.832 235.086 186.486 237.961 185.566C239.628 185.032 239.828 185.264 239.444 187.29C239.016 189.544 239.108 189.594 241.877 188.62C243.459 188.064 244.753 187.235 244.753 186.781C244.753 186.325 246.157 185.361 247.873 184.637C249.589 183.914 251.275 182.86 251.622 182.295C251.968 181.731 252.723 181.269 253.301 181.269C253.879 181.269 253.042 182.632 251.441 184.297L248.532 187.325L252.415 187.382C254.55 187.412 260.111 188.228 264.772 189.193C272.999 190.897 273.286 191.045 274.669 194.262C275.451 196.083 276.496 198.203 276.989 198.972C278.921 201.984 280.773 206.815 280.773 208.844C280.773 210.016 281.244 211.268 281.819 211.627C282.527 212.068 282.705 214.652 282.369 219.602C282.096 223.63 282.201 226.924 282.605 226.924C283.008 226.924 283.611 228.392 283.945 230.185C284.384 232.55 285.033 233.447 286.302 233.447C288.751 233.447 289.518 231.757 287.915 229.894C287.172 229.029 286.307 226.331 285.995 223.896C285.449 219.651 285.52 219.47 287.718 219.47C288.978 219.47 290.009 218.961 290.009 218.338C290.009 217.715 291.03 218.449 292.279 219.969C299.141 228.32 299.441 228.788 297.933 228.788C296.748 228.788 296.661 229.114 297.492 230.457C298.718 232.438 302.944 233.012 304.107 231.354C304.763 230.42 305.021 230.419 305.395 231.35C305.653 231.99 306.44 232.515 307.144 232.515C309.575 232.515 307.434 235.102 304.497 235.714C301.942 236.245 301.771 236.451 303.197 237.277C306.165 238.995 308.888 237.925 309.111 234.953C309.222 233.476 310.13 231.38 311.13 230.294C312.596 228.702 312.849 227.469 312.44 223.896C312.035 220.341 312.21 219.47 313.333 219.47C314.102 219.47 314.923 218.454 315.158 217.213C315.477 215.533 315.117 214.83 313.755 214.471C312.241 214.072 312.025 213.474 312.511 211.022C312.835 209.391 313.099 207.073 313.099 205.872C313.099 204.248 313.479 203.836 314.585 204.264C315.789 204.731 315.958 205.696 315.477 209.36C314.935 213.481 315.049 213.88 316.762 213.88C317.795 213.88 318.64 214.324 318.64 214.867C318.64 215.409 319.063 215.59 319.579 215.268C320.095 214.946 320.299 214.326 320.032 213.891C319.765 213.455 320.204 212.436 321.007 211.626C321.81 210.815 322.022 210.153 321.477 210.153C320.933 210.153 320.488 209.314 320.488 208.289C320.488 207.264 320.903 206.426 321.411 206.426C321.919 206.426 322.335 205.6 322.335 204.591C322.335 203.403 321.88 202.934 321.043 203.258C320.332 203.533 319.475 203.308 319.139 202.759C318.803 202.21 317.552 202.006 316.362 202.308C314.706 202.728 314.053 202.4 313.586 200.914C312.973 198.969 309.651 196.548 308.788 197.419C308.537 197.673 308.78 198.728 309.33 199.763C309.879 200.798 310.328 203.741 310.328 206.304C310.328 208.867 310.72 212.003 311.199 213.274C311.859 215.028 311.749 215.709 310.737 216.101C310.004 216.384 309.404 217.269 309.404 218.066C309.404 218.864 308.339 219.925 307.035 220.425C303.71 221.701 302.285 221.556 304.208 220.137C305.729 219.015 305.693 218.791 303.599 216.512C300.141 212.749 299.806 211.085 302.506 211.085C305.592 211.085 305.374 209.79 301.683 206.191C299.045 203.617 296.272 198.16 298.221 199.375C298.578 199.598 299.431 199.431 300.116 199.004C301.762 197.979 300.655 195.199 298.36 194.593C297.37 194.332 295.89 193.088 295.072 191.827C294.254 190.567 291.707 188.724 289.41 187.732C285.222 185.921 284.352 183.672 287.781 183.52C290.695 183.39 297.753 181.037 299.38 179.653C300.619 178.599 300.998 178.585 301.427 179.581C301.717 180.253 301.889 178.611 301.81 175.932C301.73 173.255 301.951 170.773 302.302 170.42C302.652 170.066 302.939 167.457 302.939 164.621C302.939 159.643 301.915 158.931 300.751 163.099C300.465 164.124 300.385 163.18 300.574 161.003C300.883 157.42 300.719 157.043 298.85 157.043C297.168 157.043 296.782 156.521 296.782 154.248C296.782 152.71 297.065 151.452 297.411 151.452C297.756 151.452 298.495 150.509 299.052 149.356C299.956 147.485 300.01 147.581 299.548 150.246C299.175 152.4 299.496 153.699 300.702 154.905C302.31 156.514 302.35 156.512 301.733 154.87C301.38 153.932 301.092 151.357 301.092 149.148C301.092 145.562 300.821 145.056 298.552 144.417C297.156 144.024 295.285 143.795 294.396 143.909C293.224 144.059 292.78 143.46 292.78 141.728C292.78 139.961 293.26 139.34 294.627 139.34C295.653 139.34 296.474 139.961 296.474 140.737C296.474 141.644 297.365 142.13 299.014 142.121C300.411 142.113 301.108 141.799 300.563 141.422C300.018 141.046 299.304 140.004 298.975 139.107C298.647 138.21 297.535 137.476 296.503 137.476C295.106 137.476 294.627 136.868 294.627 135.092C294.627 133.537 294.258 132.937 293.569 133.367C292.806 133.843 292.722 133.274 293.267 131.326C294.218 127.928 294.542 123.454 294.63 112.552C294.69 105.072 294.908 103.931 296.279 103.919C297.367 103.909 297.512 103.682 296.746 103.191C295.936 102.671 295.708 98.6111 295.91 88.2966L296.187 74.1172H211.822H127.456L127.398 96.2463C127.263 147.621 127.033 155.222 125.587 156.145C124.667 156.732 124.599 157.019 125.378 157.029C126.042 157.036 126.533 158.231 126.533 159.838C126.533 161.702 126.071 162.634 125.147 162.634C123.995 162.634 123.761 160.793 123.757 151.685C123.754 145.664 123.565 128.159 123.335 112.785C123.106 97.411 122.901 82.4209 122.879 79.4748L122.838 74.1172H61.4191H0V280.5ZM302.483 131.891C303.405 132.92 304.35 133.568 304.583 133.334C305.083 132.829 302.451 130.022 301.476 130.022C301.108 130.022 301.56 130.864 302.483 131.891ZM297.059 134.203C297.396 135.087 298.443 135.595 299.593 135.429C302.248 135.047 301.71 133.354 298.817 132.989C296.99 132.759 296.609 133.021 297.059 134.203ZM302.44 136.607C302.104 137.153 302.029 137.8 302.271 138.045C302.513 138.289 302.957 137.841 303.258 137.05C303.882 135.409 303.35 135.12 302.44 136.607ZM302.03 148.89C302.022 150.812 302.176 152.384 302.369 152.384C303.17 152.384 303.527 147.755 302.814 146.621C302.323 145.841 302.039 146.663 302.03 148.89ZM124.01 166.593C124.215 168.258 124.762 170.46 125.224 171.485C125.936 173.063 126.142 172.776 126.565 169.622C127.172 165.108 126.769 163.565 124.986 163.565C124.004 163.565 123.739 164.388 124.01 166.593ZM249.371 164.977C249.371 165.568 255.111 169.147 256.067 169.152C258.001 169.162 256.352 167.146 253.414 165.907C249.735 164.356 249.371 164.272 249.371 164.977ZM242.213 169.491C241.07 170.062 240.135 170.85 240.135 171.24C240.135 172.376 244.274 172.061 245.492 170.833C246.22 170.098 246.912 170.03 247.511 170.634C248.109 171.237 247.001 171.975 244.278 172.786C239.632 174.17 238.824 175.653 242.675 175.726L245.215 175.776L242.915 177.357C239.379 179.789 235.168 184.022 235.725 184.584C235.999 184.86 237.727 184.235 239.564 183.194C241.402 182.153 242.906 181.712 242.906 182.216C242.906 182.72 243.366 183.132 243.928 183.132C244.49 183.132 244.723 182.535 244.445 181.804C244.16 181.053 244.828 179.891 245.983 179.127C248.264 177.62 255.836 176.598 255.836 177.798C255.836 178.63 261.539 181.269 263.338 181.269C265.488 181.269 261.19 177.67 255.987 175.114C253.11 173.702 250.445 172.621 250.063 172.714C249.682 172.806 249.371 172.436 249.371 171.889C249.371 171.332 250.151 171.143 251.14 171.46C252.114 171.772 253.139 171.653 253.419 171.195C253.941 170.344 247.867 168.133 245.569 168.339C244.866 168.401 243.356 168.92 242.213 169.491ZM123.841 178.939C123.937 180.704 125.476 183.676 125.53 182.2C125.558 181.432 125.178 180.174 124.685 179.405C124.193 178.636 123.813 178.427 123.841 178.939ZM124.865 188.257C124.884 189.794 125.091 190.31 125.325 189.404C125.56 188.497 125.544 187.239 125.291 186.608C125.038 185.978 124.847 186.719 124.865 188.257ZM188.974 203.627C184.631 206.428 183.43 209.221 186.566 209.221C187.582 209.221 188.413 208.881 188.413 208.465C188.413 208.049 189.14 206.88 190.03 205.867C190.919 204.853 191.75 203.516 191.877 202.895C192.157 201.529 192.269 201.501 188.974 203.627ZM196.418 207.047C196.079 207.388 195.802 208.472 195.802 209.454C195.802 211.87 198.033 211.01 198.407 208.45C198.692 206.49 197.678 205.775 196.418 207.047ZM324.684 207.293C324.391 207.77 324.575 208.423 325.091 208.746C325.607 209.067 326.029 208.677 326.029 207.878C326.029 206.241 325.475 206.001 324.684 207.293ZM354.297 211.472C354.606 212.284 355.264 212.948 355.76 212.948C356.974 212.948 356.214 210.83 354.833 210.366C354.158 210.139 353.952 210.566 354.297 211.472ZM332.952 212.023C332.255 213.16 334.789 214.287 336.144 213.442C336.676 213.109 337.112 212.444 337.112 211.961C337.112 210.786 333.678 210.837 332.952 212.023ZM337.714 213.508C336.69 214.924 335.457 215.659 334.637 215.342C333.884 215.05 332.378 215.44 331.29 216.209C328.611 218.102 327.261 217.966 326.685 215.743C326.092 213.454 323.971 213.245 324.311 215.51C324.446 216.408 323.807 218.701 322.892 220.608C321.688 223.113 320.701 224.017 319.331 223.869C317.933 223.717 317.236 224.396 316.672 226.456C315.766 229.762 316.633 238.977 318.014 240.738C318.708 241.624 318.639 242.189 317.77 242.731C317.103 243.147 316.795 243.877 317.087 244.353C317.378 244.828 316.344 245.975 314.79 246.902C313.048 247.94 311.739 248.231 311.377 247.659C310.734 246.644 303.863 245.584 303.863 246.5C303.863 247.817 306.41 250.179 309.704 251.919C311.646 252.945 315.179 255.584 317.554 257.785C320.011 260.06 322.868 261.837 324.179 261.906C326.106 262.008 326.592 262.629 327.128 265.673C327.481 267.678 327.731 270.577 327.685 272.114L327.599 274.909L327.21 272.289C326.887 270.124 326.587 269.863 325.483 270.787C323.556 272.401 320.195 269.224 320.888 266.442C321.314 264.726 320.691 264.111 316.825 262.433C314.313 261.343 311.928 259.931 311.524 259.295C310.821 258.188 307.177 255.809 306.185 255.809C305.25 255.809 305.734 257.829 306.966 259.073C307.832 259.946 308.082 261.808 307.772 265.062C307.363 269.353 307.496 269.785 309.22 269.785C310.263 269.785 311.935 268.737 312.934 267.455C313.933 266.174 315.002 265.126 315.31 265.126C316.428 265.126 315.834 268.091 314.431 269.505C313.64 270.304 313.212 271.532 313.478 272.234C313.751 272.951 313.382 273.512 312.637 273.512C311.804 273.512 311.52 272.961 311.872 272.032C312.306 270.892 311.929 270.625 310.227 270.868C308.65 271.092 308.077 271.714 308.223 273.046C308.335 274.071 308.205 274.409 307.932 273.797C307.661 273.186 306.879 272.902 306.196 273.165C305.482 273.442 304.695 272.825 304.346 271.715C303.603 269.356 302.409 269.242 301.2 271.415C300.435 272.79 300.217 272.827 299.814 271.648C299.551 270.88 299.212 269.202 299.059 267.921C298.805 265.778 298.562 265.944 296.025 269.989C294.251 272.82 291.737 275.227 288.974 276.744C284.164 279.386 283.132 279.638 284.094 277.938C284.456 277.298 283.524 277.926 282.02 279.335C280.516 280.744 278.256 281.898 276.996 281.898C275.123 281.898 274.423 282.667 273.152 286.126C272.298 288.452 272.001 290.104 272.492 289.798C272.982 289.492 273.384 289.94 273.384 290.794C273.384 291.791 273.88 292.154 274.77 291.81C275.72 291.442 276.155 291.866 276.155 293.162C276.155 294.202 275.843 294.857 275.462 294.62C275.081 294.382 273.54 295.176 272.039 296.384C269.493 298.432 269.431 298.627 271.116 299.278C273.7 300.276 275.837 303.224 277.093 307.521C277.691 309.571 278.544 311.877 278.989 312.645C284.405 322.016 289.047 330.672 290.482 334.076C292.855 339.707 296.154 344.918 300.3 349.59C302.188 351.716 304.545 355.071 305.538 357.044C307.672 361.282 310.879 372.692 311.783 379.266C312.136 381.828 313.134 384.973 314.001 386.254C317.84 391.92 320.717 399.512 321.15 405.117C321.517 409.871 321.157 412.125 319.196 417.345C316.625 424.192 316.267 426.319 317.682 426.319C318.17 426.319 320.441 428.154 322.73 430.398C327.554 435.129 327.559 435.486 322.926 445.334L319.742 452.101L321.537 459.475C322.523 463.531 323.938 468.984 324.68 471.591C325.422 474.198 326.032 477.133 326.035 478.113C326.038 479.093 326.473 481.467 327.002 483.389L327.963 486.883H369.482H411V380.197C411 275.214 410.971 273.512 409.207 273.512C408.221 273.512 407.181 273.894 406.895 274.361C406.353 275.244 405.754 275.207 401.533 274.022C398.918 273.289 398.295 272.193 399.917 271.182C400.425 270.866 400.84 269.793 400.84 268.798C400.84 267.803 400.425 266.99 399.917 266.99C399.409 266.99 398.993 267.797 398.993 268.785C398.993 269.774 397.954 271.406 396.684 272.413C394.057 274.499 393.637 275.861 395.891 274.988C397.159 274.497 397.216 274.634 396.24 275.82C394.782 277.592 393.452 277.65 393.452 275.941C393.452 275.227 392.923 274.438 392.277 274.188C390.853 273.637 390.347 269.172 391.618 268.379C392.119 268.067 392.528 266.969 392.528 265.94C392.528 264.434 392.123 264.192 390.45 264.698C388.22 265.375 381.445 271.496 381.445 272.835C381.445 273.281 380.813 274.282 380.041 275.061C378.785 276.329 378.535 276.182 377.667 273.672C377.135 272.128 376.104 270.636 375.377 270.355C374.651 270.074 374.056 268.782 374.056 267.484C374.056 265.748 374.543 265.126 375.903 265.126C376.919 265.126 377.751 264.656 377.751 264.081C377.751 263.38 378.232 263.438 379.206 264.253C380.413 265.263 380.806 265.243 381.501 264.135C381.963 263.399 382.346 262.482 382.355 262.098C382.367 261.49 378.787 261.015 375.211 261.148C373.936 261.197 373.796 260.147 374.646 256.941C375.155 255.027 375.673 254.844 379.769 255.132C382.274 255.308 384.521 255.131 384.762 254.739C385.662 253.27 387.964 255.101 387.413 256.85C386.663 259.235 387.747 259.054 390.197 256.387C394.202 252.027 398.993 250.935 398.993 254.382C398.993 255.987 400.432 256.297 401.302 254.877C401.616 254.364 402.576 253.952 403.435 253.959C404.534 253.969 404.661 254.188 403.866 254.698C402.525 255.558 402.833 262.193 404.257 263.106C404.79 263.449 405.519 265.092 405.878 266.757C406.394 269.158 406.992 269.785 408.764 269.785H411V244.964V220.142L406.382 220.695C403.842 220.997 401.764 220.877 401.764 220.426C401.764 219.975 402.401 219.471 403.181 219.305C404.309 219.066 404.215 218.767 402.719 217.832C400.992 216.753 400.84 216.881 400.84 219.415C400.84 221.445 400.027 222.797 397.752 224.547C396.053 225.855 394.217 226.924 393.672 226.924C393.128 226.924 392.497 227.449 392.27 228.089C391.984 228.898 391.167 228.614 389.594 227.157C386.77 224.543 385.336 224.536 380.084 227.11C375.858 229.181 374.248 232.515 377.473 232.515C378.692 232.515 378.796 232.765 377.939 233.629C377.081 234.495 376.53 234.338 375.475 232.93C374.727 231.933 374.101 230.545 374.086 229.847C374.065 228.979 373.207 228.702 371.381 228.972C369.446 229.259 368.835 229.03 369.171 228.147C369.426 227.474 370.058 226.924 370.573 226.924C371.129 226.924 371.06 226.375 370.402 225.576C369.792 224.834 369.409 223.263 369.55 222.082C369.691 220.901 369.31 219.023 368.702 217.907C368.094 216.792 367.832 215.262 368.119 214.508C368.935 212.362 367.146 211.9 363.761 213.382C362.058 214.129 361.08 214.782 361.588 214.834C362.096 214.887 361.577 215.309 360.433 215.772C359.063 216.328 358.355 217.401 358.355 218.92C358.355 221.047 356.904 222.976 355.995 222.059C355.78 221.843 355.457 220.306 355.277 218.646C355.041 216.475 354.23 215.25 352.39 214.287C349.011 212.519 345.056 212.499 345.724 214.253C346.027 215.051 345.463 215.759 344.277 216.072C341.674 216.759 340.807 216.082 340.807 213.359C340.807 210.471 339.875 210.515 337.714 213.508ZM298.321 214.298C298.321 214.654 298.945 215.574 299.707 216.342C300.469 217.111 301.092 217.342 301.092 216.856C301.092 216.369 300.469 215.45 299.707 214.812C298.945 214.173 298.321 213.942 298.321 214.298ZM390.681 214.935C390.681 216.39 394.356 223.197 395.141 223.197C395.542 223.197 396.659 222.614 397.625 221.902C399.085 220.826 399.21 220.226 398.369 218.363C397.354 216.117 390.681 213.141 390.681 214.935ZM349.581 216.675C349.895 217.188 350.335 217.607 350.559 217.607C350.783 217.607 350.966 217.188 350.966 216.675C350.966 216.163 350.526 215.743 349.988 215.743C349.451 215.743 349.267 216.163 349.581 216.675ZM315.156 219.479C313.549 222.075 313.747 223.197 315.815 223.197C318.236 223.197 318.693 222.181 317.383 219.713C316.308 217.686 316.268 217.682 315.156 219.479ZM319.564 220.347C319.564 221.402 319.98 222.266 320.488 222.266C320.996 222.266 321.411 221.662 321.411 220.923C321.411 220.184 320.996 219.321 320.488 219.004C319.98 218.688 319.564 219.292 319.564 220.347ZM364.128 228.374C362.455 230.21 362.701 230.821 364.979 230.484C366.082 230.32 367.174 229.603 367.407 228.891C367.647 228.159 367.412 227.858 366.866 228.198C366.336 228.529 365.762 228.419 365.591 227.954C365.421 227.489 364.763 227.678 364.128 228.374ZM404.909 229.584C406.863 231.805 407.306 232.008 407.306 230.684C407.306 230.19 406.371 229.29 405.228 228.685C403.161 227.591 403.159 227.595 404.909 229.584ZM393.558 230.086C392.136 230.881 391.726 231.55 392.403 231.972C392.98 232.33 393.873 232.362 394.387 232.041C394.902 231.721 396.539 232.07 398.026 232.819C401.377 234.506 402.106 233.907 400.224 231.01C398.607 228.52 396.804 228.27 393.558 230.086ZM204.115 236.708C204.115 237.608 205.018 238.11 206.654 238.118C208.051 238.125 210.233 238.401 211.503 238.731C213.803 239.327 213.805 239.321 212.053 237.32C209.942 234.908 204.115 234.459 204.115 236.708ZM289.085 240.388C289.085 241.132 288.528 242.075 287.847 242.485C286.119 243.525 285.267 247.547 286.466 249.005C287.664 250.46 290.588 250.602 291.419 249.245C291.747 248.71 291.504 247.652 290.881 246.894C290.257 246.135 290.07 245.21 290.465 244.838C290.861 244.466 291.338 244.581 291.525 245.093C292.735 248.419 295.777 252.082 297.329 252.082C300.14 252.082 300.326 250.691 297.831 248.328C296.577 247.139 295.551 245.689 295.551 245.106C295.551 243.977 290.81 239.037 289.727 239.037C289.374 239.037 289.085 239.645 289.085 240.388ZM245.376 243.734C242.997 245.622 242.993 245.648 244.791 247.461C245.785 248.465 246.6 249.907 246.6 250.666C246.6 252.157 250.029 253.377 252.761 252.858C253.69 252.681 254.861 251.595 255.362 250.445C256.375 248.122 257.683 247.796 259.33 249.457C259.931 250.063 260.712 250.269 261.064 249.913C261.869 249.102 259.173 246.99 254.725 244.946C252.843 244.082 251.518 243.029 251.778 242.604C252.753 241.012 247.678 241.908 245.376 243.734ZM252.613 248.369C252.932 248.89 253.58 249.076 254.052 248.78C255.334 247.982 255.095 247.423 253.472 247.423C252.681 247.423 252.294 247.849 252.613 248.369ZM343.219 252.25C343.476 252.67 343.246 253.013 342.708 253.013C341.315 253.013 341.49 256.736 342.885 256.765C343.52 256.778 345.47 258.915 347.217 261.514C350.31 266.111 353.782 268.461 356.137 267.549C356.775 267.302 357.79 267.7 358.392 268.432C358.995 269.165 359.867 269.528 360.33 269.24C360.792 268.951 361.112 269.06 361.039 269.483C360.667 271.648 361.31 271.664 362.973 269.53C364.793 267.196 365.384 265.126 364.229 265.126C363.904 265.126 363.087 265.859 362.411 266.757C361.734 267.657 361.171 267.891 361.155 267.278C361.139 266.667 361.53 265.915 362.024 265.608C363.449 264.719 365.968 258.792 365.35 257.783C364.358 256.163 366.908 255.47 368.054 257.05C368.661 257.888 369.396 258.336 369.685 258.045C369.974 257.753 369.549 256.736 368.741 255.783C367.694 254.551 366.826 254.293 365.725 254.887C364.779 255.398 363.822 255.36 363.257 254.79C362.641 254.169 360.36 254.181 356.418 254.827C348.529 256.118 348.195 256.086 348.195 254.05C348.195 252.817 347.384 252.173 345.474 251.89C343.977 251.669 342.961 251.83 343.219 252.25ZM303.968 253.879C303.175 254.375 303.08 254.854 303.7 255.241C304.228 255.57 304.937 255.385 305.277 254.83C306.125 253.446 305.451 252.956 303.968 253.879ZM339.337 257.091C338.555 259.148 339.596 260.198 341.007 258.774C341.84 257.934 341.843 257.413 341.022 256.585C340.2 255.755 339.799 255.876 339.337 257.091ZM329.468 260.105C328.152 261.432 328.732 266.99 330.185 266.99C330.947 266.99 331.571 266.361 331.571 265.592C331.571 264.01 333.017 263.718 333.88 265.126C334.194 265.639 335.387 266.058 336.532 266.058C338.065 266.058 338.959 266.941 339.915 269.403C340.631 271.242 342.324 273.543 343.677 274.515C346.127 276.274 346.14 276.274 346.524 274.199C346.736 273.052 346.657 271.066 346.346 269.785C345.785 267.465 345.78 267.464 345.227 269.556C344.337 272.923 341.547 271.206 341.864 267.486C342.052 265.298 341.482 263.859 339.731 262.092C337.502 259.844 337.172 259.772 334.796 261.016C332.552 262.19 332.124 262.175 331.192 260.89C330.61 260.088 329.834 259.734 329.468 260.105ZM355.584 260.933C355.584 261.702 356 262.331 356.508 262.331C357.016 262.331 357.431 261.702 357.431 260.933C357.431 260.165 357.016 259.536 356.508 259.536C356 259.536 355.584 260.165 355.584 260.933ZM370.362 263.783C370.362 264.582 370.784 264.972 371.3 264.651C371.816 264.329 372 263.675 371.707 263.198C370.916 261.906 370.362 262.146 370.362 263.783ZM231.592 269.47C232.227 269.729 233.266 269.729 233.901 269.47C234.536 269.212 234.016 269 232.746 269C231.476 269 230.957 269.212 231.592 269.47ZM261.559 299.682C258.803 301.726 257.683 303.23 257.683 304.883C257.683 307.131 257.834 307.075 262.26 303.171C266.426 299.497 268.082 296.806 266.177 296.806C265.769 296.806 263.691 298.1 261.559 299.682ZM207.809 305.686C207.809 306.439 207.324 307.055 206.731 307.055C206.139 307.055 205.918 307.322 206.243 307.648C206.566 307.975 205.984 309.443 204.948 310.91C203.912 312.377 203.291 313.577 203.567 313.577C203.843 313.577 203.661 314.731 203.162 316.139C202.333 318.486 202.37 318.555 203.597 316.962C204.334 316.005 206.207 313.816 207.759 312.096C210.809 308.714 211.405 305.71 209.194 304.854C208.35 304.528 207.809 304.853 207.809 305.686ZM191.8 316.062C191.461 316.403 191.184 317.116 191.184 317.646C191.184 318.229 191.615 318.174 192.277 317.506C192.878 316.9 193.155 316.187 192.893 315.922C192.631 315.658 192.138 315.72 191.8 316.062ZM200.393 321.082C199.834 322.136 199.538 323.487 199.737 324.086C199.934 324.685 200.562 323.823 201.133 322.171C202.306 318.777 201.918 318.207 200.393 321.082ZM197.297 328.634C196.489 332.704 197.13 332.9 198.332 328.95C198.878 327.157 198.999 325.69 198.602 325.69C198.205 325.69 197.618 327.015 197.297 328.634ZM174.56 337.803C174.56 338.315 175.391 338.734 176.407 338.734C177.423 338.734 178.254 338.315 178.254 337.803C178.254 337.29 177.423 336.871 176.407 336.871C175.391 336.871 174.56 337.29 174.56 337.803ZM171.404 349.217C171.172 350.37 171.026 352.048 171.078 352.947C171.165 354.452 171.303 354.463 172.808 353.089C173.707 352.268 174.781 351.806 175.194 352.063C175.607 352.319 176.032 351.312 176.139 349.825C176.303 347.525 175.995 347.12 174.078 347.12C172.481 347.12 171.701 347.731 171.404 349.217ZM199.189 355.196C198.85 355.537 198.573 356.585 198.573 357.525C198.573 358.464 198.088 359.233 197.495 359.233C196.903 359.233 196.669 359.485 196.974 359.795C197.754 360.58 206.885 359.222 206.885 358.32C206.885 357.914 205.471 356.905 203.744 356.078C200.18 354.372 200.033 354.343 199.189 355.196ZM244.215 378.649C242.82 379.666 240.135 385.341 240.135 387.274C240.135 388.263 239.77 389.803 239.325 390.693C237.351 394.634 236.422 399.49 236.546 405.227C236.619 408.628 237.041 411.411 237.483 411.411C238.956 411.411 238.306 416.494 236.437 419.587C235.423 421.265 233.512 423.053 232.19 423.56C230.401 424.246 229.956 424.894 230.448 426.099C230.811 426.989 231.305 428.555 231.545 429.58C231.871 430.967 231.756 431.12 231.095 430.179C230.535 429.383 229.992 429.265 229.626 429.862C228.618 431.508 229.953 433.441 234.249 436.553C241.565 441.854 242.641 443.222 242.503 447.05C242.434 448.973 242.808 450.555 243.334 450.568C244.395 450.593 247.524 456.432 247.524 458.389C247.524 459.074 246.952 460.113 246.254 460.698C244.251 462.374 242.411 469.985 243.695 471.281C245.301 472.901 244.962 476.155 242.997 477.948C242.026 478.834 241.089 481.159 240.9 483.148L240.561 486.746L255.48 486.835C268.043 486.911 270.485 486.7 270.94 485.506C271.293 484.578 270.931 484.083 269.892 484.074C268.987 484.065 268.703 483.764 269.233 483.375C270.759 482.249 272.529 476.122 272.958 470.476C273.408 464.569 275.134 458.93 276.495 458.93C276.985 458.93 277.124 458.665 276.802 458.34C276.481 458.016 277.215 456.96 278.434 455.992C280.256 454.546 280.559 453.658 280.132 451.008C279.729 448.507 279.969 447.645 281.194 447.171C283.741 446.185 280.961 444.982 276.155 444.988C271.361 444.996 265.671 447.346 261.891 450.881C258.843 453.73 258.09 453.892 257.32 451.866C256.527 449.78 256.608 449.498 257.914 449.783C258.549 449.922 260.939 448.896 263.225 447.503C265.511 446.111 267.173 444.936 266.919 444.893C263.241 444.272 261.797 443.828 260.84 443.027C260.048 442.365 259.498 442.389 259.059 443.106C258.609 443.841 257.978 443.759 256.899 442.827C256.06 442.103 254.674 441.261 253.818 440.955C252.963 440.65 251.82 439.567 251.279 438.547C250.462 437.006 250.627 436.588 252.258 436.065C253.413 435.695 254.499 435.893 254.899 436.547C255.389 437.346 255.736 437.244 256.14 436.181C257.465 432.698 254.882 430.926 248.999 431.281C246.726 431.419 246.264 431.054 245.965 428.881C245.707 427.002 246.009 426.319 247.096 426.319C248.955 426.319 250.781 424.517 251.618 421.856C252.31 419.657 251.436 419.672 246.771 421.934C242.305 424.1 241.509 417.655 244.439 403.052C245.413 398.195 245.532 395.989 244.832 395.753C243.201 395.205 243.671 392.976 246.246 389.052L248.662 385.368L246.863 381.698C245.874 379.681 244.683 378.309 244.215 378.649ZM176.663 387.418C174.859 389.773 174.243 391.22 175.335 390.539C176.429 389.857 178.617 386.254 177.938 386.254C177.728 386.254 177.155 386.778 176.663 387.418ZM186.177 406.677C183.433 409.566 183.631 411.411 186.686 411.411C187.709 411.411 189.215 412.086 190.033 412.912C191.401 414.292 191.619 414.278 192.738 412.734C194.395 410.448 194.266 408.072 192.365 405.831C190.237 403.323 189.23 403.461 186.177 406.677ZM304.751 451.514C308.302 454.575 312.496 455.51 310.21 452.729C309.005 451.263 303.813 448.638 302.276 448.719C301.879 448.74 302.993 449.998 304.751 451.514ZM154.497 451.709C152.282 454.599 152.311 455.471 154.554 453.411C155.905 452.168 157.011 451.015 157.011 450.848C157.011 450.078 155.298 450.665 154.497 451.709Z" fill="#010872"/>
</g>
<path fill-rule="evenodd" clip-rule="evenodd" d="M484.283 1.1397C482.262 1.88962 479.94 3.18905 479.124 4.02597C477.874 5.30888 478.228 5.43882 481.366 4.85188C490.363 3.17033 492.634 2.9567 490.148 4.02597C488.042 4.93116 487.815 5.7758 488.265 10.9999L488.779 16.9454L483.554 18.0939C480.68 18.7249 477.916 18.9264 477.411 18.5399C476.907 18.1523 457.407 18.2657 434.078 18.7899C407.756 19.3801 388.349 19.3449 382.929 18.6941C374.861 17.725 287.461 17.7063 177.289 18.6489C132.69 19.0311 47.7316 17.7393 42.589 16.6018C37.5174 15.4796 28.8324 15.331 28.8324 16.3661C28.8324 16.9189 27.6126 17.3704 26.1212 17.3704C22.4929 17.3704 18.5104 20.5397 12.3279 28.3495C3.52373 39.4695 3.32311 40.1203 4.21614 54.6518C4.64947 61.7051 4.91543 69.7053 4.80767 72.4308C4.70106 75.1563 4.63801 86.306 4.67011 97.208C4.70106 108.11 4.69762 122.481 4.66208 129.143C4.62655 135.805 4.50274 170.741 4.3858 206.778C4.22302 257.382 3.82866 273.452 2.65592 277.357C1.43158 281.438 1.37656 286.712 2.37505 304.672C3.88598 331.851 3.94216 348.128 2.54586 353.239C1.0292 358.789 -0.29716 374.632 0.0582186 382.971C0.22559 386.908 0.474353 399.049 0.611918 409.951L0.859536 429.773L4.51879 434.874C6.56737 437.729 10.073 440.862 12.4861 441.992C21.5609 446.241 -2.43172 445.972 496.225 447.432L690.206 448L695.981 444.014C701.669 440.089 703.739 435.829 699.958 435.829C695.643 435.829 677.684 421.278 677.684 417.781C677.684 416.806 677.237 416.008 676.691 416.008C676.146 416.008 676.073 414.039 676.532 411.633C676.99 409.226 677.071 406.977 676.712 406.631C676.353 406.286 675.98 403.148 675.884 399.656C675.788 396.165 675.193 392.345 674.562 391.168C673.932 389.991 673.125 386.55 672.769 383.522L672.123 378.016L673.76 381.595C674.661 383.564 675.783 385.173 676.254 385.172C677.933 385.168 677.655 366.657 675.917 362.662C673.829 357.86 673.789 355.441 675.797 355.441C677.078 355.441 677.28 349.42 676.956 321.029C676.741 302.102 676.524 281.908 676.475 276.154C676.277 252.832 677.834 197.465 678.717 196.378C691.896 180.165 698.256 163.893 698.299 146.284C698.318 138.584 696.129 127.698 693.49 122.365C692.845 121.06 692.653 119.469 693.066 118.828C694.282 116.936 688.171 106.414 682.721 101.019C676.986 95.3404 676.914 94.8999 677.426 68.4246L677.684 55.0582L682.719 50.1512C685.489 47.4532 691.118 43.6871 695.231 41.782C701.758 38.7581 702.665 37.9685 702.39 35.5524C701.974 31.9163 703.292 32.0363 705.26 35.8157C707.139 39.4243 708.758 66.3753 708.782 94.455C708.791 105.054 708.689 168.979 708.556 236.511C708.332 349.654 708.848 384.236 710.733 382.425C711.129 382.045 711.517 367.518 711.596 350.142C711.675 332.767 712.157 274.662 712.666 221.02C713.362 147.82 713.26 122.573 712.261 119.821C711.258 117.056 711.255 115.778 712.247 114.628C713.163 113.568 713.342 109.602 712.836 101.633C712.354 94.0894 712.516 89.9191 713.306 89.45C714.075 88.993 714.211 86.502 713.684 82.5113C713.232 79.0865 712.974 75.7895 713.112 75.1838C713.809 72.0983 713.879 43.0946 713.191 42.1476C712.752 41.5419 712.082 39.8075 711.705 38.2934C710.728 34.3775 699.739 23.0559 694.354 20.4164C690.295 18.4276 688.327 18.2514 676.008 18.7756C667.729 19.128 654.908 18.7117 643.962 17.736C629.551 16.4509 622.886 16.3573 612.239 17.29C604.827 17.9397 596.244 18.4716 593.165 18.4716H587.568L587.285 13.8708C586.966 8.67637 586.433 7.45954 584.473 7.45844C583.541 7.45844 583.237 9.2534 583.515 13.1109L583.923 18.7645L564.861 18.2624C552.779 17.9452 545.321 17.3021 544.491 16.5049C543.772 15.8144 543.274 12.9281 543.386 10.0925L543.588 4.93559L536.078 5.60953C531.01 6.06433 528.807 5.91126 529.303 5.13931C529.773 4.40811 537.145 4.05682 549.695 4.16584C574.504 4.38168 576.218 4.32881 575.218 3.36746C574.198 2.38848 568.536 1.97003 557.027 2.02509C552.14 2.04932 548.141 1.6705 548.138 1.18487C548.131 -0.365633 488.451 -0.408597 484.283 1.1397ZM497.702 1.95351C493.788 2.74528 493.774 2.76621 497.129 2.82788C499.021 2.86311 502.89 2.4942 505.727 2.00966L510.886 1.1276L506.3 1.1353C503.778 1.1386 499.909 1.50752 497.702 1.95351ZM576.803 5.25713C576.803 5.8628 577.349 6.35834 578.017 6.35834C578.684 6.35834 578.912 5.8628 578.522 5.25713C578.132 4.65147 577.587 4.15592 577.308 4.15592C577.029 4.15592 576.803 4.65147 576.803 5.25713ZM438.09 20.7655C433.626 21.3535 434.076 21.4669 441.434 21.6101C446.11 21.7004 449.638 21.4889 449.273 21.1388C448.259 20.1631 443.798 20.0144 438.09 20.7655ZM456.433 20.7489C453.939 21.4504 454.125 21.5704 457.865 21.6651C462.231 21.7774 463.328 21.3028 460.731 20.4263C459.944 20.1598 458.009 20.3051 456.433 20.7489ZM390.783 24.1142C391.561 24.8674 392.486 25.2055 392.838 24.8664C393.191 24.5272 392.555 23.9116 391.425 23.4975C389.791 22.9007 389.659 23.0262 390.783 24.1142ZM11.0199 33.0758C8.89223 35.4071 8.76383 37.4399 8.63773 70.779C8.53685 97.2454 8.8223 105.469 9.78411 103.815C10.488 102.604 12.9917 99.7804 15.3486 97.5406C17.7056 95.2996 19.2028 93.2117 18.6766 92.899C18.1504 92.5873 17.9441 85.0044 18.218 76.0494C18.5046 66.6528 18.1573 56.2739 17.3961 51.5079C16.6704 46.9654 15.8038 40.7711 15.4702 37.7428C14.7124 30.8591 13.8595 29.9638 11.0199 33.0758ZM400.35 32.3281C400.405 33.611 400.677 33.872 401.043 32.9943C401.374 32.1993 401.333 31.2489 400.952 30.8833C400.572 30.5177 400.301 31.1675 400.35 32.3281ZM401.948 37.0996C402.332 38.2603 402.101 39.5333 401.434 39.9286C400.768 40.324 400.549 41.1543 400.947 41.7732C401.345 42.3932 401.74 54.4745 401.825 68.6228C401.997 97.1992 402.319 98.535 408.096 94.5838C412.646 91.4718 413.216 87.6616 412.347 66.1583C411.849 53.8204 411.105 47.5534 409.791 44.6253C408.771 42.3546 407.499 40.4958 406.964 40.4958C406.43 40.4958 405.992 39.965 405.992 39.3164C405.992 38.0346 403.17 34.9897 401.984 34.9897C401.582 34.9897 401.566 35.939 401.948 37.0996ZM374.149 37.4465C372.201 39.7018 371.283 44.5824 372.654 45.3962C373.431 45.8576 373.893 44.959 373.893 42.9834C373.893 41.2523 374.504 39.2492 375.249 38.5323C375.996 37.8155 376.327 36.9609 375.986 36.6339C375.645 36.3057 374.818 36.6724 374.149 37.4465ZM479.049 43.3964C478.606 44.0835 477.908 49.5631 477.497 55.5735C476.722 66.9314 477.733 71.3296 481.12 71.3296C482.481 71.3296 482.782 69.3937 482.711 61.1434C482.623 50.9385 480.578 41.0288 479.049 43.3964ZM527.044 46.2419C524.831 51.1962 524.517 66.9149 526.591 68.9069C527.348 69.6337 528.93 70.2284 530.107 70.2284C532.113 70.2284 532.197 69.4906 531.437 58.3904C530.991 51.879 530.232 45.5613 529.749 44.35C528.975 42.4053 528.658 42.6277 527.044 46.2419ZM568.881 53.9856C568.825 60.497 568.778 66.0713 568.778 66.3742C568.778 66.677 569.164 66.9281 569.638 66.9325C570.954 66.9435 571.306 49.8792 570.073 45.7739C569.209 42.8942 568.964 44.5846 568.881 53.9856ZM355.358 64.1718C354.958 66.5944 354.314 69.5677 353.928 70.779C353.541 71.9903 354.034 71.3087 355.024 69.2637C356.013 67.2188 356.656 64.2455 356.454 62.6565C356.157 60.3263 355.945 60.6204 355.358 64.1718ZM373.96 70.3793C371.479 74.2863 370.814 79.0381 372.747 79.0381C373.377 79.0381 373.893 77.6616 373.893 75.98C373.893 74.2974 374.72 71.7877 375.73 70.4024C376.74 69.0171 377.283 67.6119 376.938 67.2805C376.592 66.9479 375.252 68.3431 373.96 70.3793ZM520.72 68.668C520.775 69.9509 521.047 70.2119 521.413 69.3342C521.744 68.5391 521.703 67.5888 521.322 67.2232C520.942 66.8576 520.671 67.5073 520.72 68.668ZM430.882 104.359C430.405 106.112 429.626 106.428 427.022 105.928L423.761 105.302V266.106C423.761 393.281 423.461 427.197 422.328 428.286C420.333 430.202 420.503 434.728 422.568 434.728C424.258 434.728 430.066 429.405 430.066 427.857C430.066 427.396 431.034 427.02 432.219 427.02C433.402 427.02 434.921 426.382 435.594 425.604C436.441 424.624 437.013 375.828 437.455 266.754C438.086 111.06 438.069 109.282 435.816 105.742C433.202 101.636 431.735 101.224 430.882 104.359ZM10.9236 127.491C10.9236 134.456 11.1105 137.306 11.3375 133.823C11.5644 130.34 11.5644 124.642 11.3375 121.159C11.1105 117.676 10.9236 120.526 10.9236 127.491ZM478.521 131.348C471.631 137.013 467.895 144.934 467.903 153.861C467.91 161.56 469.631 169.337 471.327 169.337C471.895 169.337 471.556 166.739 470.573 163.565C467.207 152.675 470.698 141.364 480.207 132.36C486.329 126.563 485.179 125.874 478.521 131.348ZM534.386 128.35C534.386 129.01 534.917 130.891 535.565 132.528C537.163 136.565 536.091 137.188 532.745 134.168C529.032 130.818 526.63 131.605 529.52 135.226C533.183 139.815 535.533 147.04 535.533 153.711C535.533 160.421 532.859 172.08 530.764 174.505C529.824 175.593 529.991 175.944 531.448 175.944C533.986 175.944 543.357 168.435 545.19 164.932C548.518 158.57 546.915 145.836 541.502 135.648C539.103 131.132 534.386 126.294 534.386 128.35ZM36.927 134.374C35.7772 137.148 32.7564 391.512 33.8616 392.574C34.2479 392.945 34.8153 393.008 35.1226 392.714C35.4298 392.419 36.2082 346.374 36.8536 290.393C38.4448 152.493 38.6282 131.894 38.2659 131.895C38.094 131.896 37.4921 133.012 36.927 134.374ZM39.895 183.928C39.4857 210.728 38.8884 258.673 38.5686 290.47C38.2476 322.267 37.6985 357.526 37.3477 368.822C36.9556 381.442 37.1345 389.613 37.8097 390.014C39.5316 391.037 40.1976 365.892 41.4506 252.478C42.832 127.47 42.8217 135.2 41.6134 135.2C41.0769 135.2 40.3042 157.128 39.895 183.928ZM49.6415 139.329C49.0362 140.438 48.2945 188.716 47.8955 253.029C47.5149 314.504 47.0083 367.031 46.771 369.757C46.5337 372.482 46.5944 377.284 46.9062 380.428L47.4737 386.142L171.994 385.803C251.476 385.587 313.097 385.945 342.368 386.793C379.066 387.856 388.701 387.846 390.614 386.741C392.965 385.383 393.022 384.459 393.877 333.234C394.872 273.588 394.817 162.055 393.786 148.965C393.404 144.119 392.578 139.536 391.95 138.779C391.045 137.688 355.424 137.402 220.751 137.402C59.9578 137.402 50.6365 137.507 49.6415 139.329ZM587.816 139.144C586.959 141.288 586.892 145.696 587.729 144.893C588.92 143.748 590.382 137.402 589.455 137.402C588.936 137.402 588.199 138.186 587.816 139.144ZM478.773 142.222C476.542 145.494 474.744 151.389 474.872 155.014C474.932 156.702 475.52 155.635 476.386 152.268C477.165 149.24 478.683 145.152 479.757 143.183C482.028 139.025 481.383 138.395 478.773 142.222ZM605.672 144.248C604.092 145.766 603.847 149.515 605.328 149.515C606.217 149.515 607.973 143.871 607.29 143.202C607.146 143.06 606.418 143.531 605.672 144.248ZM512.605 146.168C512.605 146.749 510.542 147.818 508.02 148.544C503.689 149.791 503.434 150.102 503.434 154.159C503.434 156.743 503.892 158.184 504.581 157.774C505.855 157.018 506.104 159.402 505.031 162.089C504.119 164.372 502.323 164.299 500.502 161.906C498.33 159.053 497.559 160.69 499.042 165.005C499.758 167.085 500.495 169.379 500.682 170.102C500.926 171.048 502.05 171.135 504.684 170.41C506.698 169.855 508.665 169.59 509.055 169.822C509.445 170.053 511.821 168.904 514.337 167.268C517.406 165.271 519.435 162.849 520.508 159.899C521.967 155.887 521.897 155.051 519.713 150.307C517.979 146.542 516.67 145.111 514.962 145.111C513.666 145.111 512.605 145.586 512.605 146.168ZM515.681 150.231C514.569 151.3 514.742 157.485 515.935 159.295C516.639 160.363 517.183 159.43 517.757 156.161C518.529 151.772 517.409 148.572 515.681 150.231ZM577.012 150.856C576.267 151.571 575.693 153.67 575.736 155.517C575.817 158.855 575.828 158.849 577.461 154.567C579.248 149.882 579.12 148.83 577.012 150.856ZM622.867 150.856C622.122 151.571 621.548 153.67 621.592 155.517C621.672 158.855 621.683 158.849 623.316 154.567C625.103 149.882 624.976 148.83 622.867 150.856ZM511.459 153.855C511.459 155.031 511.975 156.299 512.605 156.673C513.255 157.06 513.752 156.134 513.752 154.536C513.752 152.986 513.236 151.718 512.605 151.718C511.975 151.718 511.459 152.679 511.459 153.855ZM592.905 154.41C592.148 155.286 591.699 157.081 591.904 158.4C592.224 160.449 592.55 160.217 594.145 156.809C596.041 152.755 595.403 151.52 592.905 154.41ZM476.012 161.169C476.067 162.452 476.338 162.713 476.704 161.836C477.035 161.041 476.994 160.09 476.613 159.725C476.233 159.359 475.962 160.009 476.012 161.169ZM607.373 161.262C606.204 162.385 606.464 166.919 607.742 167.678C608.378 168.055 608.59 167.639 608.227 166.727C607.869 165.834 608.151 164.074 608.853 162.816C610.049 160.671 609.064 159.637 607.373 161.262ZM621.952 168.723C621.603 169.595 621.51 171.206 621.745 172.302C622.059 173.763 622.526 173.341 623.501 170.714C624.797 167.226 623.311 165.318 621.952 168.723ZM647.981 211.709C654.485 223.904 655.338 228.095 650.124 222.237C645.984 217.584 645.849 218.393 649.584 225.472C656.259 238.126 661.072 263.135 656.507 261.452C655.535 261.093 654.088 261.833 653.094 263.195C650.93 266.163 652.064 267.563 654.277 264.654C655.808 262.645 655.903 262.722 655.903 265.978C655.903 268.067 655.108 269.929 653.897 270.677C652.13 271.768 652.121 271.847 653.822 271.344C654.885 271.029 655.961 271.116 656.213 271.536C656.467 271.957 656.506 271.655 656.302 270.866C656.097 270.078 656.439 269.735 657.062 270.105C657.685 270.475 658.196 272.778 658.196 275.222C658.196 278.666 657.705 279.787 656.008 280.213C653.698 280.794 652.452 283.704 652.56 288.268C652.62 290.789 652.708 290.836 653.61 288.818C654.38 287.095 654.613 287.598 654.676 291.126C654.799 298.022 644.119 317.816 635.269 327.094C627.779 334.947 616.235 343.847 610.529 346.169C608.588 346.959 606.308 348.405 605.464 349.381C604.073 350.993 604.24 351.028 607.276 349.757C613.436 347.176 619.012 343.919 626.774 338.373C640.094 328.854 639.315 329.342 638.193 331.215C636.595 333.885 629.166 342.662 627.27 344.119C626.309 344.856 624.362 345.476 622.944 345.495C621.353 345.517 620.365 346.21 620.365 347.301C620.365 348.677 621.071 348.91 623.518 348.344C633.68 345.995 651.494 327.628 659.953 310.778C667.994 294.761 670.102 285.93 670.059 268.446C670.015 250.02 668.137 241.645 660.311 224.948C657.645 219.261 645.415 202.045 643.682 201.541C642.95 201.328 644.885 205.904 647.981 211.709ZM562.484 213.403C562.881 214.019 563.684 214.238 564.271 213.889C565.861 212.945 565.566 212.284 563.551 212.284C562.569 212.284 562.089 212.787 562.484 213.403ZM506.484 234.771C504.116 238.659 501.171 245.224 499.94 249.359C495.178 265.355 498.696 290.47 505.699 290.47C506.901 290.47 508.182 290.005 508.548 289.438C509.419 288.085 515.969 284.964 517.94 284.964C518.789 284.964 519.483 284.468 519.483 283.863C519.483 283.257 520.903 282.762 522.636 282.76H525.789V270.372C525.789 263.559 526.189 257.043 526.678 255.892C527.53 253.891 527.69 253.911 530.404 256.36C531.964 257.767 533.24 258.485 533.24 257.956C533.24 257.426 533.848 257.577 534.589 258.289C535.626 259.285 536.68 258.341 539.121 254.236C540.87 251.293 544.307 247.216 546.758 245.176L551.214 241.466L549.057 236.773C546.585 231.4 546.241 231.453 537.869 238.49L532.754 242.789L525.259 237.229C521.137 234.171 516.841 230.776 515.713 229.684C512.432 226.511 511.05 227.272 506.484 234.771ZM567.631 232.565C567.631 235.341 567.631 237.983 567.631 238.438C567.631 238.893 568.221 239.264 568.942 239.264C569.748 239.264 570.252 237.166 570.252 233.811C570.252 230.699 569.689 228.177 568.942 227.937C568.087 227.664 567.631 229.269 567.631 232.565ZM627.904 241.466C628.355 243.283 629.136 245.842 629.638 247.153C630.428 249.217 629.935 249.774 625.966 251.299C623.444 252.268 618.573 253.178 615.141 253.321C611.71 253.463 608.902 254.012 608.901 254.54C608.901 255.068 608.252 254.984 607.46 254.351C606.316 253.441 606.013 255.78 605.993 265.649C605.978 273.417 605.47 278.673 604.642 279.63C603.913 280.474 603.136 282.46 602.916 284.043C602.695 285.627 601.843 287.699 601.023 288.649C599 290.99 599.589 291.649 609.99 298.691C614.967 302.059 619.238 305.391 619.482 306.096C619.726 306.801 620.514 307.03 621.232 306.604C622.811 305.666 629.536 296.234 629.536 294.954C629.536 294.453 630.256 293.47 631.135 292.768C632.016 292.067 633.067 289.794 633.473 287.716C633.879 285.639 634.788 283.597 635.493 283.179C636.339 282.677 636.545 283.132 636.097 284.517C635.723 285.671 635.084 287.663 634.678 288.942C634.116 290.707 634.512 291.413 636.321 291.867C637.903 292.264 638.707 291.945 638.707 290.917C638.707 290.066 639.249 289.369 639.913 289.369C640.577 289.369 641.639 287.936 642.275 286.185C643.2 283.636 643.93 283.127 645.941 283.631C648.332 284.231 648.356 284.169 646.445 282.331C643.955 279.936 643.957 279.688 646.499 277.432C647.633 276.426 647.908 276.022 647.111 276.534C644.729 278.064 643.139 276.87 641.516 272.334C639.865 267.723 640.173 266.243 642.787 266.243C643.696 266.243 644.439 265.5 644.439 264.592C644.439 263.564 643.357 262.94 641.573 262.94C639.166 262.94 638.707 262.421 638.707 259.701C638.707 256.283 636.984 254.256 636.073 256.601C635.682 257.607 635.375 257.534 634.946 256.333C630.671 244.346 629.01 240.188 628.131 239.264C627.489 238.591 627.4 239.448 627.904 241.466ZM473.839 244.315C471.663 249.976 471.266 253.029 472.703 253.029C473.48 253.029 475.277 254.391 476.696 256.057C478.432 258.092 479.291 258.534 479.319 257.403C479.342 256.478 478.328 254.872 477.067 253.835C475.773 252.77 474.775 250.586 474.775 248.818C474.775 245.051 475.789 243.845 477.688 245.358C478.685 246.153 479.302 245.955 479.813 244.675C480.31 243.427 480.042 243.053 478.939 243.461C478.064 243.783 476.788 243.51 476.103 242.853C475.209 241.994 474.573 242.406 473.839 244.315ZM583.681 253.297C583.681 253.607 584.471 255.678 585.437 257.898C586.516 260.378 587.019 264.053 586.743 267.424C586.279 273.078 585.608 274.466 583.299 274.552C582.563 274.58 582.09 275.2 582.248 275.929C582.406 276.659 581.82 277.256 580.947 277.256C580.073 277.256 578.514 278.494 577.481 280.009C576.03 282.136 574.626 282.762 571.299 282.762C568.413 282.762 566.348 283.487 565.031 284.964C563.952 286.175 563.193 287.161 563.344 287.153C563.495 287.147 566.198 286.483 569.351 285.68C572.504 284.876 575.755 284.435 576.574 284.702C577.395 284.967 580.065 283.855 582.507 282.229C589.3 277.707 592.295 268.57 589.39 261.23C588.296 258.468 583.681 252.053 583.681 253.297ZM483.325 255.305C482.092 257.222 483.496 257.629 485.069 255.808C485.974 254.762 486.061 254.13 485.3 254.13C484.63 254.13 483.74 254.659 483.325 255.305ZM647.878 258.6C647.878 259.241 648.394 259.46 649.024 259.086C649.655 258.711 650.171 258.187 650.171 257.919C650.171 257.652 649.655 257.434 649.024 257.434C648.394 257.434 647.878 257.959 647.878 258.6ZM470.696 263.351C469.81 266.747 471.09 278.357 472.352 278.357C472.82 278.357 474.121 276.508 475.243 274.248C477.16 270.387 477.379 270.264 478.859 272.209C480.352 274.17 480.496 274.112 481.617 271.087C482.267 269.331 483.285 267.081 483.879 266.087C485.368 263.588 484.327 262.94 478.825 262.94C476.219 262.94 473.496 262.373 472.774 261.679C471.789 260.733 471.271 261.149 470.696 263.351ZM507.46 263.635C506.434 264.62 505.883 266.147 506.234 267.026C506.586 267.906 506.873 268.833 506.873 269.087C506.873 270.44 512.466 269.281 513.056 267.805C514.162 265.035 513.897 264.193 511.538 262.981C509.857 262.117 508.876 262.274 507.46 263.635ZM619.271 264.531C616.966 267.198 618.235 271.199 621.386 271.199C625.485 271.199 627.098 268.031 624.438 265.207C621.906 262.519 621.101 262.413 619.271 264.531ZM555.021 281.032C555.021 282.268 558.84 284.96 560.548 284.928C562.096 284.898 561.943 284.467 559.766 282.725C557.257 280.717 555.021 279.918 555.021 281.032ZM539.095 288.992L535.205 292.527L538.72 295.903C541.951 299.008 546.919 300.731 545.277 298.178C544.887 297.573 545.145 297.077 545.85 297.077C546.555 297.077 546.842 296.627 546.488 296.075C545.572 294.652 547.031 291.462 548.263 292.193C549.496 292.925 549.591 291.461 548.412 289.919C547.949 289.314 546.538 288.062 545.277 287.138C543.153 285.582 542.699 285.718 539.095 288.992ZM636.505 288.91C636.56 290.192 636.832 290.453 637.197 289.576C637.529 288.781 637.487 287.83 637.107 287.465C636.726 287.099 636.456 287.749 636.505 288.91ZM474.722 357.919C470.924 361.784 468.978 366.077 467.776 373.248C466.381 381.568 468.838 392.059 473.146 396.186L476.021 398.939L473.104 392.575C470.841 387.635 470.189 384.39 470.189 378.064C470.189 370.93 470.677 369.018 474.117 362.679C476.276 358.699 477.845 355.441 477.6 355.441C477.356 355.441 476.061 356.557 474.722 357.919ZM531.462 359.02C535.228 370.943 535.752 374.15 535.208 381.976C534.613 390.547 533.203 394.217 527.346 402.441C522.956 408.608 523.212 410.29 528.005 406.778C532.52 403.469 534.408 402.999 531.845 405.822C530.883 406.881 529.518 408.823 528.81 410.137C527.551 412.482 527.591 412.496 530.966 410.878C534.986 408.952 538.584 404.61 543.145 396.186C546.1 390.726 546.423 389.066 546.423 379.33V368.531L539.933 362.536C532.942 356.081 530.171 354.93 531.462 359.02ZM609.341 359.631C604.69 365.32 602.022 371.32 602.149 375.797L602.274 380.218L603.22 375.622C604.298 370.386 606.823 365.307 610.927 360.121C612.485 358.152 613.31 356.57 612.763 356.603C612.215 356.637 610.676 357.999 609.341 359.631ZM480.761 362.339C474.646 368.591 472.928 380.683 477.051 388.447C479.78 393.585 482.211 395.538 480.502 391.219C479.873 389.629 478.834 387.388 478.193 386.238C475.214 380.891 476.995 369.76 481.931 362.874C484.566 359.199 484.059 358.967 480.761 362.339ZM599.817 364.357C596.536 371.481 595.761 380.169 597.833 386.596C599.706 392.406 606.326 401.604 608.673 401.658C609.605 401.679 609.09 400.34 607.297 398.082C599.714 388.531 597.57 376.083 601.923 366.875C603.239 364.092 603.693 361.761 603.098 360.837C602.399 359.75 601.487 360.727 599.817 364.357ZM505.007 363.671C504.055 366.051 504.579 366.365 508.354 365.668C512.019 364.992 511.928 362.772 508.211 362.247C506.719 362.035 505.431 362.608 505.007 363.671ZM512.605 364.785C512.605 365.266 513.413 366.228 514.4 366.921C516.536 368.421 518.307 378.258 516.219 377.018C515.492 376.587 514.898 375.33 514.898 374.226C514.898 369.587 504.938 371.767 502.484 376.942C501.329 379.375 500.788 379.656 499.394 378.545C497.973 377.411 497.745 377.656 497.953 380.085C498.16 382.483 498.767 382.971 501.532 382.971C504.362 382.971 504.647 383.219 503.434 384.623C502.268 385.972 502.338 386.275 503.814 386.275C506.818 386.275 511.33 388.677 511.693 390.47C511.943 391.714 513.155 391.136 516.331 388.258C520.109 384.835 520.63 383.739 520.63 379.207C520.63 376.372 519.909 372.713 519.027 371.076C517.335 367.931 512.605 363.298 512.605 364.785ZM634.695 368.626C631.205 369.422 632.05 370.326 636.987 371.078C638.819 371.357 639.352 372.423 639.639 376.374C639.836 379.094 640.453 381.763 641.01 382.306C641.566 382.849 641.74 384.646 641.395 386.303C640.527 390.472 643.052 391.704 645.659 388.384C649.656 383.293 649.466 376.548 645.189 371.665C642.298 368.364 639.451 367.54 634.695 368.626ZM602.113 382.512C602.168 383.795 602.44 384.056 602.806 383.178C603.137 382.383 603.096 381.433 602.715 381.067C602.335 380.702 602.064 381.352 602.113 382.512ZM636.62 386.244C635.246 388.029 634.122 390.257 634.122 391.195C634.122 394.132 638.534 390.639 639.354 387.054C640.352 382.69 639.54 382.448 636.62 386.244ZM499.362 388.779C498.288 391.468 499.244 394.534 501.157 394.534C502.292 394.534 502.754 393.623 502.541 391.804C502.12 388.212 500.286 386.467 499.362 388.779ZM623.59 391.432C624.416 391.75 625.406 391.711 625.786 391.345C626.167 390.979 625.49 390.72 624.282 390.767C622.947 390.82 622.675 391.081 623.59 391.432ZM708.636 421.423C708.636 423.191 708.323 425.421 707.94 426.379C707.558 427.337 707.806 428.121 708.492 428.121C709.177 428.121 710.054 426.759 710.441 425.093C710.826 423.427 711.386 421.197 711.686 420.137C712.035 418.899 711.587 418.21 710.433 418.21C709.212 418.21 708.636 419.24 708.636 421.423Z" fill="black"/>
<defs>
<clipPath id="clip0_192_1183">
<rect width="411" height="314" fill="white" transform="translate(0 103)"/>
</clipPath>
</defs>
</svg>
