<svg width="533" height="303" viewBox="0 0 533 303" fill="none" xmlns="http://www.w3.org/2000/svg">
<path fill-rule="evenodd" clip-rule="evenodd" d="M201.052 0.609061C201.773 0.898061 202.636 0.862066 202.968 0.530066C203.3 0.198067 202.71 -0.0379426 201.656 0.00505736C200.491 0.0530574 200.254 0.290061 201.052 0.609061ZM205.052 0.609061C205.773 0.898061 206.636 0.862066 206.968 0.530066C207.3 0.198067 206.71 -0.0379426 205.656 0.00505736C204.491 0.0530574 204.254 0.290061 205.052 0.609061ZM106.239 2.36306C106.239 3.49006 107.239 3.92606 109.822 3.92606C114.341 3.92606 113.996 1.56506 109.412 1.11306C107.067 0.881059 106.239 1.20706 106.239 2.36306ZM209.052 1.60906C209.773 1.89806 210.636 1.86207 210.968 1.53007C211.3 1.19807 210.71 0.962057 209.656 1.00506C208.491 1.05306 208.254 1.29006 209.052 1.60906ZM490.739 1.92606C491.839 2.39906 493.414 2.78506 494.239 2.78506C495.184 2.78506 495 2.46806 493.739 1.92606C492.639 1.45306 491.064 1.06707 490.239 1.06707C489.294 1.06707 489.478 1.38406 490.739 1.92606ZM202.683 3.83607C202.918 4.21607 205.039 4.64107 207.395 4.78007C209.751 4.91907 211.437 4.79106 211.141 4.49506C210.324 3.67706 202.194 3.04407 202.683 3.83607ZM134.989 4.58807C135.677 4.86607 136.802 4.86607 137.489 4.58807C138.177 4.31107 137.614 4.08407 136.239 4.08407C134.864 4.08407 134.302 4.31107 134.989 4.58807ZM104.239 6.24206C104.239 8.33906 104.971 8.68906 111.046 9.49506C115.893 10.1381 116.239 10.0421 116.239 8.05506C116.239 6.37706 115.63 5.92606 113.364 5.92606C111.783 5.92606 109.083 5.64506 107.364 5.30106C104.928 4.81406 104.239 5.02106 104.239 6.24206ZM135.273 7.86207C134.634 9.05707 134.766 10.2341 135.688 11.5501C136.433 12.6131 137.199 14.5801 137.39 15.9221C137.716 18.2011 138.201 18.3861 144.739 18.7281C150.424 19.0251 151.504 18.8531 150.489 17.8101C149.802 17.1041 149.239 15.7651 149.239 14.8341C149.239 13.8641 148.173 12.8751 146.739 12.5151C145.364 12.1701 144.239 11.2211 144.239 10.4071C144.239 9.40607 143.186 8.92106 140.989 8.91106C138.828 8.90106 138.186 8.61206 139.074 8.04906C140.087 7.40706 139.904 7.07207 138.31 6.65507C136.928 6.29307 135.893 6.70407 135.273 7.86207ZM202.836 7.08207C203.122 7.54607 204.429 7.92606 205.739 7.92606C207.049 7.92606 208.399 8.37606 208.739 8.92606C209.102 9.51306 207.99 9.94506 206.048 9.97106L202.739 10.0161L205.739 11.3901L208.739 12.7641L203.572 12.8451C197.919 12.9341 196.158 14.6321 199.636 16.6411C201.399 17.6591 200.244 17.8611 192.489 17.8911C184.918 17.9201 183.239 17.6541 183.239 16.4261C183.239 15.6011 183.689 14.9261 184.239 14.9261C184.789 14.9261 185.239 14.5531 185.239 14.0971C185.239 13.6411 182.764 13.1681 179.739 13.0461C174.667 12.8411 172.721 13.8701 175.239 15.4261C177.168 16.6181 176.208 17.8031 172.989 18.2031C171.202 18.4241 178.353 18.6781 188.881 18.7661L208.022 18.9261L208.65 16.4261C208.995 15.0511 209.719 13.9261 210.258 13.9261C210.798 13.9261 211.239 12.3511 211.239 10.4261C211.239 7.79706 210.803 6.90106 209.489 6.82706C208.526 6.77206 206.518 6.61807 205.027 6.48307C203.535 6.34907 202.549 6.61807 202.836 7.08207ZM442.736 6.76206C442.46 7.03906 431.124 7.39707 417.545 7.55807C403.967 7.71907 391.636 8.11906 390.143 8.44706C388.541 8.79906 387.134 8.56606 386.709 7.87806C386.173 7.01106 385.784 7.04406 385.19 8.00506C384.537 9.06106 384.107 9.06106 382.832 8.00306C381.507 6.90306 381.132 7.07706 380.34 9.16006C379.828 10.5081 379.219 14.6471 378.988 18.3581C378.717 22.7031 378.063 25.4241 377.153 26.0001C376.076 26.6821 376.276 26.8991 377.989 26.9111C379.951 26.9241 380.256 26.3811 380.375 22.6761C380.45 20.3381 380.707 19.4451 380.947 20.6911C381.186 21.9361 381.8 22.6971 382.31 22.3821C382.821 22.0661 383.239 22.2851 383.239 22.8671C383.239 23.4491 382.789 23.9261 382.239 23.9261C381.689 23.9261 381.239 24.5691 381.239 25.3551C381.239 26.1401 380.51 27.5121 379.62 28.4021C378.729 29.2931 378.276 30.2961 378.611 30.6321C378.947 30.9671 378.845 31.7331 378.386 32.3341C377.926 32.9351 377.25 34.2641 376.883 35.2871C376.4 36.6371 376.603 37.0001 377.625 36.6081C378.527 36.2621 379.19 36.8911 379.471 38.3601C379.831 40.2451 379.555 40.5601 377.918 40.1321C376.577 39.7811 376.16 39.9891 376.642 40.7681C377.035 41.4051 376.88 41.9261 376.298 41.9261C375.716 41.9261 375.239 42.4311 375.239 43.0481C375.239 43.8081 375.74 43.7551 376.789 42.8841C378.065 41.8251 378.613 41.8711 379.885 43.1441C380.941 44.2001 381.084 44.9041 380.335 45.3671C379.732 45.7391 379.239 45.5671 379.239 44.9851C379.239 44.4031 378.817 43.9261 378.301 43.9261C377.785 43.9261 377.431 44.8261 377.514 45.9261C377.622 47.3641 378.166 47.7661 379.452 47.3581C380.435 47.0461 381.239 47.2191 381.239 47.7421C381.239 48.2651 380.368 48.9201 379.304 49.1991C377.91 49.5631 377.522 50.2921 377.917 51.8041C378.219 52.9591 378.935 53.6141 379.507 53.2601C380.111 52.8871 380.249 53.1011 379.834 53.7711C379.442 54.4061 379.598 54.9261 380.18 54.9261C380.762 54.9261 381.239 55.6011 381.239 56.4261C381.239 57.2511 381.914 57.9261 382.739 57.9261C384.328 57.9261 384.319 58.0201 384.599 38.9261C384.676 33.7011 385.146 28.7941 385.644 28.0211C386.305 26.9941 386.196 26.8351 385.236 27.4281C384.238 28.0451 384.078 27.6631 384.568 25.8321C384.922 24.5091 385.218 21.2891 385.225 18.6761C385.233 15.9681 385.7 13.9261 386.312 13.9261C387.059 13.9261 387.298 22.7411 387.098 42.8701C386.864 66.3091 386.565 71.6111 385.524 70.7481C384.773 70.1241 384.239 67.4781 384.239 64.3791V59.0771L380.879 59.4941C377.719 59.8851 377.54 59.7471 377.861 57.1681C378.202 54.4261 378.202 54.4261 377.32 56.9261C375.923 60.8881 376.101 62.9261 377.846 62.9261C378.919 62.9261 379.246 63.4661 378.829 64.5531C378.097 66.4591 380.015 69.1831 381.459 68.2901C382.079 67.9071 382.184 68.5241 381.739 69.9261C381.239 71.5031 381.369 71.9641 382.176 71.4651C383.82 70.4491 386.22 72.7601 385.585 74.7491C385.179 76.0241 385.279 76.1061 386.005 75.0931C386.777 74.0151 395.004 73.7831 428.989 73.8821C464.752 73.9861 471.237 73.7851 472.488 72.5341C473.684 71.3391 474.053 65.9571 474.464 43.7451C474.742 28.7191 474.592 15.4141 474.129 14.1761C473.597 12.7511 473.668 11.9261 474.323 11.9261C474.892 11.9261 475.079 11.4761 474.739 10.9261C473.391 8.74506 476.295 10.0821 477.76 12.3171C479.11 14.3781 479.286 18.7471 479.033 43.9051L478.739 73.1021L475.892 75.5491L473.045 77.9971L431.236 77.7121C408.242 77.5551 389.893 77.7131 390.462 78.0641C391.03 78.4151 391.186 79.2031 390.808 79.8141C390.412 80.4551 390.806 80.9261 391.739 80.9261C392.629 80.9261 393.079 80.4761 392.739 79.9261C392.399 79.3761 392.598 78.9261 393.18 78.9261C394.801 78.9261 394.439 81.9121 392.739 82.5641C390.495 83.4261 390.927 86.2841 393.695 88.8841C395.045 90.1531 396.058 91.6741 395.945 92.2631C395.832 92.8531 396.189 93.3711 396.739 93.4161C398.81 93.5831 402.272 96.0641 401.708 96.9761C400.682 98.6371 402.461 97.9971 403.934 96.1761C405.209 94.6001 405.24 94.6511 404.248 96.6971C403.034 99.1991 403.63 101 405.521 100.546C406.191 100.385 406.402 100.443 405.989 100.673C404.454 101.532 405.304 103.115 406.959 102.48C407.904 102.117 408.358 102.14 407.967 102.531C407.576 102.922 407.762 103.851 408.379 104.595C409.315 105.722 409.695 105.685 410.656 104.37C411.67 102.983 411.81 103.034 411.81 104.785C411.81 105.882 411.457 106.561 411.025 106.294C410.593 106.026 410.239 106.111 410.239 106.481C410.239 107.059 414.024 114.485 415.054 115.926C415.25 116.201 416.246 115.397 417.266 114.138C418.982 112.021 419.109 111.998 418.972 113.819C418.891 114.902 418.411 115.706 417.906 115.607C416.199 115.27 416.139 117.684 417.813 119.358C418.728 120.273 419.197 121.301 418.855 121.644C418.512 121.986 418.912 123.304 419.743 124.572C420.574 125.84 422.126 129.026 423.192 131.652C424.258 134.278 425.154 135.676 425.184 134.759C425.214 133.843 425.656 132.943 426.165 132.759C426.674 132.576 427.403 131.076 427.784 129.426C428.448 126.548 428.412 126.508 426.89 128.426C426.017 129.526 425.281 131.101 425.255 131.926C425.214 133.241 425.093 133.244 424.276 131.952C423.677 131.005 423.728 130.242 424.42 129.814C425.011 129.449 425.181 128.642 424.798 128.021C424.415 127.401 423.682 127.152 423.17 127.469C422.658 127.785 422.239 127.594 422.239 127.044C422.239 125.684 423.796 124.817 424.67 125.69C425.061 126.081 426.136 126.406 427.06 126.413C428.232 126.422 428.727 127.257 428.7 129.176C428.678 130.688 429.042 131.926 429.509 131.926C429.975 131.926 430.079 132.376 429.739 132.926C429.399 133.476 429.609 133.926 430.205 133.926C432.534 133.926 436.676 149.867 438.166 164.562C439.234 175.097 438.627 190.584 437.067 192.571C436.573 193.2 436.238 194.1 436.322 194.571C436.407 195.041 436.416 197.226 436.342 199.426C436.238 202.545 435.974 203.096 435.145 201.926C434.315 200.754 434.179 201.03 434.524 203.185C434.902 205.55 434.75 205.765 433.458 204.693C432.178 203.63 432.05 203.755 432.609 205.517C433.073 206.979 432.831 207.593 431.79 207.593C430.595 207.593 430.387 206.329 430.705 201.009L431.099 194.426L428.285 203.926C426.737 209.151 424.9 214.776 424.201 216.426C423.503 218.076 422.818 219.974 422.678 220.645C421.676 225.468 402.449 254.206 401.081 252.926C400.787 252.651 399.802 253.044 398.893 253.798C396.098 256.118 397.063 253.468 400.058 250.599C401.609 249.113 403.208 248.228 403.611 248.632C404.015 249.035 404.019 248.517 403.622 247.481C403.122 246.18 403.257 245.819 404.058 246.314C404.814 246.782 405.01 246.492 404.621 245.478C404.293 244.624 404.426 243.926 404.916 243.926C406.054 243.926 409.342 238.418 408.713 237.566C408.452 237.214 408.544 237.156 408.918 237.438C409.291 237.72 410.786 235.914 412.239 233.426C413.692 230.938 415.243 229.245 415.684 229.664C416.126 230.083 416.158 229.357 415.756 228.051C415.233 226.351 415.359 225.882 416.199 226.401C416.908 226.839 417.25 226.592 417.063 225.776C416.892 225.034 417.123 224.426 417.577 224.426C418.501 224.426 421.168 219.971 421.168 218.426C421.168 217.876 420.486 218.551 419.652 219.926C418.818 221.301 418.358 221.751 418.63 220.926C418.903 220.101 419.653 217.519 420.298 215.188C420.943 212.858 421.826 211.171 422.261 211.44C422.696 211.709 422.799 210.958 422.488 209.771C422.13 208.401 422.308 207.851 422.977 208.264C424.062 208.934 425.697 206.051 424.763 205.116C424.475 204.828 424.239 205.193 424.239 205.926C424.239 206.659 424.048 207.068 423.814 206.834C423.58 206.601 424.023 203.713 424.798 200.418C425.574 197.122 426.222 192.626 426.239 190.426C426.256 188.226 426.6 186.947 427.004 187.583C428.242 189.532 427.253 171.051 425.525 159.926C424.627 154.151 423.896 147.851 423.901 145.926C423.905 144.001 423.702 143.043 423.449 143.798C423.197 144.553 421.926 142.124 420.623 138.4C415.644 124.159 404.961 106.581 395.593 97.2141C393.601 95.2211 392.488 93.3181 392.907 92.6191C393.434 91.7411 393.223 91.7491 392.107 92.6521C390.51 93.9441 388.283 92.7041 388.2 90.4761C388.179 89.8981 386.141 87.9401 383.673 86.1241C381.102 84.2321 379.476 82.3511 379.867 81.7201C380.263 81.0781 380.092 80.8991 379.457 81.2911C378.857 81.6621 374.5 79.6811 369.774 76.8901C322.534 48.9871 261.971 58.9351 225.239 100.63C218.824 107.912 217.71 109.388 214.076 115.426C192.78 150.809 190.601 188.975 207.74 226.426C212.478 236.778 220.667 248.291 229.867 257.532C253.203 280.973 284.361 293.221 316.498 291.587C327.85 291.01 331.518 290.603 334.889 289.542C335.907 289.222 338.737 288.712 341.18 288.408C343.622 288.103 346.152 287.413 346.803 286.873C347.453 286.333 348.791 286.201 349.776 286.579C351.104 287.088 351.355 286.922 350.747 285.938C350.131 284.943 350.465 284.752 352.083 285.175C353.269 285.485 354.239 285.361 354.239 284.9C354.239 283.872 358.235 282.436 360.089 282.797C360.832 282.941 361.172 282.627 360.845 282.098C360.134 280.946 362.203 280.034 364.059 280.68C369.072 282.425 340.187 292.061 325.525 293.535C301.342 295.966 279.638 292.276 259.583 282.323C254.192 279.647 250.533 277.259 250.905 276.657C251.271 276.066 251.066 275.915 250.431 276.308C247.297 278.244 222.906 257.42 215.489 246.475C213.979 244.248 212.451 242.201 212.093 241.926C211.734 241.651 208.96 236.701 205.927 230.926C187.783 196.376 187.577 157.728 205.345 121.426C208.037 115.926 209.564 112.3 208.739 113.367C207.254 115.289 207.239 115.289 207.224 113.367C207.212 111.855 207.013 111.735 206.325 112.822C205.435 114.227 202.239 113.706 202.239 112.155C202.239 110.224 212.244 96.5601 218.478 89.9771C222.185 86.0631 225.472 81.8441 225.784 80.6021C226.121 79.2601 227.181 78.2811 228.397 78.1891C229.522 78.1041 231.238 77.4481 232.21 76.7301C237.508 72.8201 246.66 66.8051 251.133 64.2931C253.94 62.7161 256.237 61.2011 256.237 60.9261C256.237 60.6511 243.3 60.2691 227.488 60.0761C211.676 59.8841 198.371 59.5011 197.922 59.2261C197.472 58.9501 197.375 54.8331 197.706 50.0751C198.39 40.2591 197.471 38.2481 191.325 36.1061C186.631 34.4691 186.001 34.6121 187.289 37.0191C187.905 38.1711 188.529 40.3081 188.675 41.7691C190.231 57.3061 190.527 58.7681 192.194 59.2041C193.137 59.4511 194.971 61.1451 196.27 62.9701C197.569 64.7941 198.113 65.9661 197.478 65.5741C196.775 65.1391 196.892 65.9491 197.775 67.6431C198.573 69.1741 199.229 71.3261 199.232 72.4261C199.235 73.7011 198.467 72.8701 197.113 70.1341C194.704 65.2671 193.441 65.1971 195.123 70.0241C197.621 77.1891 195.509 85.2541 190.097 89.2191C184.036 93.6601 173.886 92.7551 167.961 87.2451C164.714 84.2261 165.164 85.8991 168.638 89.7631C175.122 96.9761 186.255 96.3351 193.989 88.3041C196.327 85.8771 198.291 82.8861 198.355 81.6581C198.431 80.1921 198.619 79.9801 198.902 81.0391C199.589 83.6101 195.301 89.8621 190.98 92.5891C185.919 95.7841 178.059 96.6621 173.176 94.5771C168.962 92.7781 160.625 84.9821 161.03 83.2201C161.185 82.5431 160.419 81.4311 159.326 80.7491C158.174 80.0291 157.678 79.0711 158.145 78.4671C158.588 77.8951 159.198 76.4141 159.501 75.1761C159.898 73.5531 159.607 72.9261 158.457 72.9261C157.191 72.9261 157.313 72.5051 159.05 70.8871C160.254 69.7661 161.239 68.2611 161.239 67.5431C161.239 66.8251 162.346 64.9491 163.699 63.3751C165.052 61.8001 166.035 60.3881 165.883 60.2371C165.732 60.0861 158.438 59.7711 149.674 59.5371C129.936 59.0121 131.012 59.1021 131.673 58.0321C131.977 57.5411 131.573 55.2911 130.777 53.0321C129.973 50.7541 129.754 48.9261 130.286 48.9261C130.826 48.9261 130.676 47.5331 129.944 45.7371C128.481 42.1531 128.485 42.1541 112.239 43.4201C101.489 44.2571 101.239 44.3481 101.239 47.3951C101.239 49.1121 100.676 49.9491 99.4886 49.9961C97.9926 50.0561 98.0286 50.1911 99.7386 50.9261C100.839 51.3991 101.157 51.8171 100.445 51.8561C99.0496 51.9321 99.1756 55.0171 100.617 56.0641C103.906 58.4541 98.4166 58.8771 63.9446 58.8881C44.0316 58.8941 24.9266 58.9051 21.4886 58.9131C15.8496 58.9251 15.2386 59.1271 15.2386 60.9851C15.2386 62.1171 15.5956 62.8241 16.0306 62.5541C17.2616 61.7941 16.7586 72.1821 15.4576 74.4291C14.8206 75.5271 14.2856 75.9591 14.2686 75.3891C14.2526 74.8181 13.4516 74.2871 12.4886 74.2081C11.5266 74.1291 8.07158 72.8791 4.81158 71.4301C-3.07142 67.9251 -0.688426 70.7031 7.75257 74.8581L14.2386 78.0511L14.3966 104.239C14.4826 118.642 14.4486 131.101 14.3206 131.926C14.1926 132.751 13.8596 154.036 13.5816 179.225C13.2296 211.064 13.4026 225.419 14.1486 226.317C14.7386 227.028 14.9446 227.887 14.6066 228.225C14.2686 228.563 13.7726 238.936 13.5046 251.276L13.0176 273.713L16.8786 274.354C19.0016 274.706 29.2886 274.94 39.7386 274.874C66.2716 274.706 94.1746 275.114 91.4886 275.632C89.2776 276.058 88.5136 277.354 89.9886 278.179C90.4006 278.409 90.1886 278.466 89.5156 278.304C88.8436 278.142 87.5976 279.003 86.7466 280.218C85.5356 281.947 84.1406 282.451 80.3086 282.543C57.4106 283.092 30.9596 284.915 29.7886 286.025C29.2116 286.572 29.8746 286.926 31.4736 286.926C34.8906 286.926 39.2386 288.592 39.2386 289.901C39.2386 290.525 35.7166 290.926 30.2386 290.926C24.5706 290.926 21.2386 290.534 21.2386 289.867C21.2386 289.282 20.6866 289.149 20.0066 289.57C19.3286 289.989 18.0046 290.388 17.0656 290.457C15.6946 290.558 15.4606 289.975 15.8816 287.505C16.2736 285.206 16.1456 284.799 15.3766 285.898C14.6116 286.991 14.2526 285.699 13.9846 280.898L13.6236 274.426L13.4316 281.485C13.2096 289.609 14.1576 291.381 19.2386 292.338C21.1636 292.701 76.3456 292.972 141.866 292.94L260.993 292.882L269.866 295.838C285.766 301.136 294.116 302.429 312.239 302.399C329.895 302.37 338.648 301.051 352.535 296.323L359.739 293.871L418.239 293.961C450.414 294.011 481.464 294.407 487.239 294.842C496.98 295.574 511.797 294.549 513.372 293.035C513.72 292.7 514.322 288.601 514.71 283.926C515.098 279.251 515.107 275.732 514.731 276.105C514.355 276.479 513.855 279.854 513.62 283.605C513.384 287.357 512.992 290.989 512.747 291.676C512.26 293.044 501.515 293.443 499.698 292.161C499.122 291.755 498.675 287.962 498.698 283.68C498.744 275.02 498.254 275.464 507.302 275.875C510.324 276.012 512.28 275.581 513.096 274.599C514.014 273.493 514.326 265.078 514.325 241.547C514.323 215.484 514.567 209.842 515.726 209.193C516.766 208.611 517.175 205.816 517.301 198.417C517.395 192.922 517.74 187.977 518.068 187.428C518.396 186.879 518.756 184.516 518.869 182.178C519.053 178.343 518.847 177.926 516.762 177.926C514.953 177.926 514.482 177.408 514.595 175.542C514.705 173.721 515.254 173.214 516.917 173.396C518.955 173.62 519.064 173.308 518.611 168.531C518.345 165.723 517.886 158.926 517.591 153.426C517.296 147.926 516.646 142.998 516.147 142.476C515.647 141.953 515.25 133.178 515.264 122.976L515.29 104.426L522.17 101.109C529.694 97.4821 533.424 94.2761 531.502 93.0891C530.744 92.6201 530.666 91.8651 531.276 90.9001C534.399 85.9621 530.572 78.3951 524.446 77.3961C522.407 77.0631 519.479 76.5561 517.938 76.2681C515.176 75.7521 515.141 75.8081 515.375 80.3351C515.506 82.8601 515.733 84.9261 515.88 84.9261C516.028 84.9261 517.273 83.8011 518.648 82.4261C521.935 79.1391 525.531 79.2111 528.211 82.6171C530.876 86.0051 530.502 88.6581 526.991 91.2691C523.538 93.8381 519.375 92.6981 517.437 88.6531C516.27 86.2191 515.572 85.9181 510.934 85.8531C503.841 85.7521 498.578 85.2531 497.484 84.5771C496.982 84.2671 496.737 80.2811 496.939 75.7201C497.14 71.1581 497.298 64.0881 497.289 60.0091C497.279 55.5931 497.771 51.9741 498.505 51.0671C499.407 49.9521 499.418 49.7351 498.544 50.2591C497.651 50.7951 497.452 49.2841 497.758 44.2591C498 40.2821 497.723 37.0091 497.08 36.2341C496.483 35.5151 496.399 34.9261 496.895 34.9261C498.103 34.9261 497.693 13.9801 496.46 12.7471C494.865 11.1521 494.378 16.9901 494.191 39.9261C494.043 58.1511 493.683 74.7371 493.329 79.6761C493.21 81.3351 490.771 81.2721 489.362 79.5741C488.345 78.3491 487.383 48.9421 487.272 15.6951L487.239 5.96406L482.989 6.45206C474.357 7.44306 468.655 7.57807 465.484 6.86607C463.693 6.46307 462.049 6.42507 461.829 6.78007C461.331 7.58807 452.462 7.48206 451.639 6.65906C451.306 6.32606 449.925 6.47506 448.571 6.99006C445.54 8.14206 444.975 8.16207 445.636 7.09307C446.183 6.20707 443.587 5.91106 442.736 6.76206ZM494.393 8.47806C494.584 9.45806 495.344 10.4621 496.085 10.7081C496.945 10.9951 497.305 10.5141 497.085 9.37406C496.894 8.39406 496.134 7.39006 495.393 7.14406C494.533 6.85706 494.173 7.33806 494.393 8.47806ZM106.318 12.5091C106.366 13.6741 106.603 13.9111 106.922 13.1141C107.211 12.3921 107.175 11.5291 106.843 11.1971C106.511 10.8651 106.275 11.4551 106.318 12.5091ZM139.989 11.5881C140.677 11.8661 141.802 11.8661 142.489 11.5881C143.177 11.3111 142.614 11.0841 141.239 11.0841C139.864 11.0841 139.302 11.3111 139.989 11.5881ZM112.239 14.5431C112.239 16.7921 111.924 17.0631 109.989 16.4741C108.751 16.0981 106.164 15.6471 104.239 15.4731L100.739 15.1571L103.739 16.4961C107.142 18.0161 106.131 18.3131 98.2386 18.1161C94.2106 18.0161 94.0006 18.1151 96.2386 19.0631C97.8406 19.7411 101.792 19.8511 107.239 19.3681C111.914 18.9531 119.047 18.6541 123.089 18.7041C127.132 18.7531 130.132 18.4861 129.756 18.1101C128.927 17.2811 128.455 17.2101 122.739 17.0511C118.639 16.9371 118.239 16.7041 118.239 14.4261C118.239 12.3151 117.772 11.9261 115.239 11.9261C112.67 11.9261 112.239 12.3021 112.239 14.5431ZM381.22 12.9381C379.225 14.1701 380.71 15.3211 382.792 14.1561C383.729 13.6321 384.079 12.9451 383.57 12.6301C383.06 12.3161 382.003 12.4541 381.22 12.9381ZM49.6166 15.3841C48.6776 17.8311 49.9366 18.4261 52.8056 16.8901C54.7586 15.8451 55.5436 15.8021 56.1046 16.7091C56.9246 18.0361 67.2386 18.1711 67.2386 16.8541C67.2386 15.5041 66.0566 15.1991 57.9896 14.4631C51.3356 13.8551 50.1526 13.9851 49.6166 15.3841ZM82.6956 14.8571C83.5556 16.2471 81.3356 17.2511 79.9446 16.1011C78.6726 15.0491 73.2386 15.6631 73.2386 16.8581C73.2386 17.9681 89.5656 18.1181 92.2826 17.0331C94.4286 16.1771 94.1466 16.0451 90.0476 15.9891C87.4676 15.9551 85.0786 15.4761 84.7386 14.9261C84.3986 14.3761 83.6706 13.9261 83.1206 13.9261C82.5706 13.9261 82.3796 14.3451 82.6956 14.8571ZM34.5106 16.2441C34.7266 16.8941 36.8216 17.4911 39.1666 17.5711C44.2686 17.7451 43.3246 16.2041 37.9166 15.5331C35.2726 15.2051 34.2366 15.4211 34.5106 16.2441ZM134.739 16.9261C134.399 17.4761 134.598 17.9261 135.18 17.9261C135.762 17.9261 136.239 17.4761 136.239 16.9261C136.239 16.3761 136.041 15.9261 135.798 15.9261C135.555 15.9261 135.079 16.3761 134.739 16.9261ZM180.739 16.9261C180.399 17.4761 180.598 17.9261 181.18 17.9261C181.762 17.9261 182.239 17.4761 182.239 16.9261C182.239 16.3761 182.041 15.9261 181.798 15.9261C181.555 15.9261 181.079 16.3761 180.739 16.9261ZM382.739 17.9261C383.079 18.4761 383.555 18.9261 383.798 18.9261C384.041 18.9261 384.239 18.4761 384.239 17.9261C384.239 17.3761 383.762 16.9261 383.18 16.9261C382.598 16.9261 382.399 17.3761 382.739 17.9261ZM22.8986 20.6761C21.4826 25.8991 21.3376 27.9841 22.2456 30.0931C23.0936 32.0651 23.1536 31.9041 22.6366 29.0511C22.2266 26.7871 22.3746 25.8921 23.0886 26.3341C24.1076 26.9631 27.2386 22.1651 27.2386 19.9761C27.2386 18.1981 23.4026 18.8171 22.8986 20.6761ZM240.034 19.4751C239.72 19.9981 239.39 25.3161 239.301 31.2921C239.104 44.5041 239.897 45.9261 247.46 45.9261C250.161 45.9261 253.241 45.4601 254.305 44.8911C255.667 44.1621 256.239 44.1781 256.239 44.9451C256.239 45.7011 260.996 45.9101 271.808 45.6281C280.371 45.4051 286.784 45.5991 286.058 46.0591C284.967 46.7511 284.967 46.8981 286.06 46.9111C287.724 46.9301 290.354 44.3741 289.525 43.5451C289.184 43.2051 280.431 42.9261 270.072 42.9261C259.714 42.9261 251.239 42.5261 251.239 42.0371C251.239 41.5481 252.022 41.2111 252.98 41.2871C254.225 41.3861 254.899 40.4291 255.348 37.9261L255.976 34.4261L256.107 38.2071C256.235 41.8851 256.335 41.9821 259.739 41.7531C262.12 41.5931 263.244 41.0231 263.254 39.9721C263.266 38.7421 263.443 38.6991 264.116 39.7611C264.582 40.4961 265.312 41.0971 265.739 41.0971C266.166 41.0971 266.896 40.4961 267.362 39.7611C267.989 38.7721 268.216 38.9451 268.239 40.4261C268.262 41.9391 268.48 42.0941 269.133 41.0631C269.822 39.9761 270.084 39.9611 270.427 40.9901C270.712 41.8451 271.343 41.9761 272.298 41.3791C273.091 40.8841 274.189 40.4411 274.739 40.3951C275.289 40.3491 276.527 39.9521 277.489 39.5121C281.263 37.7871 278.85 36.9261 270.239 36.9261C264.906 36.9261 261.239 36.5191 261.239 35.9261C261.239 35.3761 261.576 34.9791 261.989 35.0441C264.966 35.5141 282.239 34.7741 282.238 34.1761C282.237 33.3501 275.384 32.6261 267.989 32.6711C265.376 32.6861 263.239 32.3001 263.239 31.8131C263.239 30.7691 263.646 30.7301 272.576 30.9201C278.557 31.0481 279.37 30.8501 279.076 29.3401C278.891 28.3911 277.839 27.4731 276.739 27.3001C271.718 26.5101 265.14 26.0421 258.266 25.9861C251.085 25.9281 250.884 25.8631 253.107 24.3061C254.841 23.0911 255.962 22.9361 257.58 23.6861C260.823 25.1891 279.468 25.1741 280.399 23.6671C280.995 22.7031 281.42 22.7071 282.397 23.6841C283.874 25.1611 288.635 25.3761 287.739 23.9261C286.542 21.9901 293.331 22.9341 296.279 25.1141C299.055 27.1661 299.239 27.7261 299.239 34.1141C299.239 39.2331 298.897 40.9261 297.861 40.9261C297.104 40.9261 295.895 41.6351 295.176 42.5021C294.097 43.8021 294.101 44.2231 295.198 44.9011C296.219 45.5321 296.088 45.8361 294.634 46.2091C293.592 46.4761 294.427 46.7461 296.489 46.8101C302.872 47.0071 304.239 44.6571 304.239 33.4851C304.239 28.1691 303.795 23.7701 303.223 23.4161C302.664 23.0701 302.508 22.2991 302.877 21.7021C303.308 21.0051 303.075 20.9091 302.224 21.4361C301.309 22.0011 301.067 21.8171 301.442 20.8401C301.902 19.6411 297.554 19.4271 272.862 19.4361C256.844 19.4411 243.215 19.7811 242.574 20.1921C241.934 20.6021 241.229 20.3951 241.007 19.7311C240.779 19.0451 240.359 18.9351 240.034 19.4751ZM351.254 20.1171C351.246 21.0471 351.689 22.0861 352.239 22.4261C353.505 23.2081 353.505 21.8841 352.239 19.9261C351.404 18.6331 351.268 18.6601 351.254 20.1171ZM24.4506 21.9581C23.7836 23.0251 23.2566 24.4671 23.2786 25.1621C23.3006 25.8571 24.0106 25.1491 24.8566 23.5881C26.6146 20.3451 26.2846 19.0221 24.4506 21.9581ZM336.124 22.7241C337.25 23.5271 337.11 23.9251 335.374 24.8541C334.081 25.5461 333.239 26.9681 333.239 28.4611C333.239 29.8171 332.836 30.9261 332.344 30.9261C331.822 30.9261 331.812 32.4881 332.32 34.6761C333.474 39.6421 333.452 39.9691 331.989 39.6761C331.302 39.5391 330.446 38.5261 330.089 37.4261C329.632 36.0231 329.409 36.5451 329.339 39.1761C329.241 42.8651 330.416 44.0661 331.852 41.7421C332.354 40.9311 332.806 41.1681 333.288 42.4921C333.675 43.5561 333.542 44.9891 332.993 45.6761C332.295 46.5491 332.393 46.9261 333.317 46.9261C334.412 46.9261 334.411 47.1411 333.314 48.1761C332.255 49.1751 331.897 49.1751 331.531 48.1781C331.254 47.4221 330.163 47.1581 328.765 47.5091C327.496 47.8271 326.157 47.6021 325.789 47.0071C325.422 46.4121 325.598 45.9261 326.18 45.9261C326.762 45.9261 327.232 45.1391 327.224 44.1761C327.211 42.6781 327.067 42.6421 326.224 43.9261C325.409 45.1661 325.088 45.1921 324.367 44.0741C323.669 42.9921 323.221 43.1101 322.117 44.6661C321.359 45.7351 320.064 46.8361 319.239 47.1121C318.414 47.3881 320.439 47.9331 323.739 48.3241C327.039 48.7151 332.154 49.7131 335.106 50.5421C338.058 51.3711 341.096 51.8111 341.856 51.5191C343.764 50.7871 343.631 45.2901 341.687 44.5441C340.797 44.2031 340.396 44.3711 340.746 44.9371C341.082 45.4811 340.462 45.9261 339.368 45.9261C338.099 45.9261 337.221 46.7421 336.945 48.1761C336.515 50.4071 336.51 50.4081 336.375 48.2471C336.3 47.0491 336.889 45.4191 337.684 44.6241C338.483 43.8251 339.232 40.9061 339.361 38.0921C339.512 34.7691 340.089 32.8141 341.024 32.4551C342.007 32.0781 342.328 30.8121 342.048 28.4161C341.741 25.7841 342.022 24.9011 343.19 24.8241C344.042 24.7671 343.389 24.3731 341.739 23.9471C340.089 23.5221 337.839 22.8501 336.739 22.4551C335.276 21.9301 335.111 22.0021 336.124 22.7241ZM332.239 23.9261C332.239 24.4761 332.689 24.9261 333.239 24.9261C333.789 24.9261 334.239 24.4761 334.239 23.9261C334.239 23.3761 333.789 22.9261 333.239 22.9261C332.689 22.9261 332.239 23.3761 332.239 23.9261ZM244.002 26.1761C243.469 27.6531 244.022 39.8711 244.704 41.6761C245.406 43.5331 248.239 43.1901 248.239 41.2471C248.239 40.3241 247.692 38.0551 247.024 36.2071C246.07 33.5691 246.07 32.4271 247.024 30.8991C248.889 27.9121 248.551 24.9261 246.346 24.9261C245.305 24.9261 244.25 25.4891 244.002 26.1761ZM323.897 27.4761C324.176 28.2041 325.042 28.5551 325.822 28.2561C327.7 27.5351 327.612 27.2571 325.314 26.6561C324 26.3121 323.55 26.5721 323.897 27.4761ZM173.213 28.4571C172.162 29.7241 172.271 30.2311 173.841 31.3901C175.485 32.6041 175.785 32.5881 176.08 31.2681C176.342 30.0981 177.556 29.8241 181.33 30.0861C184.031 30.2731 186.24 30.0881 186.24 29.6761C186.239 28.9301 184.242 28.6251 178.989 28.5671C177.477 28.5501 176.239 28.1741 176.239 27.7311C176.239 26.4151 174.577 26.8141 173.213 28.4571ZM281.499 28.4721C279.899 30.2111 281.072 30.8091 284.239 29.8681C285.694 29.4361 286.043 29.0841 285.072 29.0261C284.156 28.9711 283.256 28.5201 283.072 28.0251C282.889 27.5291 282.181 27.7301 281.499 28.4721ZM317.318 28.5091C317.366 29.6741 317.603 29.9111 317.922 29.1141C318.211 28.3921 318.175 27.5291 317.843 27.1971C317.511 26.8651 317.275 27.4551 317.318 28.5091ZM321.325 27.9261C321.355 28.7511 321.766 30.3261 322.239 31.4261L323.098 33.4261L323.153 31.4261C323.184 30.3261 322.772 28.7511 322.239 27.9261C321.377 26.5931 321.276 26.5931 321.325 27.9261ZM346.427 28.6651C346.611 29.6211 347.598 30.5641 348.619 30.7611C349.786 30.9851 350.22 30.7051 349.788 30.0061C349.41 29.3941 348.605 29.2001 348 29.5741C347.292 30.0121 347.127 29.6611 347.538 28.5901C347.889 27.6751 347.707 26.9261 347.134 26.9261C346.561 26.9261 346.243 27.7081 346.427 28.6651ZM380.803 29.6331C380.261 31.0581 380.375 31.1731 381.363 30.1931C382.047 29.5141 382.354 28.7071 382.046 28.4001C381.738 28.0921 381.179 28.6471 380.803 29.6331ZM249.397 30.9261C249.397 32.3011 249.624 32.8641 249.901 32.1761C250.179 31.4891 250.179 30.3641 249.901 29.6761C249.624 28.9891 249.397 29.5511 249.397 30.9261ZM20.3246 30.9261C20.2936 31.7511 20.7056 33.1011 21.2386 33.9261C22.4196 35.7541 22.4196 34.1751 21.2386 31.4261C20.6716 30.1071 20.3606 29.9371 20.3246 30.9261ZM301.239 34.4261C301.239 36.9011 301.689 38.9261 302.239 38.9261C302.789 38.9261 303.239 36.9011 303.239 34.4261C303.239 31.9511 302.789 29.9261 302.239 29.9261C301.689 29.9261 301.239 31.9511 301.239 34.4261ZM419.562 31.5271C419.224 32.4071 419.523 33.4831 420.226 33.9181C421.237 34.5431 421.163 35.1961 419.872 37.0401C417.818 39.9731 417.763 47.1041 419.765 50.9761L421.29 53.9261H430.742C439.911 53.9261 440.246 53.8451 441.966 51.2201C443.037 49.5861 443.739 46.6261 443.739 43.7481C443.739 36.9651 441.543 35.0711 432.693 34.2211C428.101 33.7811 426.563 33.3531 428.165 32.9621C429.499 32.6371 430.774 31.8211 430.998 31.1481C431.671 29.1291 420.338 29.5041 419.562 31.5271ZM326.739 32.6911C325.209 33.8161 324.989 42.1761 326.503 41.6711C327.216 41.4341 327.786 39.2991 327.859 36.5941C327.928 34.0261 327.93 31.9331 327.862 31.9411C327.794 31.9501 327.289 32.2871 326.739 32.6911ZM329.318 33.5091C329.366 34.6741 329.603 34.9111 329.922 34.1141C330.211 33.3921 330.175 32.5291 329.843 32.1971C329.511 31.8651 329.275 32.4551 329.318 33.5091ZM350.22 32.9381C348.287 34.1321 349.282 34.8411 351.673 33.9731C352.736 33.5871 353.165 32.9981 352.625 32.6641C352.085 32.3311 351.003 32.4541 350.22 32.9381ZM354.239 33.4261C354.239 34.2511 353.789 34.9261 353.239 34.9261C351.991 34.9261 351.907 42.6031 353.146 43.3681C353.644 43.6771 353.809 42.9991 353.512 41.8621C353.215 40.7251 353.441 38.8121 354.015 37.6101C355.808 33.8561 356.213 31.9261 355.208 31.9261C354.675 31.9261 354.239 32.6011 354.239 33.4261ZM382.318 33.5091C382.366 34.6741 382.603 34.9111 382.922 34.1141C383.211 33.3921 383.175 32.5291 382.843 32.1971C382.511 31.8651 382.275 32.4551 382.318 33.5091ZM21.9496 35.7541C20.4826 38.1191 20.2776 38.1961 20.1656 36.4261C20.0596 34.7521 19.9086 34.8331 19.2386 36.9261C18.0896 40.5151 18.0216 43.8181 19.1326 42.0631C19.8616 40.9121 20.0706 40.9121 20.4696 42.0631C20.8166 43.0601 21.6556 42.7231 23.5986 40.8051C26.0146 38.4201 26.1346 37.9541 24.9306 35.6331L23.6066 33.0821L21.9496 35.7541ZM251.318 35.5091C251.366 36.6741 251.603 36.9111 251.922 36.1141C252.211 35.3921 252.175 34.5291 251.843 34.1971C251.511 33.8651 251.275 34.4551 251.318 35.5091ZM379.052 34.6091C379.773 34.8981 380.636 34.8621 380.968 34.5301C381.3 34.1981 380.71 33.9621 379.656 34.0051C378.491 34.0531 378.254 34.2901 379.052 34.6091ZM322.239 36.0171C323.368 36.8161 323.43 37.2041 322.489 37.5851C320.775 38.2811 320.92 39.5901 322.791 40.3081C323.767 40.6821 324.09 40.4951 323.663 39.8031C323.289 39.1981 323.548 38.3531 324.239 37.9261C325.851 36.9291 324.634 34.9211 322.43 34.9411C320.962 34.9551 320.936 35.0961 322.239 36.0171ZM160.739 36.6701C158.804 38.1331 159.203 41.6831 161.366 42.2491C164.674 43.1141 166.379 41.9461 166.043 39.0481C165.735 36.3891 162.833 35.0881 160.739 36.6701ZM178.94 37.5581C177.757 38.7421 178.144 50.7491 179.391 51.5201C181.561 52.8611 183.337 48.6751 183.031 42.9371C182.818 38.9321 182.32 37.3661 181.19 37.1511C180.338 36.9891 179.326 37.1721 178.94 37.5581ZM280.708 37.9761C279.79 39.4621 280.52 39.9881 282.125 38.9971C282.984 38.4651 283.087 37.9501 282.415 37.5351C281.844 37.1821 281.076 37.3811 280.708 37.9761ZM318.489 37.5881C317.059 38.1651 316.79 39.9261 318.132 39.9261C318.623 39.9261 319.284 39.2511 319.601 38.4261C319.917 37.6011 320.078 36.9621 319.958 37.0051C319.837 37.0481 319.177 37.3111 318.489 37.5881ZM348.32 38.3291C347.426 39.4061 347.455 39.8521 348.447 40.2531C349.453 40.6581 349.407 41.0081 348.239 41.8351C346.945 42.7501 346.979 42.8971 348.489 42.9111C349.567 42.9201 350.239 43.6941 350.239 44.9261C350.239 46.0261 350.887 46.9261 351.68 46.9261C352.473 46.9261 353.398 47.3751 353.737 47.9231C354.128 48.5561 353.338 48.5341 351.576 47.8641C349.289 46.9941 348.573 47.1171 347.519 48.5581C346.815 49.5211 346.239 50.8491 346.239 51.5101C346.239 53.0611 348.993 54.1331 349.766 52.8821C350.091 52.3561 349.655 51.9261 348.798 51.9261C347.052 51.9261 346.705 50.3741 348.239 49.4261C348.789 49.0861 349.241 49.1721 349.244 49.6171C349.247 50.0621 351.16 50.5021 353.494 50.5951C355.829 50.6871 357.177 50.5371 356.489 50.2611C355.802 49.9851 355.239 48.8551 355.239 47.7491C355.239 46.5801 354.402 45.5201 353.239 45.2161C351.672 44.8061 351.239 43.8521 351.239 40.8091C351.239 36.7561 350.292 35.9521 348.32 38.3291ZM354.239 39.6741C354.239 40.6861 354.708 40.7461 356.239 39.9261C357.339 39.3371 358.239 38.6741 358.239 38.4531C358.239 38.2311 357.339 38.1181 356.239 38.2011C355.139 38.2841 354.239 38.9471 354.239 39.6741ZM320.239 41.9261C320.239 42.4761 320.689 42.9261 321.239 42.9261C321.789 42.9261 322.239 42.4761 322.239 41.9261C322.239 41.3761 321.789 40.9261 321.239 40.9261C320.689 40.9261 320.239 41.3761 320.239 41.9261ZM329.636 44.4261C327.801 45.8151 327.811 45.8631 329.93 45.8941C332.269 45.9281 333.845 44.4191 332.403 43.5271C331.925 43.2321 330.68 43.6361 329.636 44.4261ZM356.863 44.4651C355.898 46.9791 356.182 47.6281 357.361 45.6011C357.945 44.5971 358.212 43.5651 357.954 43.3081C357.697 43.0501 357.205 43.5711 356.863 44.4651ZM17.3176 45.5091C17.3656 46.6741 17.6026 46.9111 17.9216 46.1141C18.2106 45.3921 18.1746 44.5291 17.8426 44.1971C17.5106 43.8651 17.2746 44.4551 17.3176 45.5091ZM346.239 44.9261C346.239 45.4761 346.914 45.9261 347.739 45.9261C348.564 45.9261 349.239 45.4761 349.239 44.9261C349.239 44.3761 348.564 43.9261 347.739 43.9261C346.914 43.9261 346.239 44.3761 346.239 44.9261ZM20.3176 47.5091C20.3656 48.6741 20.6026 48.9111 20.9216 48.1141C21.2106 47.3921 21.1746 46.5291 20.8426 46.1971C20.5106 45.8651 20.2746 46.4551 20.3176 47.5091ZM98.0516 47.6091C98.7726 47.8981 99.6356 47.8621 99.9676 47.5301C100.3 47.1981 99.7096 46.9621 98.6556 47.0051C97.4906 47.0531 97.2536 47.2901 98.0516 47.6091ZM339.739 47.9261C339.399 48.4761 339.598 48.9261 340.18 48.9261C340.762 48.9261 341.239 48.4761 341.239 47.9261C341.239 47.3761 341.041 46.9261 340.798 46.9261C340.555 46.9261 340.079 47.3761 339.739 47.9261ZM379.239 50.7591C379.239 51.2181 379.894 51.5931 380.695 51.5931C381.496 51.5931 381.919 51.2181 381.636 50.7591C381.353 50.3011 380.698 49.9261 380.18 49.9261C379.662 49.9261 379.239 50.3011 379.239 50.7591ZM351.572 52.5371C351.572 54.2181 355.81 56.3091 357.323 55.3741C357.827 55.0631 358.239 55.2851 358.239 55.8671C358.239 56.4491 358.914 56.9261 359.739 56.9261C360.564 56.9261 361.239 56.4011 361.239 55.7591C361.239 55.1181 360.958 54.8741 360.615 55.2171C360.272 55.5601 359.259 55.0081 358.365 53.9891C356.117 51.4281 351.572 50.4571 351.572 52.5371ZM375.353 51.8551C374.494 52.3871 374.391 52.9021 375.063 53.3171C375.634 53.6701 376.402 53.4711 376.77 52.8761C377.688 51.3901 376.958 50.8641 375.353 51.8551ZM355.739 53.9261C355.399 54.4761 355.598 54.9261 356.18 54.9261C356.762 54.9261 357.239 54.4761 357.239 53.9261C357.239 53.3761 357.041 52.9261 356.798 52.9261C356.555 52.9261 356.079 53.3761 355.739 53.9261ZM128.949 56.9261C128.662 58.0261 128.834 58.9261 129.333 58.9261C129.831 58.9261 130.239 58.0261 130.239 56.9261C130.239 55.8261 130.066 54.9261 129.856 54.9261C129.645 54.9261 129.237 55.8261 128.949 56.9261ZM379.318 57.5091C379.366 58.6741 379.603 58.9111 379.922 58.1141C380.211 57.3921 380.175 56.5291 379.843 56.1971C379.511 55.8651 379.275 56.4551 379.318 57.5091ZM45.2386 60.9321C45.2386 61.4791 46.4386 61.9261 47.9056 61.9261C50.8406 61.9261 50.3446 60.7181 47.2126 60.2401C46.1266 60.0741 45.2386 60.3861 45.2386 60.9321ZM75.2386 61.9261C75.2386 62.4761 75.7156 62.9261 76.2976 62.9261C76.8796 62.9261 77.0786 62.4761 76.7386 61.9261C76.3986 61.3761 75.9226 60.9261 75.6796 60.9261C75.4366 60.9261 75.2386 61.3761 75.2386 61.9261ZM52.2386 63.3091C52.2386 64.1971 56.2846 64.6611 56.7966 63.8321C57.1046 63.3341 56.2046 62.9261 54.7976 62.9261C53.3906 62.9261 52.2386 63.0991 52.2386 63.3091ZM179.033 63.7171C175.306 64.0431 169.239 68.4841 169.239 70.8861C169.239 71.5231 169.616 71.8111 170.076 71.5271C170.536 71.2431 172.99 72.1161 175.53 73.4681C180.329 76.0231 185.649 76.6901 186.769 74.8771C187.214 74.1571 187.844 74.1841 188.784 74.9641C192.281 77.8661 193.562 71.7231 190.21 68.1251C187.231 64.9281 183.231 63.3501 179.033 63.7171ZM46.4186 65.6371C43.9686 66.5701 48.9006 69.0491 51.7726 68.3281C53.2096 67.9681 54.0146 67.3381 53.5616 66.9281C52.3666 65.8481 47.9566 65.0511 46.4186 65.6371ZM38.2386 68.9261C38.2386 69.4761 38.7156 69.9261 39.2976 69.9261C39.8796 69.9261 40.0786 69.4761 39.7386 68.9261C39.3986 68.3761 38.9226 67.9261 38.6796 67.9261C38.4366 67.9261 38.2386 68.3761 38.2386 68.9261ZM154.823 71.5671C154.296 72.9401 154.443 73.0021 155.716 71.9451C157.451 70.5051 157.632 69.9261 156.346 69.9261C155.855 69.9261 155.17 70.6651 154.823 71.5671ZM40.2386 71.3191C40.2386 71.5351 40.9136 71.9711 41.7386 72.2881C42.5636 72.6041 43.2386 72.4271 43.2386 71.8951C43.2386 71.3621 42.5636 70.9261 41.7386 70.9261C40.9136 70.9261 40.2386 71.1031 40.2386 71.3191ZM45.2386 71.5941C46.0636 71.9411 47.1106 72.7211 47.5646 73.3261C48.0956 74.0331 48.2446 73.8911 47.9816 72.9261C47.7566 72.1011 46.7106 71.3211 45.6556 71.1941C44.3086 71.0301 44.1846 71.1491 45.2386 71.5941ZM45.2386 74.9261C45.2386 75.4761 45.7156 75.9261 46.2976 75.9261C46.8796 75.9261 47.0786 75.4761 46.7386 74.9261C46.3986 74.3761 45.9226 73.9261 45.6796 73.9261C45.4366 73.9261 45.2386 74.3761 45.2386 74.9261ZM207.584 75.4691C207.258 76.3181 207.215 77.2361 207.488 77.5091C207.762 77.7821 208.225 77.0871 208.518 75.9661C209.142 73.5831 208.449 73.2151 207.584 75.4691ZM387.509 75.9951C387.336 78.2921 387.807 78.4941 388.588 76.4581C388.898 75.6511 388.815 74.7821 388.403 74.5271C387.991 74.2731 387.589 74.9331 387.509 75.9951ZM49.8116 76.8211C48.1586 77.4691 48.1116 77.6631 49.4786 78.1881C50.4026 78.5431 51.3046 78.1961 51.6246 77.3631C51.9276 76.5731 52.0776 75.9581 51.9576 75.9961C51.8366 76.0351 50.8716 76.4061 49.8116 76.8211ZM40.7456 77.9151C40.3956 78.4811 40.7966 78.6491 41.6866 78.3081C43.4186 77.6431 43.7356 76.9261 42.2976 76.9261C41.7796 76.9261 41.0816 77.3711 40.7456 77.9151ZM168.239 79.3651C168.239 83.4201 170.286 87.6261 172.821 88.7821C176.824 90.6051 182.545 91.1601 185.239 89.9851C187.348 89.0661 186.956 88.9731 182.739 89.3911L177.739 89.8871L182.371 88.4101C185.166 87.5201 187.677 85.9061 188.701 84.3431C189.635 82.9181 190.25 81.6441 190.069 81.5121C189.887 81.3801 187.529 80.2581 184.828 79.0181C180.746 77.1451 179.277 76.9271 176.126 77.7271C174.041 78.2561 172.076 78.4291 171.758 78.1121C170.211 76.5651 168.239 77.2671 168.239 79.3651ZM41.7636 79.8851C41.4096 80.4581 41.7096 80.9831 42.4296 81.0541C43.1496 81.1241 44.7806 81.2891 46.0556 81.4201C48.7236 81.6961 47.7726 80.4631 44.5726 79.4981C43.3816 79.1391 42.1176 79.3131 41.7636 79.8851ZM166.239 81.8671C166.239 82.3851 166.684 83.0831 167.228 83.4191C167.794 83.7691 167.962 83.3681 167.621 82.4781C166.956 80.7461 166.239 80.4291 166.239 81.8671ZM75.2386 82.9851C75.2386 83.5671 75.6886 83.7661 76.2386 83.4261C76.7886 83.0861 77.2386 82.6101 77.2386 82.3671C77.2386 82.1241 76.7886 81.9261 76.2386 81.9261C75.6886 81.9261 75.2386 82.4031 75.2386 82.9851ZM388.405 82.8021C387.331 83.4831 387.38 83.7661 388.655 84.2551C389.657 84.6401 390.239 84.3241 390.239 83.3951C390.239 81.6951 390.181 81.6761 388.405 82.8021ZM355.739 84.4621C357.389 85.2181 359.553 85.8561 360.548 85.8811C361.655 85.9081 362.08 86.3741 361.644 87.0811C361.198 87.8021 361.37 87.9631 362.101 87.5111C363.697 86.5251 362.546 84.9261 360.239 84.9261C359.204 84.9261 358.079 84.4761 357.739 83.9261C357.399 83.3761 356.135 82.9631 354.93 83.0071C353.025 83.0781 353.131 83.2681 355.739 84.4621ZM392.239 84.9261C392.239 85.4761 392.716 85.9261 393.298 85.9261C393.88 85.9261 394.079 85.4761 393.739 84.9261C393.399 84.3761 392.923 83.9261 392.68 83.9261C392.437 83.9261 392.239 84.3761 392.239 84.9261ZM398.803 85.6331C398.261 87.0581 398.375 87.1731 399.363 86.1931C400.047 85.5141 400.354 84.7071 400.046 84.4001C399.738 84.0921 399.179 84.6471 398.803 85.6331ZM46.6646 86.4941C47.7226 87.5531 48.9656 87.8201 50.4856 87.3181L52.7386 86.5731L50.2386 85.8491C45.8656 84.5831 44.9226 84.7531 46.6646 86.4941ZM42.2386 86.9261C42.2386 87.4761 42.7156 87.9261 43.2976 87.9261C43.8796 87.9261 44.0786 87.4761 43.7386 86.9261C43.3986 86.3761 42.9226 85.9261 42.6796 85.9261C42.4366 85.9261 42.2386 86.3761 42.2386 86.9261ZM53.7386 87.9261C53.3986 88.4761 53.5976 88.9261 54.1796 88.9261C54.7616 88.9261 55.2386 88.4761 55.2386 87.9261C55.2386 87.3761 55.0406 86.9261 54.7976 86.9261C54.5546 86.9261 54.0786 87.3761 53.7386 87.9261ZM399.111 88.6761C397.875 90.2521 397.908 90.2931 399.445 89.0901C400.384 88.3551 401.691 88.0871 402.35 88.4941C403.108 88.9631 403.286 88.8111 402.834 88.0811C401.834 86.4611 400.707 86.6411 399.111 88.6761ZM507.239 87.9261C507.239 88.4761 507.689 88.9261 508.239 88.9261C508.789 88.9261 509.239 88.4761 509.239 87.9261C509.239 87.3761 508.789 86.9261 508.239 86.9261C507.689 86.9261 507.239 87.3761 507.239 87.9261ZM365.637 89.0921C365.201 89.7961 365.373 89.9611 366.084 89.5211C366.719 89.1291 367.239 89.2851 367.239 89.8671C367.239 90.4491 367.876 90.9261 368.656 90.9261C369.435 90.9261 370.299 91.4891 370.577 92.1761C370.899 92.9761 371.11 93.0171 371.16 92.2911C371.285 90.4931 366.488 87.7141 365.637 89.0921ZM47.0386 90.0271C46.8576 90.5701 45.7036 91.0911 44.4736 91.1831C41.5236 91.4051 41.5806 92.9261 44.5386 92.9261C45.8036 92.9261 47.3786 93.4661 48.0386 94.1261C48.9026 94.9901 49.2386 95.0071 49.2386 94.1851C49.2386 93.5571 48.7056 92.7151 48.0546 92.3131C47.2396 91.8081 47.4496 91.3781 48.7316 90.9281C50.3576 90.3581 50.3886 90.1981 48.9796 89.6571C48.0936 89.3171 47.2196 89.4831 47.0386 90.0271ZM352.211 89.8881C353.472 90.6851 353.436 90.9131 351.961 91.4791C351.014 91.8431 350.239 92.5971 350.239 93.1551C350.239 93.8121 350.697 93.7911 351.535 93.0951C352.248 92.5041 354.385 92.2011 356.285 92.4221L359.739 92.8241L356.239 90.9171C352.7 88.9881 349.494 88.1691 352.211 89.8881ZM509.739 89.9261C509.399 90.4761 509.598 90.9261 510.18 90.9261C510.762 90.9261 511.239 90.4761 511.239 89.9261C511.239 89.3761 511.041 88.9261 510.798 88.9261C510.555 88.9261 510.079 89.3761 509.739 89.9261ZM346.239 91.3191C346.239 91.5351 346.937 91.9801 347.791 92.3081C348.681 92.6491 349.082 92.4811 348.732 91.9151C348.145 90.9641 346.239 90.5091 346.239 91.3191ZM396.87 91.7141C396.602 92.1471 397.588 92.5931 399.061 92.7041C401.122 92.8601 401.394 92.6821 400.239 91.9311C398.405 90.7401 397.508 90.6821 396.87 91.7141ZM402.698 91.9931C402.335 92.5791 402.253 93.2741 402.515 93.5361C402.777 93.7981 403.258 93.3181 403.584 92.4691C404.26 90.7071 403.684 90.3971 402.698 91.9931ZM505.834 91.7731C505.513 92.2921 505.987 92.9991 506.888 93.3451C509.098 94.1931 509.615 93.4831 507.852 92.0201C506.997 91.3101 506.182 91.2101 505.834 91.7731ZM361.7 94.8831C363.878 97.2901 364.377 97.4501 363.63 95.5031C363.33 94.7211 362.357 93.8011 361.468 93.4601C360.14 92.9511 360.181 93.2051 361.7 94.8831ZM372.239 93.9261C372.239 94.4761 372.716 94.9261 373.298 94.9261C373.88 94.9261 374.079 94.4761 373.739 93.9261C373.399 93.3761 372.923 92.9261 372.68 92.9261C372.437 92.9261 372.239 93.3761 372.239 93.9261ZM352.322 94.2091C352.552 94.3651 353.639 95.1521 354.739 95.9591C356.589 97.3161 356.636 97.2951 355.367 95.6761C354.612 94.7131 353.524 93.9261 352.95 93.9261C352.376 93.9261 352.093 94.0531 352.322 94.2091ZM359.739 95.9261C360.734 97.0261 361.774 97.9261 362.049 97.9261C362.324 97.9261 361.734 97.0261 360.739 95.9261C359.744 94.8261 358.704 93.9261 358.429 93.9261C358.154 93.9261 358.744 94.8261 359.739 95.9261ZM50.2386 95.8321C50.2386 96.3311 51.1386 96.5031 52.2386 96.2161C53.3386 95.9281 54.2386 95.5201 54.2386 95.3091C54.2386 95.0991 53.3386 94.9261 52.2386 94.9261C51.1386 94.9261 50.2386 95.3341 50.2386 95.8321ZM504.239 96.9261C504.239 97.4761 504.689 97.9261 505.239 97.9261C505.789 97.9261 506.239 97.4761 506.239 96.9261C506.239 96.3761 505.789 95.9261 505.239 95.9261C504.689 95.9261 504.239 96.3761 504.239 96.9261ZM357.239 97.3191C357.239 97.5351 357.937 97.9801 358.791 98.3081C359.681 98.6491 360.082 98.4811 359.732 97.9151C359.145 96.9641 357.239 96.5091 357.239 97.3191ZM409.552 97.6251C408.757 97.9101 409.005 98.6921 410.302 99.9891C412.665 102.352 414.013 102.564 412.111 100.272C411.357 99.3631 410.889 98.4251 411.072 98.1891C411.627 97.4751 410.813 97.1731 409.552 97.6251ZM508.745 98.9321C509.743 100.036 510.777 100.721 511.042 100.456C511.714 99.7841 509.22 96.9261 507.962 96.9261C507.394 96.9261 507.746 97.8291 508.745 98.9321ZM300.239 100.926C300.239 104.307 300.725 104.583 302.882 102.426C304.215 101.093 304.207 100.926 302.81 100.926C301.946 100.926 301.239 100.446 301.239 99.8591C301.239 99.2251 302.103 99.0661 303.364 99.4661C304.794 99.9201 305.266 99.7781 304.805 99.0331C304.429 98.4241 303.248 97.9261 302.18 97.9261C300.69 97.9261 300.239 98.6231 300.239 100.926ZM310.434 100.926C310.454 102.851 310.677 103.639 310.928 102.676C311.18 101.713 311.995 100.926 312.739 100.926C313.483 100.926 314.298 101.713 314.55 102.676C314.801 103.639 315.024 102.851 315.044 100.926C315.064 99.0011 314.854 97.9891 314.577 98.6761C314.299 99.3641 313.472 99.9261 312.739 99.9261C312.006 99.9261 311.179 99.3641 310.901 98.6761C310.624 97.9891 310.414 99.0011 310.434 100.926ZM320.789 100.581C320.095 103.349 321.381 104.939 324.239 104.847C325.064 104.821 324.614 104.33 323.239 103.758C320.857 102.765 320.834 102.677 322.739 101.891C323.839 101.438 324.177 101.035 323.489 100.996C322.802 100.958 322.239 100.428 322.239 99.8191C322.239 99.2101 322.914 98.9711 323.739 99.2881C324.564 99.6041 325.239 99.4271 325.239 98.8951C325.239 98.3621 324.388 97.9261 323.347 97.9261C322.134 97.9261 321.217 98.8781 320.789 100.581ZM363.239 98.9261C363.239 99.5411 362.677 99.7201 361.989 99.3251C361.302 98.9291 361.09 98.9911 361.518 99.4611C362.585 100.634 365.239 100.945 365.239 99.8971C365.239 99.4281 364.789 98.7661 364.239 98.4261C363.689 98.0861 363.239 98.3111 363.239 98.9261ZM383.121 103.676C386.275 106.838 390.339 111.226 392.151 113.426C393.963 115.626 394.962 116.466 394.37 115.293C393.042 112.661 379.324 97.9261 378.202 97.9261C377.754 97.9261 379.968 100.514 383.121 103.676ZM291.489 99.6441C289.472 100.368 290.056 102.926 292.239 102.926C294.702 102.926 294.885 104.611 292.489 105.237C291.172 105.581 291.296 105.723 292.989 105.81C295.954 105.963 295.999 102.937 293.043 102.164C291.012 101.633 290.988 101.54 292.726 100.93C293.76 100.568 294.186 100.029 293.673 99.7331C293.159 99.4381 292.177 99.3981 291.489 99.6441ZM366.971 100.926C366.029 102.026 365.688 102.926 366.214 102.926C366.739 102.926 367.65 102.026 368.239 100.926C368.828 99.8261 369.169 98.9261 368.996 98.9261C368.824 98.9261 367.913 99.8261 366.971 100.926ZM42.2296 101.415C42.9096 102.234 43.9126 102.628 44.4586 102.29C45.0626 101.917 44.9196 101.339 44.0956 100.816C41.9386 99.4501 40.8796 99.7891 42.2296 101.415ZM330.799 102.544C330.437 103.984 330.389 105.409 330.69 105.711C330.992 106.012 331.239 105.734 331.239 105.093C331.239 103.201 333.232 103.761 333.318 105.676C333.366 106.737 333.808 106.297 334.44 104.56C335.246 102.344 335.172 101.498 334.111 100.826C331.984 99.4791 331.506 99.7271 330.799 102.544ZM332.239 101.926C332.239 102.476 332.716 102.926 333.298 102.926C333.88 102.926 334.079 102.476 333.739 101.926C333.399 101.376 332.923 100.926 332.68 100.926C332.437 100.926 332.239 101.376 332.239 101.926ZM58.2386 103.985C58.2386 104.567 58.6886 104.766 59.2386 104.426C59.7886 104.086 60.2386 103.61 60.2386 103.367C60.2386 103.124 59.7886 102.926 59.2386 102.926C58.6886 102.926 58.2386 103.403 58.2386 103.985ZM281.239 105.926C281.239 108.882 282.522 109.896 283.749 107.91C284.095 107.351 284.843 107.181 285.412 107.533C285.981 107.885 285.673 106.992 284.728 105.549C282.466 102.097 281.239 102.23 281.239 105.926ZM340.239 105.426C339.658 106.954 339.408 108.428 339.683 108.703C339.958 108.978 340.658 107.954 341.239 106.426C341.82 104.898 342.07 103.424 341.795 103.149C341.52 102.874 340.82 103.898 340.239 105.426ZM53.7006 104.865C54.0196 105.381 53.4836 106.267 52.5096 106.834C50.8356 107.808 50.8346 107.867 52.4886 107.896C53.4516 107.912 54.2386 107.449 54.2386 106.867C54.2386 106.285 54.8016 106.146 55.4886 106.559C56.3376 107.069 56.2986 106.768 55.3666 105.618C53.9086 103.821 52.7246 103.286 53.7006 104.865ZM373.644 105.081C373.169 105.849 373.373 105.961 374.254 105.416C375.216 104.822 375.404 105.054 374.94 106.262C374.589 107.177 374.663 107.926 375.104 107.926C376.483 107.926 377.123 106.787 376.563 105.328C375.91 103.627 374.61 103.516 373.644 105.081ZM505.632 105.508C505.966 106.378 506.239 107.278 506.239 107.508C506.239 107.738 506.872 107.926 507.645 107.926C508.559 107.926 508.869 107.226 508.529 105.926C508.241 104.826 507.335 103.926 506.515 103.926C505.567 103.926 505.246 104.501 505.632 105.508ZM282.239 105.926C282.239 106.476 282.716 106.926 283.298 106.926C283.88 106.926 284.079 106.476 283.739 105.926C283.399 105.376 282.923 104.926 282.68 104.926C282.437 104.926 282.239 105.376 282.239 105.926ZM40.7386 106.926C40.3986 107.476 40.5976 107.926 41.1796 107.926C41.7616 107.926 42.2386 107.476 42.2386 106.926C42.2386 106.376 42.0406 105.926 41.7976 105.926C41.5546 105.926 41.0786 106.376 40.7386 106.926ZM415.11 107.676C416.55 110.378 416.829 110.436 417.685 108.206C418.048 107.261 418.025 106.807 417.634 107.198C417.243 107.589 416.245 107.35 415.417 106.667C414.105 105.585 414.065 105.715 415.11 107.676ZM44.9276 107.62C44.5546 108.223 44.9596 108.989 45.8266 109.321C48.1636 110.218 49.2386 110.06 49.2386 108.819C49.2386 108.21 48.5926 107.96 47.8036 108.263C47.0136 108.566 46.1966 108.299 45.9866 107.669C45.7136 106.851 45.4116 106.837 44.9276 107.62ZM346.285 108.37C344.528 110.488 345.713 112.939 348.458 112.863L350.739 112.799L348.506 111.901C347.059 111.319 346.48 110.461 346.863 109.464C347.532 107.721 349.814 107.406 350.581 108.951C350.86 109.515 350.973 109.402 350.831 108.701C350.449 106.813 347.741 106.616 346.285 108.37ZM413.302 109.054C413.23 110.903 415.955 113.543 416.93 112.569C417.283 112.215 417.033 111.926 416.373 111.926C415.714 111.926 414.768 110.914 414.27 109.676C413.658 108.153 413.345 107.952 413.302 109.054ZM503.239 108.926C503.239 109.476 503.689 109.926 504.239 109.926C504.789 109.926 505.239 109.476 505.239 108.926C505.239 108.376 504.789 107.926 504.239 107.926C503.689 107.926 503.239 108.376 503.239 108.926ZM42.7116 110.97C42.3866 111.496 43.0476 111.926 44.1796 111.926C46.5946 111.926 46.8376 111.37 44.7706 110.577C43.9636 110.267 43.0366 110.444 42.7116 110.97ZM507.239 110.895C507.239 111.427 506.451 111.568 505.489 111.207C503.939 110.627 503.901 110.75 505.151 112.286C506.164 113.53 506.768 113.688 507.289 112.845C507.719 112.15 508.571 112.005 509.377 112.49C510.513 113.174 510.511 113.029 509.367 111.618C507.805 109.693 507.239 109.501 507.239 110.895ZM57.0516 111.609C57.7726 111.898 58.6356 111.862 58.9676 111.53C59.2996 111.198 58.7096 110.962 57.6556 111.005C56.4906 111.053 56.2536 111.29 57.0516 111.609ZM268.291 112.489C269.43 113.862 269.25 113.967 266.806 113.353C264.226 112.706 264.105 112.806 265.137 114.735C266.542 117.362 268.447 118.632 267.576 116.363C267.061 115.02 267.356 114.828 269.088 115.378C270.271 115.754 271.225 115.693 271.207 115.243C271.161 114.063 268.654 110.926 267.756 110.926C267.337 110.926 267.578 111.629 268.291 112.489ZM280.989 113.994C278.927 115.083 277.239 116.197 277.239 116.47C277.239 116.916 285.138 113.224 286.156 112.303C287.306 111.262 284.303 112.245 280.989 113.994ZM378.789 114.167C380.221 116.519 382.239 117.124 382.239 115.2C382.239 114.866 381.958 114.874 381.615 115.217C381.272 115.56 380.12 114.848 379.056 113.633L377.12 111.426L378.789 114.167ZM355.51 114.698L353.28 116.426L355.678 117.543C357.764 118.516 358.149 118.386 358.643 116.543C359.775 112.328 359.089 111.924 355.51 114.698ZM47.2386 115.594C48.0636 115.941 49.1106 116.721 49.5646 117.326C50.0956 118.033 50.2446 117.891 49.9816 116.926C49.7566 116.101 48.7106 115.321 47.6556 115.194C46.3086 115.03 46.1846 115.149 47.2386 115.594ZM356.239 115.985C356.239 116.567 356.689 116.766 357.239 116.426C357.789 116.086 358.239 115.61 358.239 115.367C358.239 115.124 357.789 114.926 357.239 114.926C356.689 114.926 356.239 115.403 356.239 115.985ZM506.758 116.905C505.129 118.705 505.115 118.941 506.597 119.51C507.494 119.854 507.936 120.608 507.579 121.185C507.2 121.798 507.41 121.938 508.084 121.521C509.684 120.533 509.59 117.603 507.989 118.539C507.302 118.941 507.596 118.292 508.644 117.098C509.692 115.903 510.099 114.926 509.549 114.926C508.999 114.926 507.743 115.817 506.758 116.905ZM382.809 117.604C382.426 118.602 382.867 119.918 383.897 120.854C385.479 122.289 385.524 122.285 384.417 120.803C383.75 119.91 383.485 118.447 383.829 117.553C384.172 116.658 384.228 115.926 383.953 115.926C383.678 115.926 383.163 116.681 382.809 117.604ZM273.1 118.985L270.739 121.045L273.489 119.37C275.001 118.449 276.239 117.523 276.239 117.311C276.239 116.53 275.404 116.976 273.1 118.985ZM41.9886 118.588C42.6766 118.866 43.8016 118.866 44.4886 118.588C45.1766 118.311 44.6136 118.084 43.2386 118.084C41.8636 118.084 41.3016 118.311 41.9886 118.588ZM257.239 119.426C256.246 120.623 256.246 121.229 257.239 122.426C259.957 125.701 263.987 123.406 262.069 119.676C260.965 117.53 258.902 117.423 257.239 119.426ZM257.685 120.013C256.713 121.586 258.814 123.303 260.784 122.547C262.148 122.024 262.232 121.623 261.229 120.414C259.766 118.651 258.608 118.52 257.685 120.013ZM362.711 120.957C360.932 122.923 360.931 123.043 362.698 124.707C364.429 126.338 364.489 126.329 363.857 124.531C363.448 123.367 363.838 121.921 364.87 120.781C365.793 119.761 366.099 118.926 365.549 118.926C364.999 118.926 363.722 119.84 362.711 120.957ZM396.239 119.304C396.239 119.511 396.924 120.25 397.762 120.945C399.035 122.002 399.182 121.94 398.655 120.567C398.117 119.166 396.239 118.183 396.239 119.304ZM266.239 124.076C264.314 125.764 263.644 126.688 264.75 126.128C266.577 125.205 271.106 120.87 270.144 120.967C269.921 120.989 268.164 122.388 266.239 124.076ZM503.739 121.926C504.079 122.476 504.807 122.926 505.357 122.926C505.907 122.926 506.079 122.476 505.739 121.926C505.399 121.376 504.671 120.926 504.121 120.926C503.571 120.926 503.399 121.376 503.739 121.926ZM46.6336 122.69C48.1806 123.048 48.2726 123.31 47.1336 124.114C46.0666 124.868 46.2086 124.988 47.7386 124.626C48.8386 124.366 50.5316 123.827 51.4996 123.428C52.8266 122.882 53.1156 123.083 52.6706 124.242C52.2206 125.414 52.5846 125.648 54.2006 125.226C56.1946 124.704 56.2136 124.6 54.5296 123.469C53.5446 122.808 50.9386 122.263 48.7386 122.259C46.5386 122.255 45.5916 122.449 46.6336 122.69ZM399.827 125.426C400.932 127.076 402.394 129.722 403.075 131.305C403.756 132.889 404.553 133.945 404.846 133.652C405.622 132.877 401.691 125.538 399.601 123.859C398.085 122.641 398.119 122.876 399.827 125.426ZM505.487 124.763C504.59 125.324 505.087 126.177 507.237 127.766C510.578 130.237 511.093 129.582 508.467 126.202C507.393 124.82 506.265 124.275 505.487 124.763ZM251.239 125.867C251.239 126.385 251.696 127.091 252.255 127.436C252.814 127.782 253.013 128.483 252.696 128.995C252.38 129.507 253.126 129.926 254.354 129.926H256.588L254.239 127.426C251.662 124.683 251.239 124.463 251.239 125.867ZM45.7906 128.011C46.1016 128.514 47.0046 128.926 47.7976 128.926C48.5906 128.926 49.2386 129.376 49.2386 129.926C49.2386 130.476 49.7256 130.926 50.3216 130.926C52.4276 130.926 50.5716 128.525 47.9166 127.815C46.3536 127.397 45.4626 127.479 45.7906 128.011ZM249.239 128.771C249.239 129.878 252.634 132.935 253.818 132.894C254.324 132.877 253.906 132.232 252.889 131.461C251.871 130.69 251.335 129.579 251.698 128.993C252.06 128.406 251.655 127.926 250.798 127.926C249.941 127.926 249.239 128.306 249.239 128.771ZM393.239 128.867C393.239 129.385 393.684 130.083 394.228 130.419C394.794 130.769 394.962 130.368 394.621 129.478C393.956 127.746 393.239 127.429 393.239 128.867ZM392.389 135.268C394.917 140.283 395.742 141.252 394.756 138.051C394.272 136.479 394.382 135.896 395.082 136.329C395.663 136.688 396.656 136.015 397.289 134.833C398.199 133.132 398.174 132.848 397.169 133.469C396.261 134.03 396.087 133.764 396.558 132.538C396.963 131.482 396.82 131.067 396.187 131.458C395.621 131.808 395.435 132.968 395.774 134.035C396.421 136.076 394.424 136.358 393.004 134.426C391.84 132.841 392.121 131.74 393.489 132.527C394.177 132.923 394.388 132.861 393.96 132.391C393.532 131.92 392.531 131.439 391.737 131.323C390.607 131.157 390.749 132.017 392.389 135.268ZM373.989 133.006C372.072 134.123 371.669 136.456 373.228 137.419C373.779 137.76 373.97 137.39 373.66 136.582C373.341 135.749 374.078 134.452 375.394 133.53C377.899 131.775 376.803 131.367 373.989 133.006ZM503.859 132.732C502.804 134.439 506.098 135.489 507.556 133.912C508.489 132.902 508.383 132.757 507.054 133.223C506.127 133.548 505.197 133.299 504.987 132.669C504.708 131.834 504.403 131.851 503.859 132.732ZM46.3456 134.297C45.3256 135.527 45.5456 135.716 47.7166 135.478C50.7916 135.14 51.7756 134.376 50.3056 133.467C49.7186 133.105 49.2316 133.397 49.2236 134.117C49.2106 135.186 49.0576 135.188 48.3846 134.129C47.7226 133.085 47.3246 133.117 46.3456 134.297ZM244.239 134.4C244.239 134.661 245.701 135.588 247.489 136.461L250.739 138.046L248.239 136.008C245.832 134.046 244.239 133.406 244.239 134.4ZM426.906 134.593C426.539 134.959 426.239 135.724 426.239 136.293C426.239 136.919 426.705 136.86 427.422 136.143C428.073 135.492 428.373 134.727 428.089 134.443C427.805 134.159 427.272 134.226 426.906 134.593ZM506.239 136.957C506.239 138.348 508.865 139.275 510.298 138.39C511.14 137.869 511.086 137.444 510.096 136.816C508.235 135.637 506.239 135.71 506.239 136.957ZM41.2536 137.637C41.2826 139.134 42.9896 141.137 43.5086 140.283C43.7946 139.812 43.4006 138.846 42.6336 138.137C41.8666 137.427 41.2456 137.202 41.2536 137.637ZM406.803 139.219C407.179 140.205 407.738 140.76 408.046 140.452C408.354 140.145 408.047 139.338 407.363 138.659C406.375 137.679 406.261 137.794 406.803 139.219ZM49.0516 139.609C49.7726 139.898 50.6356 139.862 50.9676 139.53C51.2996 139.198 50.7096 138.962 49.6556 139.005C48.4906 139.053 48.2536 139.29 49.0516 139.609ZM295.24 140.051C292.417 141.175 288.239 144.82 288.239 146.159C288.239 146.646 288.759 146.723 289.394 146.331C290.074 145.91 290.278 146.054 289.89 146.681C288.758 148.514 290.279 150.744 293.405 151.834C299.038 153.798 306.735 148.543 305.448 143.611C304.357 139.433 300.325 138.026 295.24 140.051ZM241.239 140.394C241.239 140.651 242.477 141.533 243.989 142.354C245.501 143.175 246.15 143.864 245.43 143.886C244.71 143.908 244.423 144.415 244.793 145.013C245.271 145.786 245.793 145.766 246.602 144.942C247.455 144.073 247.149 143.302 245.378 141.855C243.148 140.032 241.239 139.359 241.239 140.394ZM378.489 141.146C375.952 142.37 375.821 142.803 377.349 144.926C378.259 146.192 378.34 146.153 377.865 144.676C377.208 142.633 378.298 142.389 380.098 144.176C381.109 145.179 381.21 145.031 380.611 143.426C379.948 141.649 380.053 141.579 381.552 142.798C383.363 144.271 383.589 144.001 382.632 141.508C381.935 139.693 381.57 139.661 378.489 141.146ZM503.84 140.865C504.334 141.325 505.817 142.028 507.135 142.427C509.169 143.044 509.331 142.94 508.209 141.739C507.483 140.961 506 140.258 504.915 140.177C503.811 140.093 503.337 140.397 503.84 140.865ZM48.2386 144.945C48.2386 145.55 49.3556 145.696 50.9886 145.304C54.9146 144.363 55.0466 143.926 51.4056 143.926C49.6636 143.926 48.2386 144.385 48.2386 144.945ZM504.43 146.196C503.6 147.196 504.264 147.387 507.558 147.093C513.231 146.588 514.768 144.926 509.561 144.926C507.319 144.926 505.01 145.497 504.43 146.196ZM51.7486 147.942C52.0946 148.501 52.7956 148.7 53.3076 148.383C54.6946 147.526 54.4366 146.926 52.6796 146.926C51.8226 146.926 51.4036 147.383 51.7486 147.942ZM56.2386 147.926C56.2386 148.476 56.6616 148.926 57.1796 148.926C57.6976 148.926 58.3986 148.476 58.7386 147.926C59.0786 147.376 58.6546 146.926 57.7976 146.926C56.9406 146.926 56.2386 147.376 56.2386 147.926ZM239.989 150.146C243.016 151.606 242.851 153.276 239.739 152.681C238.364 152.418 237.239 152.538 237.239 152.948C237.239 153.906 241.328 154.989 242.413 154.319C243.832 153.441 243.316 150.169 241.657 149.533C238.966 148.5 237.61 148.999 239.989 150.146ZM410.318 150.509C410.366 151.674 410.603 151.911 410.922 151.114C411.211 150.392 411.175 149.529 410.843 149.197C410.511 148.865 410.275 149.455 410.318 150.509ZM503.575 155.926C503.575 160.051 503.752 161.739 503.967 159.676C504.183 157.614 504.183 154.239 503.967 152.176C503.752 150.114 503.575 151.801 503.575 155.926ZM44.2386 151.093C44.2386 151.551 44.9136 151.926 45.7386 151.926C46.5636 151.926 47.2386 151.551 47.2386 151.093C47.2386 150.634 46.5636 150.259 45.7386 150.259C44.9136 150.259 44.2386 150.634 44.2386 151.093ZM381.404 150.803C380.387 151.448 380.556 151.776 382.118 152.184C383.253 152.481 384.682 152.097 385.325 151.323C386.247 150.211 386.101 149.929 384.611 149.941C383.582 149.95 382.138 150.337 381.404 150.803ZM401.863 151.465C401.52 152.358 401.268 153.615 401.302 154.258C401.337 154.9 401.797 154.348 402.324 153.031C402.851 151.713 403.103 150.457 402.884 150.238C402.665 150.019 402.205 150.571 401.863 151.465ZM49.2386 151.926C49.2386 152.476 49.6886 152.926 50.2386 152.926C50.7886 152.926 51.2386 152.476 51.2386 151.926C51.2386 151.376 50.7886 150.926 50.2386 150.926C49.6886 150.926 49.2386 151.376 49.2386 151.926ZM505.397 152.926C505.397 154.301 505.624 154.864 505.901 154.176C506.179 153.489 506.179 152.364 505.901 151.676C505.624 150.989 505.397 151.551 505.397 152.926ZM381.658 153.843C380.437 155.057 381.528 155.974 383.489 155.381C386.994 154.322 387.725 153.109 384.758 153.276C383.283 153.358 381.888 153.614 381.658 153.843ZM46.2386 154.926C45.3376 155.508 45.2136 155.901 45.9296 155.911C46.5846 155.919 47.3986 155.476 47.7386 154.926C48.5056 153.684 48.1596 153.684 46.2386 154.926ZM400.239 158.985C400.239 160.117 400.669 160.778 401.195 160.453C401.721 160.128 401.898 159.201 401.588 158.394C400.795 156.327 400.239 156.57 400.239 158.985ZM405.318 158.509C405.366 159.674 405.603 159.911 405.922 159.114C406.211 158.392 406.175 157.529 405.843 157.197C405.511 156.865 405.275 157.455 405.318 158.509ZM42.7386 158.926C43.0786 159.476 43.5546 159.926 43.7976 159.926C44.0406 159.926 44.2386 159.476 44.2386 158.926C44.2386 158.376 43.7616 157.926 43.1796 157.926C42.5976 157.926 42.3986 158.376 42.7386 158.926ZM412.397 159.926C412.397 161.301 412.624 161.864 412.901 161.176C413.179 160.489 413.179 159.364 412.901 158.676C412.624 157.989 412.397 158.551 412.397 159.926ZM508.239 174.402C508.239 183.555 508.619 190.809 509.083 190.522C510.979 189.351 511.362 158.8 509.489 158.176C508.522 157.854 508.239 161.532 508.239 174.402ZM234.584 160.469C233.867 162.337 234.003 162.468 237.513 163.31C240.105 163.932 240.204 163.843 239.016 161.941C238.317 160.822 237.594 160.361 237.409 160.916C237.224 161.472 236.612 161.926 236.049 161.926C235.486 161.926 235.284 161.251 235.601 160.426C235.917 159.601 235.951 158.926 235.676 158.926C235.401 158.926 234.91 159.62 234.584 160.469ZM382.906 161.354C382.429 162.596 382.723 163.838 383.732 164.848C385.154 166.27 385.353 166.207 385.885 164.17C386.208 162.936 386.896 161.926 387.415 161.926C387.933 161.926 388.079 162.376 387.739 162.926C387.399 163.476 387.631 163.926 388.253 163.926C389.785 163.926 389.075 160.704 387.423 160.154C386.672 159.903 385.837 160.726 385.479 162.071L384.852 164.426L384.249 161.926C383.701 159.652 383.58 159.6 382.906 161.354ZM401.491 166.426C401.502 168.626 401.707 169.408 401.946 168.164C402.185 166.92 402.176 165.12 401.926 164.164C401.676 163.208 401.48 164.226 401.491 166.426ZM45.1006 166.033C44.1296 166.648 44.4706 166.9 46.2886 166.911C47.6916 166.919 49.3306 167.418 49.9326 168.02C50.5336 168.621 51.7366 168.959 52.6046 168.77C53.5596 168.562 52.6596 167.784 50.3226 166.798C47.9526 165.799 45.9356 165.503 45.1006 166.033ZM413.621 176.426C413.623 183.026 413.785 185.596 413.98 182.137C414.176 178.678 414.175 173.278 413.977 170.137C413.779 166.996 413.619 169.826 413.621 176.426ZM492.989 166.588C493.677 166.866 494.802 166.866 495.489 166.588C496.177 166.311 495.614 166.084 494.239 166.084C492.864 166.084 492.302 166.311 492.989 166.588ZM502.864 169.051C502.008 173.331 502.076 179.423 502.969 178.529C503.681 177.818 504.485 165.926 503.822 165.926C503.639 165.926 503.208 167.332 502.864 169.051ZM53.2386 170.926C51.9456 171.761 51.9726 171.897 53.4296 171.911C54.3596 171.919 55.3986 171.476 55.7386 170.926C56.5206 169.66 55.1966 169.66 53.2386 170.926ZM402.434 173.481C401.358 174.699 401.373 175.203 402.517 176.347C403.702 177.532 403.906 177.309 403.906 174.831C403.906 173.233 403.868 171.943 403.822 171.964C403.777 171.985 403.152 172.667 402.434 173.481ZM49.2386 173.926C49.2386 174.476 49.7156 174.926 50.2976 174.926C50.8796 174.926 51.0786 174.476 50.7386 173.926C50.3986 173.376 49.9226 172.926 49.6796 172.926C49.4366 172.926 49.2386 173.376 49.2386 173.926ZM384.489 178.589C383.802 178.866 383.232 179.843 383.224 180.759C383.21 182.201 383.077 182.223 382.239 180.926C381.488 179.764 381.266 180.07 381.254 182.282C381.204 191.696 373.108 211.43 365.947 219.593C364.408 221.348 364.269 222.108 365.218 223.593C366.191 225.115 366.301 225.137 365.864 223.724C365.378 222.151 365.581 222.158 368.539 223.813C370.906 225.137 371.725 226.286 371.685 228.224C371.643 230.257 371.921 230.605 372.924 229.773C373.635 229.182 373.927 228.231 373.573 227.658C373.22 227.086 373.391 226.902 373.955 227.25C375.131 227.978 381.744 218.882 385.597 211.235C389.748 202.999 394.396 183.926 392.253 183.926C391.716 183.926 390.995 182.801 390.65 181.426C390.305 180.051 389.658 178.926 389.212 178.926C388.767 178.926 387.803 178.737 387.071 178.505C386.338 178.274 385.177 178.311 384.489 178.589ZM405.309 178.617C405.348 179.062 405.766 180.326 406.239 181.426C407.068 183.354 407.101 183.347 407.169 181.235C407.207 180.03 406.789 178.766 406.239 178.426C405.689 178.086 405.271 178.172 405.309 178.617ZM401.786 180.176C401.571 180.864 401.171 184.351 400.897 187.926C400.573 192.158 400.678 193.379 401.2 191.426C401.642 189.776 402.056 186.828 402.121 184.876C402.186 182.924 402.779 180.786 403.439 180.126C404.372 179.193 404.365 178.926 403.408 178.926C402.73 178.926 402.001 179.489 401.786 180.176ZM49.2386 180.914C48.1326 181.62 48.5926 181.813 50.9866 181.649C52.7726 181.526 54.2356 181.089 54.2366 180.676C54.2396 179.618 51.0296 179.771 49.2386 180.914ZM502.434 182.426C502.454 184.076 502.678 184.63 502.932 183.657C503.186 182.684 503.169 181.334 502.895 180.657C502.621 179.98 502.414 180.776 502.434 182.426ZM39.7386 181.926C40.0786 182.476 40.5546 182.926 40.7976 182.926C41.0406 182.926 41.2386 182.476 41.2386 181.926C41.2386 181.376 40.7616 180.926 40.1796 180.926C39.5976 180.926 39.3986 181.376 39.7386 181.926ZM316.095 184.763C312.981 187.546 312.87 187.868 314.183 190.322C314.95 191.754 316.202 192.926 316.967 192.926C317.732 192.926 318.079 193.376 317.739 193.926C317.399 194.476 317.583 194.926 318.149 194.926C318.714 194.926 318.917 195.601 318.601 196.426C318.284 197.251 318.546 197.926 319.182 197.926C320.822 197.926 325.676 195.309 327.005 193.708C328.155 192.323 327.223 189.698 325.627 189.827C325.139 189.866 324.739 188.217 324.739 186.162C324.739 182.858 324.431 182.39 322.07 182.117C320.235 181.905 318.37 182.731 316.095 184.763ZM44.2386 183.926C44.2386 184.476 44.6886 184.926 45.2386 184.926C45.7886 184.926 46.2386 184.476 46.2386 183.926C46.2386 183.376 45.7886 182.926 45.2386 182.926C44.6886 182.926 44.2386 183.376 44.2386 183.926ZM53.1586 184.246C53.6746 184.762 54.8186 184.682 55.8926 184.055C57.5126 183.108 57.4036 183 55.0056 183.168C53.4156 183.279 52.6426 183.73 53.1586 184.246ZM48.2386 186.426C48.2386 187.293 48.8336 187.635 49.7386 187.288C50.5636 186.971 51.2386 186.583 51.2386 186.426C51.2386 186.269 50.5636 185.881 49.7386 185.564C48.8336 185.217 48.2386 185.559 48.2386 186.426ZM41.0516 186.609C41.7726 186.898 42.6356 186.862 42.9676 186.53C43.2996 186.198 42.7096 185.962 41.6556 186.005C40.4906 186.053 40.2536 186.29 41.0516 186.609ZM411.873 192.812C411.488 195.221 411.384 197.404 411.641 197.662C412.313 198.333 413.527 191.289 413.008 189.732C412.769 189.016 412.259 190.402 411.873 192.812ZM42.2386 192.139C42.2386 193.182 43.3976 193.111 45.2256 191.955C46.3946 191.216 46.2346 191.051 44.4756 191.183C43.2456 191.276 42.2386 191.706 42.2386 192.139ZM48.9716 192.05C49.6506 192.734 50.4576 193.041 50.7646 192.733C51.0726 192.425 50.5176 191.866 49.5316 191.49C48.1066 190.948 47.9916 191.062 48.9716 192.05ZM55.1106 194.676C53.8416 196.295 53.8886 196.316 55.7386 194.959C56.8386 194.152 57.9266 193.365 58.1556 193.209C58.3846 193.053 58.1016 192.926 57.5276 192.926C56.9536 192.926 55.8656 193.714 55.1106 194.676ZM398.376 199.297C397.77 201.701 397.008 204.514 396.682 205.547C396.15 207.228 396.226 207.215 397.395 205.426C399.042 202.907 401.176 194.926 400.203 194.926C399.803 194.926 398.981 196.893 398.376 199.297ZM505.434 199.426C505.454 201.076 505.678 201.63 505.932 200.657C506.186 199.684 506.169 198.334 505.895 197.657C505.621 196.98 505.414 197.776 505.434 199.426ZM51.2386 198.926C52.0636 199.459 53.1886 199.895 53.7386 199.895C54.2886 199.895 54.0636 199.459 53.2386 198.926C52.4136 198.393 51.2886 197.957 50.7386 197.957C50.1886 197.957 50.4136 198.393 51.2386 198.926ZM408.941 205.053C407.952 208.414 407.325 211.345 407.547 211.568C408.133 212.154 411.479 201.144 411.077 199.949C410.891 199.396 409.93 201.692 408.941 205.053ZM39.7386 202.926C39.3986 203.476 39.5976 203.926 40.1796 203.926C40.7616 203.926 41.2386 203.476 41.2386 202.926C41.2386 202.376 41.0406 201.926 40.7976 201.926C40.5546 201.926 40.0786 202.376 39.7386 202.926ZM45.2386 204.319C45.2386 204.535 45.9366 204.98 46.7906 205.308C47.6806 205.649 48.0816 205.481 47.7316 204.915C47.1446 203.964 45.2386 203.509 45.2386 204.319ZM505.345 205.365C506.327 206.348 511.246 206.723 511.782 205.857C512.098 205.345 510.68 204.926 508.631 204.926C506.582 204.926 505.103 205.124 505.345 205.365ZM44.2386 208.895C44.2386 209.427 44.9136 209.604 45.7386 209.288C46.5636 208.971 47.2386 208.535 47.2386 208.319C47.2386 208.103 46.5636 207.926 45.7386 207.926C44.9136 207.926 44.2386 208.362 44.2386 208.895ZM244.772 208.873C244.414 209.452 244.399 210.376 244.739 210.926C245.079 211.476 244.913 211.926 244.371 211.926C243.829 211.926 243.157 211.138 242.878 210.176C242.584 209.165 242.448 209.482 242.554 210.926C242.663 212.399 243.355 213.426 244.239 213.426C245.072 213.426 245.905 212.315 246.114 210.926C246.464 208.588 246.544 208.556 247.355 210.426C248.164 212.292 248.206 212.297 247.981 210.509C247.704 208.313 245.738 207.31 244.772 208.873ZM393.069 213.686C390.178 219.9 381.599 233.218 380.138 233.759C378.897 234.219 379.008 236.665 380.306 237.467C380.946 237.863 381.246 237.387 381.056 236.276C380.878 235.235 381.27 234.53 381.953 234.664C382.655 234.802 382.926 234.274 382.596 233.414C381.943 231.712 383.265 231.448 385.039 232.926C385.912 233.653 385.966 233.599 385.239 232.726C383.951 231.18 383.943 229.625 385.228 230.419C385.794 230.769 385.962 230.368 385.621 229.478C384.817 227.383 386.213 227.508 387.796 229.673C388.692 230.899 388.763 231.794 388.034 232.673C387.413 233.421 387.382 233.926 387.956 233.926C389.482 233.926 391.423 228.86 390.393 227.564C389.225 226.093 389.54 222.473 390.989 220.727C391.613 219.975 392.599 218.111 393.179 216.583C393.76 215.055 394.621 214.044 395.093 214.336C395.564 214.627 395.725 213.687 395.45 212.247C395.107 210.457 395.308 209.85 396.083 210.329C396.812 210.78 397.004 210.476 396.621 209.478C396.293 208.624 395.961 207.931 395.882 207.936C395.803 207.942 394.537 210.53 393.069 213.686ZM48.2386 210.607L45.7386 212.092L48.2386 211.522C49.6136 211.209 51.0766 210.947 51.4886 210.94C51.9006 210.932 52.2386 210.476 52.2386 209.926C52.2386 208.627 51.3036 208.786 48.2386 210.607ZM502.958 210.217C502.61 211.122 502.787 212.146 503.349 212.494C504.793 213.387 505.1 212.735 504.288 210.499C503.673 208.805 503.512 208.771 502.958 210.217ZM506.699 210.521C508.897 212.127 510.239 212.325 510.239 211.043C510.239 210.557 509.01 209.924 507.508 209.637C504.954 209.149 504.901 209.206 506.699 210.521ZM343.644 214.176L341.739 216.426L343.989 214.521C346.103 212.731 346.694 211.926 345.894 211.926C345.704 211.926 344.692 212.938 343.644 214.176ZM405.4 215.473C404.015 218.512 403.849 220.752 405.11 219.376C406.016 218.388 407.547 212.926 406.919 212.926C406.721 212.926 406.038 214.072 405.4 215.473ZM505.746 213.915C505.396 214.481 505.797 214.649 506.687 214.308C508.419 213.643 508.736 212.926 507.298 212.926C506.78 212.926 506.082 213.371 505.746 213.915ZM248.131 216.836C245.914 218.653 245.859 218.919 247.373 220.46C248.897 222.011 249.187 222.006 251.655 220.389C254.746 218.364 254.422 217.223 251.239 218.926C248.417 220.436 247.165 219.184 249.668 217.355C250.727 216.58 251.352 215.706 251.058 215.411C250.763 215.117 249.446 215.758 248.131 216.836ZM343.111 217.676C341.868 219.262 341.903 219.297 343.489 218.054C344.451 217.299 345.239 216.511 345.239 216.304C345.239 215.481 344.418 216.01 343.111 217.676ZM504.674 217.031C504.37 217.523 504.823 217.926 505.68 217.926C506.537 217.926 507.239 218.431 507.239 219.048C507.239 219.824 507.703 219.786 508.739 218.926C509.564 218.241 510.239 217.399 510.238 217.054C510.237 216.059 505.287 216.039 504.674 217.031ZM393.989 219.588C394.677 219.866 395.802 219.866 396.489 219.588C397.177 219.311 396.614 219.084 395.239 219.084C393.864 219.084 393.302 219.311 393.989 219.588ZM503.239 219.745C503.239 220.953 505.136 222.362 505.83 221.669C506.081 221.417 505.601 220.642 504.763 219.946C503.813 219.157 503.239 219.081 503.239 219.745ZM49.2386 220.926C49.2386 221.476 50.2516 221.919 51.4886 221.911C53.3076 221.898 53.4516 221.71 52.2386 220.926C50.2996 219.673 49.2386 219.673 49.2386 220.926ZM402.686 221.841C402.997 222.344 402.686 222.957 401.995 223.204C401.304 223.45 401.101 224.038 401.543 224.51C401.986 224.982 402.766 224.706 403.278 223.897C404.51 221.949 404.476 220.926 403.18 220.926C402.598 220.926 402.375 221.338 402.686 221.841ZM253.848 223.806C252.228 225.596 252.271 225.717 254.739 226.337C258.223 227.211 259.507 226.296 258.207 223.865C256.908 221.439 256.001 221.427 253.848 223.806ZM45.6796 225.394C44.6126 226.202 44.1886 226.862 44.7386 226.862C45.2886 226.862 46.6126 226.202 47.6796 225.394C48.7476 224.587 49.1706 223.926 48.6206 223.926C48.0706 223.926 46.7476 224.587 45.6796 225.394ZM255.239 224.926C255.239 225.476 255.689 225.926 256.239 225.926C256.789 225.926 257.239 225.476 257.239 224.926C257.239 224.376 256.789 223.926 256.239 223.926C255.689 223.926 255.239 224.376 255.239 224.926ZM391.239 224.867C391.239 225.385 391.684 226.083 392.228 226.419C392.794 226.769 392.962 226.368 392.621 225.478C391.956 223.746 391.239 223.429 391.239 224.867ZM505.239 224.985C505.239 225.567 505.689 225.766 506.239 225.426C506.789 225.086 507.239 224.61 507.239 224.367C507.239 224.124 506.789 223.926 506.239 223.926C505.689 223.926 505.239 224.403 505.239 224.985ZM368.739 225.926C369.079 226.476 369.807 226.926 370.357 226.926C370.907 226.926 371.079 226.476 370.739 225.926C370.399 225.376 369.671 224.926 369.121 224.926C368.571 224.926 368.399 225.376 368.739 225.926ZM48.7486 226.942C49.0946 227.501 49.7956 227.7 50.3076 227.383C51.6946 226.526 51.4366 225.926 49.6796 225.926C48.8226 225.926 48.4036 226.383 48.7486 226.942ZM387.254 226.605C387.283 228.137 389.127 230.372 389.804 229.695C390.174 229.324 389.749 228.293 388.858 227.402C387.968 226.512 387.246 226.153 387.254 226.605ZM398.518 229.898C397.66 232.083 396.612 233.656 396.189 233.395C395.766 233.134 394.439 234.948 393.239 237.426C392.039 239.904 390.648 241.679 390.148 241.37C389.648 241.061 389.239 241.51 389.239 242.367C389.239 244.747 389.743 244.347 393.895 238.676C399.225 231.395 402.316 225.926 401.101 225.926C400.538 225.926 399.376 227.713 398.518 229.898ZM506.239 228.426C507.598 230.063 510.239 230.464 510.239 229.033C510.239 228.112 507.872 226.926 506.035 226.926C505.405 226.926 505.485 227.518 506.239 228.426ZM41.0516 228.609C41.7726 228.898 42.6356 228.862 42.9676 228.53C43.2996 228.198 42.7096 227.962 41.6556 228.005C40.4906 228.053 40.2536 228.29 41.0516 228.609ZM259.824 230.108C258.253 232.351 259.182 234.926 261.561 234.926C262.263 234.926 262.221 234.508 261.439 233.726C259.691 231.978 259.967 230.456 261.762 231.945C263.055 233.018 263.178 232.923 262.575 231.317C261.947 229.647 262.061 229.586 263.552 230.798C265.467 232.356 265.873 230.96 264.039 229.126C262.348 227.435 261.569 227.616 259.824 230.108ZM54.2386 229.926C54.2386 230.476 54.6886 230.926 55.2386 230.926C55.7886 230.926 56.2386 230.476 56.2386 229.926C56.2386 229.376 55.7886 228.926 55.2386 228.926C54.6886 228.926 54.2386 229.376 54.2386 229.926ZM46.5306 230.623C47.7736 230.946 48.1356 231.675 47.7126 233.007C47.2226 234.551 47.5946 234.926 49.6126 234.926C50.9916 234.926 52.3956 234.481 52.7316 233.937C53.0746 233.382 52.6966 233.197 51.8676 233.515C50.9916 233.851 49.9406 233.237 49.2806 232.004C48.6686 230.861 47.3966 229.978 46.4536 230.042C44.9146 230.146 44.9226 230.206 46.5306 230.623ZM43.2386 232.367C43.2386 233.224 43.6886 233.926 44.2386 233.926C44.7886 233.926 45.2386 233.503 45.2386 232.985C45.2386 232.467 44.7886 231.766 44.2386 231.426C43.6886 231.086 43.2386 231.51 43.2386 232.367ZM358.536 232.832C356.537 234.5 356.472 234.846 357.837 236.549C359.261 238.324 359.306 238.29 358.678 235.926C358.136 233.884 358.254 233.655 359.327 234.676C361.01 236.28 363.041 236.328 361.439 234.726C359.397 232.684 360.12 231.508 362.239 233.426C364.358 235.344 365.081 234.168 363.039 232.126C361.492 230.579 361.174 230.629 358.536 232.832ZM501.739 231.926C502.079 232.476 502.555 232.926 502.798 232.926C503.041 232.926 503.239 232.476 503.239 231.926C503.239 231.376 502.762 230.926 502.18 230.926C501.598 230.926 501.399 231.376 501.739 231.926ZM504.272 232.864C503.414 234.468 503.554 234.778 505.091 234.662C506.356 234.567 506.797 233.951 506.476 232.724C505.88 230.447 505.555 230.468 504.272 232.864ZM39.2386 234.926C39.2386 235.476 39.7156 235.926 40.2976 235.926C40.8796 235.926 41.0786 235.476 40.7386 234.926C40.3986 234.376 39.9226 233.926 39.6796 233.926C39.4366 233.926 39.2386 234.376 39.2386 234.926ZM266.48 235.912C264.807 238.591 264.916 239.439 266.739 237.926C267.996 236.883 268.239 237.043 268.239 238.914V241.148L270.152 238.787C271.52 237.1 271.77 236.069 271.03 235.176C269.535 233.372 267.901 233.636 266.48 235.912ZM268.239 235.926C268.239 236.476 268.689 236.926 269.239 236.926C269.789 236.926 270.239 236.476 270.239 235.926C270.239 235.376 269.789 234.926 269.239 234.926C268.689 234.926 268.239 235.376 268.239 235.926ZM43.2386 236.985C43.2386 237.567 43.6886 237.766 44.2386 237.426C44.7886 237.086 45.2386 236.61 45.2386 236.367C45.2386 236.124 44.7886 235.926 44.2386 235.926C43.6886 235.926 43.2386 236.403 43.2386 236.985ZM350.423 238.788C348.169 240.487 348.2 243.926 350.468 243.926C351.047 243.926 350.939 243.27 350.219 242.402C349.523 241.564 349.305 240.551 349.733 240.152C350.162 239.753 350.714 239.989 350.959 240.676C351.205 241.364 351.804 241.926 352.291 241.926C352.778 241.926 352.881 241.138 352.52 240.176C351.946 238.644 352.074 238.597 353.552 239.798C354.48 240.553 355.239 240.721 355.239 240.171C355.239 237.797 352.701 237.069 350.423 238.788ZM374.185 240.487C372.274 242.463 371.518 243.751 372.489 243.38C373.451 243.013 374.239 242.284 374.239 241.76C374.239 241.236 374.696 241.091 375.255 241.436C375.814 241.782 376.072 242.387 375.829 242.781C375.585 243.175 376.235 243.497 377.273 243.497C378.996 243.497 379.025 243.347 377.602 241.775C375.95 239.949 376.625 237.429 378.463 238.564C379.11 238.965 379.26 238.77 378.834 238.081C377.887 236.548 378.108 236.434 374.185 240.487ZM46.5916 239.063C47.8846 239.815 49.0916 239.826 50.5916 239.101C52.4646 238.194 52.2286 238.057 48.7386 238.024C45.4106 237.993 45.0496 238.168 46.5916 239.063ZM502.355 238.477C502.202 239.86 504.562 244.908 505.367 244.918C505.712 244.922 506.554 244.251 507.239 243.426C508.286 242.165 508.106 241.924 506.111 241.911C504.153 241.898 504 241.707 505.239 240.816C506.52 239.895 506.493 239.816 505.052 240.276C503.996 240.614 503.197 240.181 502.918 239.121C502.672 238.189 502.419 237.899 502.355 238.477ZM508.052 238.609C508.773 238.898 509.636 238.862 509.968 238.53C510.3 238.198 509.71 237.962 508.656 238.005C507.491 238.053 507.254 238.29 508.052 238.609ZM42.2386 241.426C42.9236 242.251 44.1896 242.926 45.0526 242.926C46.3076 242.926 46.2336 242.633 44.6796 241.458C42.1406 239.537 40.6546 239.518 42.2386 241.426ZM52.2386 240.926C50.9056 241.788 50.9056 241.895 52.2386 241.895C53.0636 241.895 54.4136 241.459 55.2386 240.926C56.5716 240.064 56.5716 239.957 55.2386 239.957C54.4136 239.957 53.0636 240.393 52.2386 240.926ZM408.803 241.633C408.261 243.058 408.375 243.173 409.363 242.193C410.047 241.514 410.354 240.707 410.046 240.4C409.738 240.092 409.179 240.647 408.803 241.633ZM279.274 242.86C277.766 245.679 277.988 246.627 280.296 247.231C281.895 247.649 282.114 247.48 281.279 246.474C279.774 244.66 281.03 241.933 283.072 242.583C284.502 243.039 284.525 242.961 283.239 242.036C281.126 240.516 280.454 240.655 279.274 242.86ZM340.254 242.676C340.267 244.172 340.411 244.208 341.239 242.926C342.067 241.644 342.211 241.68 342.224 243.176C342.232 244.138 342.802 244.958 343.489 244.996C344.177 245.035 343.869 245.407 342.805 245.824C341.742 246.24 341.313 246.854 341.853 247.188C342.393 247.521 343.462 247.406 344.23 246.932C345.351 246.239 345.395 245.563 344.454 243.498C343.127 240.585 340.231 240.019 340.254 242.676ZM287.43 246.407C286.464 248.526 286.588 249.042 288.279 249.947C289.959 250.846 290.409 250.61 291.256 248.382C293.021 243.739 289.478 241.91 287.43 246.407ZM332.927 244.572C331.558 245.94 332.277 247.139 333.739 245.926C335.476 244.484 335.667 245.257 334.236 247.931C333.065 250.12 334.199 251.196 336.287 249.875C337.085 249.37 337.253 248.95 336.66 248.941C336.066 248.933 335.616 247.959 335.66 246.777C335.74 244.59 334.173 243.325 332.927 244.572ZM51.7916 246.648C51.2716 248.005 50.9566 248.088 50.3096 247.041C49.8026 246.221 49.2516 246.096 48.8696 246.714C48.5286 247.266 48.9866 247.999 49.8876 248.345C50.7876 248.69 51.5876 248.85 51.6646 248.7C51.7416 248.549 52.4076 247.638 53.1436 246.676C53.8876 245.704 54.0316 244.926 53.4676 244.926C52.9096 244.926 52.1556 245.701 51.7916 246.648ZM56.0516 245.609C56.7726 245.898 57.6356 245.862 57.9676 245.53C58.2996 245.198 57.7096 244.962 56.6556 245.005C55.4906 245.053 55.2536 245.29 56.0516 245.609ZM288.846 246.508C288.053 248.573 288.08 248.926 289.026 248.926C289.459 248.926 289.881 248.026 289.964 246.926C290.145 244.522 289.675 244.346 288.846 246.508ZM367.1 246.982C364.863 248.931 364.854 248.983 366.933 247.977C368.14 247.393 369.404 246.468 369.742 245.921C370.725 244.33 369.648 244.763 367.1 246.982ZM384.784 247.471C381.196 251.06 381.601 251.911 385.239 248.426C386.889 246.845 388.239 245.411 388.239 245.239C388.239 244.417 387.109 245.147 384.784 247.471ZM296.439 247.126C294.812 248.753 294.931 250.425 296.781 251.961C298.036 253.002 298.549 252.998 299.531 251.937C300.487 250.905 300.454 250.794 299.377 251.407C297.58 252.43 296.017 249.898 297.41 248.221C297.99 247.521 298.934 247.238 299.507 247.592C300.111 247.965 300.249 247.751 299.834 247.081C298.923 245.606 297.946 245.619 296.439 247.126ZM45.0516 247.609C45.7726 247.898 46.6356 247.862 46.9676 247.53C47.2996 247.198 46.7096 246.962 45.6556 247.005C44.4906 247.053 44.2536 247.29 45.0516 247.609ZM506.239 247.867C506.239 248.385 506.684 249.083 507.228 249.419C507.794 249.769 507.962 249.368 507.621 248.478C506.956 246.746 506.239 246.429 506.239 247.867ZM316.861 250.676C317.802 254.602 318.239 254.734 318.239 251.093C318.239 249.351 317.78 247.926 317.22 247.926C316.615 247.926 316.469 249.043 316.861 250.676ZM325.052 248.609C325.773 248.898 326.636 248.862 326.968 248.53C327.3 248.198 326.71 247.962 325.656 248.005C324.491 248.053 324.254 248.29 325.052 248.609ZM324.989 250.588C325.677 250.866 326.802 250.866 327.489 250.588C328.177 250.311 327.614 250.084 326.239 250.084C324.864 250.084 324.302 250.311 324.989 250.588ZM400.746 250.915C400.396 251.481 400.797 251.649 401.687 251.308C403.419 250.643 403.736 249.926 402.298 249.926C401.78 249.926 401.082 250.371 400.746 250.915ZM380.239 251.818C380.239 252.492 379.719 252.723 379.084 252.331C378.34 251.871 378.203 252.058 378.697 252.859C379.243 253.741 379.775 253.79 380.535 253.03C381.124 252.441 381.298 251.652 380.922 251.276C380.547 250.9 380.239 251.144 380.239 251.818ZM503.68 252.022C502.607 253.757 505.959 256.606 507.389 255.176C508.276 254.289 508.248 253.642 507.274 252.468C505.766 250.651 504.615 250.508 503.68 252.022ZM50.0516 252.609C50.7726 252.898 51.6356 252.862 51.9676 252.53C52.2996 252.198 51.7096 251.962 50.6556 252.005C49.4906 252.053 49.2536 252.29 50.0516 252.609ZM356.551 253.875C355.633 254.947 354.552 255.619 354.148 255.37C353.143 254.749 353.639 257.678 354.704 258.647C355.174 259.075 355.267 258.914 354.91 258.289C354.055 256.793 356.808 254.42 357.709 255.877C358.065 256.454 358.893 256.919 359.548 256.911C360.359 256.9 360.313 256.625 359.404 256.049C358.669 255.583 358.068 254.853 358.068 254.426C358.068 253.999 358.669 253.269 359.404 252.803C360.416 252.161 360.435 251.953 359.479 251.941C358.786 251.933 357.469 252.803 356.551 253.875ZM362.646 253.37C361.297 254.357 361.212 254.791 362.242 255.428C363.105 255.961 363.306 255.844 362.834 255.081C362.135 253.949 362.935 253.642 366.529 253.662C367.513 253.667 368.062 253.416 367.75 253.103C366.656 252.01 364.341 252.131 362.646 253.37ZM396.983 255.902C395.467 256.839 392.092 259.604 389.483 262.047C386.874 264.489 381.814 268.456 378.239 270.862C374.664 273.268 371.597 275.592 371.424 276.025C371.251 276.459 369.497 277.346 367.525 277.997C364.611 278.958 364.245 279.35 365.568 280.09C367.37 281.099 371.431 279.025 374.576 275.49C375.586 274.355 376.06 274.089 375.629 274.899C375.076 275.938 375.738 275.791 377.879 274.399C383.01 271.062 386.239 268.193 386.239 266.973C386.239 266.332 386.634 266.052 387.116 266.35C388.03 266.915 400.963 255.276 400.183 254.59C399.939 254.375 398.499 254.966 396.983 255.902ZM373.239 256.426C372.229 257.643 372.269 257.926 373.45 257.926C374.251 257.926 374.906 257.251 374.906 256.426C374.906 255.601 374.811 254.926 374.695 254.926C374.579 254.926 373.924 255.601 373.239 256.426ZM47.2386 256.926C47.2386 257.476 47.9406 257.926 48.7976 257.926C49.6546 257.926 50.0786 257.476 49.7386 256.926C49.3986 256.376 48.6976 255.926 48.1796 255.926C47.6616 255.926 47.2386 256.376 47.2386 256.926ZM40.7386 258.926C41.0786 259.476 42.3426 259.894 43.5476 259.856C45.6596 259.788 45.6666 259.755 43.7386 258.926C40.9866 257.743 40.0076 257.743 40.7386 258.926ZM344.489 259.273C340.861 260.464 340.551 261.11 342.739 262.926C343.775 263.786 344.239 263.824 344.239 263.048C344.239 262.431 345.027 261.89 345.989 261.847C347.119 261.796 347.278 261.583 346.436 261.246C345.461 260.855 345.587 260.38 346.936 259.357C348.973 257.812 348.946 257.811 344.489 259.273ZM503.933 258.565C503.581 258.917 503.521 259.573 503.798 260.022C504.422 261.031 507.239 260.046 507.239 258.819C507.239 257.793 504.886 257.612 503.933 258.565ZM276.239 259.867C276.239 260.385 276.614 261.04 277.072 261.323C277.531 261.606 277.906 261.183 277.906 260.382C277.906 259.581 277.531 258.926 277.072 258.926C276.614 258.926 276.239 259.349 276.239 259.867ZM389.676 263.16C387.32 265.755 387.227 266.002 389.208 264.41C393.254 261.158 394.433 259.926 393.498 259.926C393.011 259.926 391.291 261.381 389.676 263.16ZM282.239 261.926C283.064 262.459 284.189 262.895 284.739 262.895C285.289 262.895 285.064 262.459 284.239 261.926C283.414 261.393 282.289 260.957 281.739 260.957C281.189 260.957 281.414 261.393 282.239 261.926ZM508.239 262.926C508.239 263.476 508.716 263.926 509.298 263.926C509.88 263.926 510.079 263.476 509.739 262.926C509.399 262.376 508.923 261.926 508.68 261.926C508.437 261.926 508.239 262.376 508.239 262.926ZM277.739 263.926C277.399 264.476 277.571 264.926 278.121 264.926C278.671 264.926 279.399 264.476 279.739 263.926C280.079 263.376 279.907 262.926 279.357 262.926C278.807 262.926 278.079 263.376 277.739 263.926ZM335.239 263.926C334.338 264.508 334.214 264.901 334.93 264.911C335.585 264.919 336.399 264.476 336.739 263.926C337.506 262.684 337.16 262.684 335.239 263.926ZM504.254 263.985C504.283 266.669 505.944 268.256 507.888 267.455C509.393 266.835 509.459 266.6 508.239 266.195C507.414 265.92 506.177 264.987 505.489 264.12C504.465 262.828 504.242 262.804 504.254 263.985ZM282.239 264.304C282.239 264.511 282.924 265.25 283.762 265.945C285.035 267.002 285.182 266.94 284.655 265.567C284.117 264.166 282.239 263.183 282.239 264.304ZM327.989 264.588C328.677 264.866 329.802 264.866 330.489 264.588C331.177 264.311 330.614 264.084 329.239 264.084C327.864 264.084 327.302 264.311 327.989 264.588ZM500.239 265.304C500.239 265.511 501.027 266.299 501.989 267.054C503.575 268.297 503.61 268.262 502.367 266.676C501.06 265.01 500.239 264.481 500.239 265.304ZM41.2386 267.926C41.2386 268.476 42.2516 268.919 43.4886 268.911C45.3076 268.898 45.4516 268.71 44.2386 267.926C42.2996 266.673 41.2386 266.673 41.2386 267.926ZM271.68 269.371C272.748 270.226 274.06 270.926 274.597 270.926C275.867 270.926 275.3 270.464 272.239 269.006C269.882 267.884 269.85 267.904 271.68 269.371ZM379.989 270.498C378.477 271.319 377.239 272.201 377.239 272.458C377.239 273.424 378.82 272.819 381.239 270.926C384.211 268.601 383.766 268.449 379.989 270.498ZM505.239 270.836C505.239 271.401 504.451 271.568 503.489 271.207C501.948 270.63 501.905 270.756 503.132 272.263C503.897 273.204 504.797 273.631 505.132 273.212C505.466 272.792 506.125 272.163 506.596 271.813C507.067 271.462 506.954 270.868 506.346 270.492C505.737 270.116 505.239 270.27 505.239 270.836ZM277.239 271.797C278.064 272.292 280.314 272.975 282.239 273.316C284.6 273.734 285.088 273.657 283.739 273.08C280.647 271.756 275.463 270.733 277.239 271.797ZM508.239 272.926C507.338 273.508 507.214 273.901 507.93 273.911C508.585 273.919 509.399 273.476 509.739 272.926C510.506 271.684 510.16 271.684 508.239 272.926ZM290.052 275.609C290.773 275.898 291.636 275.862 291.968 275.53C292.3 275.198 291.71 274.962 290.656 275.005C289.491 275.053 289.254 275.29 290.052 275.609ZM333.052 275.609C333.773 275.898 334.636 275.862 334.968 275.53C335.3 275.198 334.71 274.962 333.656 275.005C332.491 275.053 332.254 275.29 333.052 275.609ZM85.7386 276.926C86.0786 277.476 86.7796 277.926 87.2976 277.926C87.8156 277.926 88.2386 277.476 88.2386 276.926C88.2386 276.376 87.5366 275.926 86.6796 275.926C85.8226 275.926 85.3986 276.376 85.7386 276.926ZM303.052 277.609C303.773 277.898 304.636 277.862 304.968 277.53C305.3 277.198 304.71 276.962 303.656 277.005C302.491 277.053 302.254 277.29 303.052 277.609ZM308.503 277.644C310.023 277.873 312.273 277.867 313.503 277.63C314.733 277.393 313.489 277.205 310.739 277.212C307.989 277.22 306.983 277.414 308.503 277.644ZM19.2386 283.818C19.2386 284.492 18.7886 284.766 18.2386 284.426C16.9656 283.639 16.9656 285.956 18.2386 287.926C19.0246 289.142 19.2106 289.007 19.2236 287.207C19.2346 285.55 19.6806 285.131 20.9886 285.552C22.0206 285.884 22.3286 285.763 21.7386 285.259C21.1886 284.788 20.4016 283.995 19.9886 283.498C19.5706 282.994 19.2386 283.136 19.2386 283.818ZM58.2386 285.493C61.5976 286.244 69.0166 286.375 68.5846 285.676C68.3296 285.263 65.5596 284.978 62.4296 285.042C59.2996 285.106 57.4136 285.309 58.2386 285.493Z" fill="black"/>
</svg>
