<svg width="264" height="332" viewBox="0 0 264 332" fill="none" xmlns="http://www.w3.org/2000/svg">
<rect width="262.551" height="330.295" transform="matrix(-0.999992 -0.00394229 -0.00394229 0.999992 263.852 1.03516)" fill="white"/>
<path fill-rule="evenodd" clip-rule="evenodd" d="M201.307 4.12407C201.514 4.63444 201.682 5.34077 201.68 5.69377C201.679 6.04712 201.801 6.59982 201.952 6.92211C202.133 7.30886 202.083 7.79895 201.805 8.36108C201.392 9.19896 201.384 9.18964 201.379 7.8206C201.376 7.05437 201.254 6.27975 201.108 6.09923C200.744 5.65017 200.389 3.1884 200.689 3.19302C200.822 3.19492 201.1 3.61405 201.307 4.12407ZM201.766 16.7151C201.901 17.2448 201.925 17.7737 201.821 17.8906C201.479 18.2746 201.281 17.724 201.403 16.7288L201.523 15.7518L201.766 16.7151ZM201.62 19.7949C201.614 20.4207 201.557 20.47 201.32 20.0517C200.942 19.3831 200.943 19.018 201.324 19.0195C201.491 19.0202 201.624 19.3693 201.62 19.7949ZM217.992 37.8073C218.09 37.9219 218.979 38.0864 219.966 38.1729C222.655 38.4078 223.977 38.7389 224.366 39.274C224.653 39.6698 224.534 39.7526 223.691 39.7393C223.127 39.7306 221.778 39.4982 220.693 39.2234C219.524 38.9274 216.991 38.712 214.481 38.6949C211.1 38.6719 210.318 38.5797 210.621 38.2396C211.016 37.7963 217.647 37.4072 217.992 37.8073ZM209.299 38.6624C209.417 38.88 208.688 39.0041 207.323 38.9987C205.958 38.9933 205.23 38.8635 205.349 38.6469C205.453 38.458 206.343 38.3067 207.326 38.3106C208.309 38.3145 209.197 38.4728 209.299 38.6624ZM205.239 39.2231C205.509 39.5937 205.223 39.6785 203.729 39.6727C202.716 39.6687 201.801 39.8199 201.697 40.0087C201.405 40.5388 199.537 40.4069 199.115 39.8265C198.789 39.379 198.939 39.3063 200.219 39.2896C201.034 39.2791 202.422 39.1569 203.304 39.0183C204.49 38.832 204.994 38.8849 205.239 39.2231ZM198.193 40.3259C198.585 40.6092 198.585 40.6674 198.191 40.811C197.042 41.2293 194.894 41.3643 194.713 41.0299C194.593 40.8085 194.871 40.6699 195.429 40.6721C195.93 40.6741 196.426 40.5212 196.53 40.3324C196.766 39.9036 197.604 39.9004 198.193 40.3259ZM193.486 41.6966C193.722 42.1331 193.319 42.1316 192.726 41.6936C192.334 41.4048 192.343 41.358 192.785 41.355C193.068 41.3533 193.383 41.507 193.486 41.6966ZM189.531 42.7132C189.769 43.1522 189.065 43.1494 188.468 42.709C188.098 42.4365 188.138 42.3733 188.679 42.371C189.045 42.3697 189.429 42.5236 189.531 42.7132ZM187.553 43.3936C187.553 43.5828 187.423 43.7371 187.266 43.7365C187.109 43.7359 186.896 43.5802 186.794 43.3906C186.691 43.2009 186.821 43.0466 187.081 43.0476C187.341 43.0487 187.554 43.2043 187.553 43.3936ZM185.728 43.9024C186.045 44.3382 185.988 44.4196 185.368 44.4171C184.963 44.4155 184.479 44.586 184.292 44.7958C184.105 45.0056 183.804 45.0726 183.623 44.9449C183.094 44.5716 183.246 44.0647 183.886 44.0672C184.211 44.0685 184.561 43.915 184.665 43.7262C184.932 43.2418 185.291 43.301 185.728 43.9024ZM180.33 44.9546C181.37 45.5787 181.411 46.0805 180.402 45.8581C179.894 45.7456 179.641 45.8454 179.637 46.1606C179.628 46.8074 174.057 49.7264 171.352 50.5013C170.134 50.8505 167.975 51.3178 166.553 51.54C161.906 52.2669 156.387 53.6417 155.307 54.3417C154.257 55.0226 150.578 56.2588 148.681 56.5685C148.132 56.6582 147.691 56.9345 147.69 57.1891C147.689 57.5545 148.327 57.6127 150.804 57.4735C153.283 57.3346 154.041 57.404 154.512 57.8129C155.056 58.2847 154.939 58.329 153.082 58.3533C151.97 58.3678 150.977 58.2263 150.875 58.0391C150.774 57.8519 150.473 57.6979 150.206 57.6969C149.784 57.6952 149.792 57.784 150.269 58.3852C150.57 58.7649 151.041 59.0764 151.316 59.0775C151.591 59.0786 151.945 59.2269 152.103 59.4071C152.261 59.5873 153.885 60.0296 155.712 60.3902C157.804 60.803 159.083 61.2168 159.167 61.5076C159.34 62.1038 154.697 61.748 152.257 60.9783C151.351 60.6926 149.951 60.3572 149.145 60.2325C147.772 60.021 147.679 60.0554 147.676 60.7765C147.674 61.2537 148.219 62.1209 149.111 63.0592C149.901 63.8911 150.429 64.5731 150.283 64.5746C150.137 64.5761 149.238 64.0877 148.285 63.4895C146.869 62.6003 146.352 62.4438 145.453 62.6309C144.192 62.8936 144.197 63.4895 145.465 64.1124C147.436 65.0819 150.518 66.0398 150.615 65.714C150.672 65.5237 151.058 65.4433 151.474 65.5347C152.548 65.7719 155.919 67.8829 155.799 68.2434C155.744 68.409 156.185 68.6364 156.78 68.7482C157.375 68.8603 158.17 69.3035 158.547 69.7337C158.945 70.1877 159.43 70.4308 159.704 70.3131C160.388 70.0189 160.963 70.7079 161.186 72.0909C161.414 73.4976 161.053 73.897 159.552 73.8994C159.009 73.9 158.564 74.0286 158.563 74.1848C158.563 74.3414 159.276 75.3753 160.15 76.4825C161.023 77.5897 161.978 79.2071 162.271 80.077C164.59 86.9388 165.488 92.0572 165.445 98.1562C165.417 101.95 164.989 105.161 164.427 105.794C164.177 106.073 164.393 104.425 164.895 102.21C165.222 100.768 165.16 99.0093 164.585 93.5059C163.956 87.4899 161.835 80.3279 159.822 77.4267C158.462 75.4654 155.807 72.9746 154.438 72.3743C153.787 72.0886 151.342 71.4431 149.004 70.9398C146.666 70.4365 144.07 69.8596 143.235 69.6575C140.849 69.0797 132.986 68.8188 132.199 69.2912C130.992 70.0162 131.067 70.1462 137.082 77.7369C142.014 83.9604 141.053 84.0684 135.453 77.9204C131.352 73.4163 130.462 72.7642 128.403 72.7516C127.941 72.7488 125.066 73.4483 122.016 74.3064C116.711 75.7986 116.231 75.8735 110.998 76.0262L105.528 76.186L103.567 77.5115C102.488 78.2404 101.388 78.8361 101.122 78.8351C100.231 78.8316 99.2774 79.8941 98.3761 81.8943C97.6014 83.614 97.2785 83.9771 95.9584 84.6135C95.1205 85.0176 94.3574 85.489 94.2625 85.661C94.1677 85.833 93.7388 87.4777 93.3091 89.316C92.737 91.7655 92.2045 93.1765 91.3152 94.5995C90.4494 95.9847 90.1003 96.8933 90.0969 97.7721C90.0942 98.4495 89.8262 99.6802 89.5014 100.507C88.9707 101.859 88.9493 102.203 89.2899 103.905C89.5891 105.399 89.5908 106.125 89.2982 107.345C89.094 108.196 88.9442 109.357 88.965 109.925C89.0087 111.114 89.7063 112.508 90.2579 112.51C90.8425 112.512 91.0705 114.197 90.7333 116.02C90.4712 117.437 90.4958 117.674 90.9066 117.685C91.3138 117.696 91.3044 117.767 90.8434 118.16C90.354 118.577 90.3489 118.643 90.7921 118.838C91.0624 118.957 91.3926 118.978 91.5261 118.885C91.9146 118.616 92.5085 119.657 92.5546 120.688C92.5781 121.21 92.6978 121.819 92.8212 122.041C93.1387 122.614 91.8968 124.831 90.9403 125.399C90.2297 125.82 90.2005 125.903 90.6844 126.119C91.0441 126.28 91.4663 126.115 91.9212 125.635C92.3012 125.234 92.7741 124.906 92.9722 124.907C93.4487 124.909 93.4373 124.328 92.956 124.089C92.5614 123.893 94.0955 124.173 94.8023 124.427C95.2365 124.582 95.0259 126.514 94.5075 127.132C94.0522 127.675 94.1962 128.008 94.8869 128.011C95.5226 128.014 95.5255 128.034 94.989 128.7C94.6852 129.077 94.2524 129.385 94.0275 129.384C93.8027 129.383 93.6181 129.564 93.6173 129.785C93.6164 130.007 93.4098 130.444 93.1582 130.756C92.7408 131.274 92.7804 131.311 93.6124 131.176C94.1138 131.095 94.5245 130.891 94.5252 130.723C94.5259 130.555 94.6659 130.419 94.836 130.419C95.0199 130.42 95.0616 130.793 94.9388 131.337L94.7319 132.253L95.8183 131.322C96.4159 130.81 96.9852 130.157 97.0839 129.87C97.3612 129.062 98.6142 129.427 98.7263 130.349C98.7778 130.775 98.9475 131.124 99.1031 131.124C99.2584 131.125 99.3842 131.499 99.3824 131.957C99.3806 132.414 99.5348 132.848 99.7254 132.921C99.9302 132.999 99.7424 133.451 99.2652 134.03C98.2948 135.205 98.2302 135.721 99.0911 135.416C99.6577 135.215 99.6888 135.268 99.3824 135.91C99.1933 136.305 98.9216 136.629 98.7781 136.628C98.6347 136.627 98.4378 136.859 98.3403 137.142C98.0883 137.877 98.8322 137.788 99.6562 136.986C100.037 136.614 100.607 136.219 100.922 136.107C101.236 135.996 101.495 135.76 101.495 135.583C101.497 135.111 100.964 135.191 100.784 135.69C100.686 135.963 100.622 135.916 100.608 135.559C100.596 135.251 100.781 134.817 101.02 134.595C101.437 134.206 101.57 134.245 102.984 135.174C103.049 135.217 102.93 135.486 102.72 135.771C102.509 136.056 102.416 136.529 102.515 136.822C102.674 137.299 102.774 137.296 103.46 136.791C104.197 136.249 104.228 136.256 104.225 136.954C104.223 137.398 104.028 137.681 103.725 137.68C103.452 137.679 102.938 138.025 102.583 138.449C102.227 138.874 101.551 139.414 101.08 139.65C100.422 139.98 100.267 140.239 100.412 140.766C100.562 141.31 100.456 141.46 99.897 141.49C99.5098 141.511 99.0236 141.503 98.8165 141.471C98.6097 141.44 98.1639 141.581 97.8258 141.784C97.255 142.127 97.3347 142.269 98.9541 143.791C101.113 145.82 104.655 148.693 104.999 148.695C105.14 148.695 105.729 149.133 106.309 149.667C107.238 150.524 108.255 151.291 110.388 152.741C110.724 152.97 111.612 153.529 112.362 153.985C113.113 154.441 115.136 155.773 116.858 156.944C118.58 158.117 120.059 159.076 120.145 159.076C120.231 159.077 120.663 159.365 121.106 159.719C121.548 160.072 123.206 161.141 124.79 162.096C126.374 163.05 128.163 164.149 128.765 164.537C129.367 164.925 130.186 165.452 130.583 165.708C130.981 165.964 131.375 166.251 131.458 166.346C131.541 166.441 132.688 167.141 134.007 167.902C135.357 168.681 136.465 169.554 136.544 169.9C136.633 170.295 136.869 170.449 137.201 170.331C137.667 170.166 139.253 170.954 141.095 172.267C141.464 172.53 141.766 172.979 141.768 173.265C141.77 173.683 141.821 173.694 142.03 173.323C142.224 172.981 142.438 172.956 142.862 173.224C143.176 173.423 144.45 174.14 145.693 174.818L147.953 176.049L149.583 174.834C151.932 173.083 152.543 172.877 153.291 173.587C153.724 173.998 153.854 174.41 153.723 174.949C153.619 175.375 153.413 175.722 153.265 175.722C153.118 175.721 152.996 175.873 152.996 176.059C152.994 176.422 155.32 175.177 155.604 174.663C155.697 174.494 156.107 174.357 156.515 174.358C156.923 174.36 157.257 174.197 157.258 173.997C157.259 173.797 157.405 173.735 157.583 173.861C157.761 173.986 157.826 174.325 157.727 174.613C157.46 175.391 158.116 176.085 159.122 176.089C160.615 176.095 167.465 181.542 168.889 183.856C169.293 184.511 169.349 184.49 170.587 183.234C171.853 181.948 172.685 181.744 171.706 182.959C170.676 184.237 171.252 185.334 173.641 186.643C174.546 187.138 175.543 187.706 175.858 187.904C178.019 189.265 178.624 189.709 179.333 190.454C181.111 192.323 181.901 193.038 182.188 193.039C182.354 193.039 182.671 193.311 182.891 193.644C183.136 194.012 183.297 194.08 183.304 193.817C183.31 193.581 183.448 193.388 183.61 193.388C183.772 193.389 183.841 193.583 183.763 193.819C183.686 194.055 183.723 194.404 183.846 194.593C184.183 195.114 186.39 197.013 187.25 197.521C187.666 197.768 188.569 198.488 189.256 199.121C189.943 199.754 190.898 200.47 191.377 200.711C191.857 200.952 192.317 201.235 192.401 201.339C192.484 201.444 193.268 202.108 194.144 202.817C195.535 203.941 195.815 204.05 196.353 203.676C196.862 203.322 197.022 203.337 197.266 203.764C197.514 204.196 197.701 204.1 198.399 203.185C199.257 202.06 199.338 202.046 201.706 202.595C203.096 202.918 202.764 204.818 201.32 204.812C200.813 204.81 200.547 205.055 200.414 205.649C200.309 206.111 200.301 206.631 200.394 206.804C200.488 206.978 201.763 207.724 203.227 208.463C204.692 209.201 206.526 210.32 207.304 210.948C208.561 211.964 208.886 212.073 210.227 211.929C211.057 211.841 212.066 211.676 212.47 211.563C212.988 211.417 213.369 211.565 213.766 212.067C214.338 212.788 215.146 213.028 215.148 212.478C215.148 212.312 214.945 211.983 214.695 211.746C214.445 211.509 214.241 211.116 214.242 210.871C214.243 210.626 214.073 210.343 213.865 210.241C213.656 210.14 214.101 210.151 214.853 210.265C216.498 210.515 217.508 211.074 222.433 214.459C229.588 219.377 236.53 225.361 237.672 227.596C238.805 229.814 237.317 230.197 232.805 228.847C226.718 227.025 219.398 224.279 216.291 222.651C215.058 222.005 212.777 221.061 211.224 220.554C209.035 219.839 207.805 219.174 205.766 217.601C204.317 216.485 201.7 214.607 199.95 213.428C198.2 212.25 195.882 210.349 194.801 209.204C189.395 203.481 182.954 199.454 174.642 196.6C172.806 195.969 170.143 195.052 168.724 194.562C165.54 193.462 161.153 190.998 159.283 189.26C153.906 184.261 152.687 183.215 151.137 182.272C148.054 180.395 147.743 180.552 142.228 186.774C138.954 190.468 138.599 190.706 136.694 190.497C136.368 190.461 136.012 190.269 135.904 190.07C135.777 189.833 135.193 189.965 134.219 190.45C130.997 192.053 130.419 192.246 129.729 191.943C128.803 191.536 129.227 190.85 130.977 189.921C132.333 189.201 132.98 189.044 133.895 189.213C135.064 189.43 135.052 189.411 131.492 185.474C129.524 183.297 127.844 181.595 127.759 181.691C127.673 181.787 127.845 182.02 128.14 182.208C128.613 182.51 130.169 184.975 130.168 185.419C130.167 185.511 129.928 185.485 129.636 185.362C129.344 185.238 129.533 185.553 130.057 186.062C130.581 186.571 131.175 186.989 131.377 186.989C131.58 186.99 131.668 187.218 131.573 187.495C131.477 187.772 131.549 188.105 131.731 188.233C131.921 188.367 131.567 188.738 130.9 189.101C130.261 189.45 129.705 189.735 129.665 189.735C129.625 189.735 129.318 189.228 128.983 188.608C128.477 187.673 125.976 184.748 120.497 178.685C118.444 176.414 113.872 170.495 113.069 169.07C112.575 168.192 112.09 167.396 111.992 167.301C111.895 167.206 111.399 166.43 110.89 165.577C110.382 164.723 108.896 162.522 107.587 160.685C106.219 158.764 104.393 155.613 103.29 153.27C99.6576 145.556 97.2299 142.09 95.8686 142.675C95.1615 142.979 95.4561 144.271 96.6128 145.938C97.1001 146.641 97.4983 147.396 97.4974 147.617C97.4965 147.837 97.633 147.922 97.8006 147.806C97.9681 147.69 98.1042 147.862 98.1029 148.189C98.1016 148.515 98.1839 148.688 98.2859 148.574C98.3881 148.459 98.8164 148.731 99.2383 149.177C99.7679 149.738 99.9393 150.181 99.7918 150.611C99.6743 150.953 99.6749 151.124 99.7933 150.991C99.9975 150.762 100.822 152.231 100.82 152.819C100.817 153.535 102.215 156.589 102.585 156.675C102.898 156.748 102.841 156.986 102.357 157.63L101.713 158.487L100.766 157.279C97.39 152.976 97.3679 152.953 97.2442 153.567C97.1078 154.245 96.4985 154.404 96.5963 153.736C96.631 153.5 96.5807 153.074 96.4845 152.79C96.1169 151.702 95.7042 149.778 95.3718 147.599C95.019 145.285 94.0187 142.796 93.3391 142.54C93.0726 142.439 92.9514 142.891 92.9316 144.06L92.9038 145.722L92.3031 144.172C91.7529 142.752 91.6739 142.679 91.3663 143.308C91.1815 143.686 90.9174 144.08 90.7794 144.183C90.4533 144.429 89.8873 156.173 90.1598 157.038C90.4795 158.053 90.7412 157.245 90.9756 154.521C91.3903 149.702 91.6391 151.866 91.6153 160.085C91.5837 171.09 92.4176 178.865 93.871 181.113C94.2694 181.729 94.3083 181.726 94.9906 181.008L95.6974 180.264L95.7905 181.153C95.8417 181.642 95.8388 182.378 95.784 182.789C95.6892 183.502 95.66 183.509 95.1551 182.93C94.864 182.596 94.625 182.488 94.6242 182.691C94.6234 182.894 94.9292 183.406 95.3035 183.83C96.2277 184.876 98.251 188.862 98.4536 190.037C98.6456 191.149 98.7854 191.205 99.3368 190.39C99.8516 189.629 99.8655 189.099 99.3867 188.522C99.1784 188.271 98.7399 187.484 98.4127 186.773C98.0855 186.063 97.7122 185.48 97.5831 185.48C97.4539 185.479 97.3491 185.247 97.3502 184.963C97.3513 184.679 97.471 184.447 97.616 184.448C97.7612 184.448 97.8901 183.597 97.9024 182.557C97.9228 180.848 97.8613 180.661 97.2664 180.635C96.8383 180.615 96.7674 180.544 97.0642 180.43C97.3153 180.335 98.1016 179.963 98.8114 179.604C99.8022 179.104 100.802 178.955 103.116 178.965C106.742 178.979 107.725 179.458 109.978 182.312C112.009 184.885 113.085 186.115 114.913 187.957C116.038 189.091 116.446 189.744 116.419 190.371C116.386 191.146 118.178 197.601 121.069 207.126C122.014 210.238 123.851 215.055 124.27 215.518C125.099 216.434 127.796 222.864 128.001 224.412C128.109 225.228 128.532 227.225 128.942 228.851C130.592 235.407 131.364 242.539 131.857 255.803C132.434 271.322 133.011 275.791 135.021 280.308C135.669 281.766 136.22 283.278 136.244 283.668C136.268 284.058 136.402 284.378 136.54 284.379C136.679 284.379 137.091 284.697 137.455 285.085C137.82 285.472 138.404 285.748 138.753 285.698C140.193 285.49 141.919 287.924 141.91 290.153C141.908 290.621 141.203 292.957 140.342 295.344C138.189 301.314 137.984 302.928 138.923 306.523C140.032 310.769 142.384 324.092 142.376 326.083C142.37 327.534 141.499 328.61 140.595 328.281C139.769 327.98 137.267 323.974 134.636 318.738C129.808 309.132 128.973 306.394 127.889 296.629C127.557 293.639 127.022 289.611 126.7 287.679C126.378 285.747 125.928 281.533 125.698 278.315C125.074 269.558 123.186 258.173 121.252 251.505C120.676 249.518 119.433 242.113 119.021 238.206C118.535 233.602 117.949 230.875 117.079 229.171C116.666 228.362 115.835 226.693 115.232 225.46C110.619 216.03 105.801 207.338 103.753 204.752L102.643 203.349L100.643 203.548C97.0667 203.904 94.7143 204.47 93.4716 205.274C92.054 206.192 89.5778 206.689 85.1085 206.953C83.3529 207.057 81.2327 207.376 80.3968 207.662C77.5304 208.645 69.9386 207.452 68.4835 205.791C68.0748 205.325 67.7963 204.588 67.7987 203.98C67.8009 203.416 67.6814 202.588 67.5328 202.14C67.2565 201.306 64.87 199.34 60.8384 196.625C57.5298 194.396 54.2882 191.554 52.132 188.989C51.0921 187.752 50.2419 186.666 50.2422 186.575C50.2439 186.159 48.143 182.485 47.1346 181.141C46.5191 180.32 46.0163 179.371 46.0176 179.033C46.019 178.685 46.7511 177.811 47.6969 177.026C49.9896 175.123 49.9814 174.333 47.642 171.676C46.6851 170.59 45.391 169.331 44.7661 168.879C43.6117 168.042 43.3868 167.587 43.9395 167.203C44.246 166.991 43.6063 166 43.1615 165.998C42.8515 165.997 42.144 164.868 42.1347 164.36C42.1302 164.123 42.3318 163.93 42.5825 163.931C43.1836 163.934 43.1643 163.804 42.3389 162.289C41.9533 161.582 41.5435 160.71 41.4276 160.351C41.312 159.992 41.1301 159.796 41.0236 159.916C40.7755 160.195 40.017 159.486 40.019 158.976C40.02 158.723 40.8657 158.581 42.4499 158.568C44.6607 158.549 46.2483 158.219 48.1685 157.38C49.5371 156.782 49.9272 157.021 50.8322 159.011C51.99 161.556 53.953 163.284 56.2807 163.807C57.4682 164.074 58.4803 163.64 59.7798 162.307C61.2645 160.784 62.4493 160.874 64.1273 162.639C64.8491 163.399 65.8563 164.914 66.3655 166.007C66.8745 167.099 67.641 168.368 68.0683 168.827C68.4959 169.285 68.845 169.839 68.8441 170.059C68.8415 170.717 70.5112 172.207 71.5434 172.468C72.4368 172.695 72.6331 172.558 74.2493 170.592L75.9916 168.472L77.7805 169.243C78.8305 169.695 79.9565 170.495 80.506 171.178C81.5278 172.449 81.9009 172.622 81.904 171.828C81.9051 171.544 81.7693 171.311 81.6022 171.31C81.435 171.31 81.2995 171.012 81.3009 170.65C81.3023 170.287 80.7244 169.423 80.017 168.729C79.177 167.905 78.9499 167.538 79.3626 167.67C79.8346 167.822 80.0817 167.659 80.3385 167.029C80.6481 166.268 80.7805 166.217 81.6806 166.513C82.938 166.927 83.1389 166.926 83.1405 166.503C83.1413 166.317 83.3755 165.857 83.6615 165.482C84.0738 164.941 84.1926 164.038 84.2373 161.094C84.2684 159.055 84.4455 156.536 84.631 155.496C84.8165 154.456 85.0472 152.753 85.1437 151.713L85.3192 149.821L84.6687 151.251C84.292 152.079 83.8584 152.61 83.6381 152.514C83.4288 152.422 83.1668 152.512 83.0557 152.713C82.6851 153.386 82.4343 153.089 82.364 151.893C82.3255 151.241 82.4307 150.613 82.5974 150.498C82.7641 150.382 82.9016 150.037 82.9028 149.732C82.9045 149.282 82.7637 149.325 82.1674 149.954C81.6935 150.454 81.0208 152.131 80.2867 154.643C79.3146 157.969 78.7634 159.182 76.5942 162.767C75.1917 165.084 73.545 167.946 72.935 169.126C72.325 170.306 71.6797 171.271 71.501 171.271C70.9774 171.269 68.8192 168.498 69.0356 168.106C69.1645 167.872 69.3348 167.91 69.5257 168.215C69.7449 168.566 69.7736 168.525 69.6403 168.052C69.5423 167.706 69.4628 167.279 69.4635 167.106C69.4642 166.932 69.2614 166.789 69.0129 166.788C68.7646 166.787 68.3698 166.261 68.1362 165.62C67.9023 164.978 67.3202 164.19 66.8428 163.868C65.6163 163.041 64.4325 160.927 64.978 160.539C65.6907 160.032 65.9888 160.199 67.3743 161.879C69.5061 164.464 70.1912 165.75 70.2547 167.286C70.2863 168.056 70.3243 168.834 70.3393 169.015C70.3788 169.495 73.1129 166.4 73.1149 165.872C73.1159 165.628 73.2534 165.428 73.4206 165.429C73.5877 165.43 73.7251 165.274 73.7258 165.083C73.7266 164.892 74.1744 164 74.7212 163.102C75.2681 162.203 75.9806 160.93 76.305 160.273C76.6291 159.615 77.033 158.974 77.2025 158.847C77.4021 158.698 77.3722 158.426 77.1177 158.076C76.771 157.599 76.6248 157.688 75.8856 158.819C75.4239 159.525 74.4336 160.741 73.6845 161.521C72.6483 162.601 72.2039 162.864 71.8268 162.623C71.554 162.449 71.4093 162.078 71.5049 161.8C71.7247 161.16 71.5035 161.162 70.3808 161.813C69.3797 162.394 69.3621 162.375 69.7787 161.15C70.0609 160.321 70.0391 160.297 69.2827 160.619C68.1948 161.083 68.0517 160.771 69.0242 160.055C69.4716 159.726 69.7588 159.258 69.6723 158.998C69.5849 158.737 69.7124 158.533 69.9625 158.534C70.4904 158.536 70.5563 157.991 70.0697 157.647C69.8363 157.483 69.8875 157.306 70.2302 157.09C70.5065 156.917 70.6586 156.638 70.5681 156.471C70.4776 156.303 70.8951 155.305 71.4958 154.251C72.0965 153.198 72.5052 152.183 72.4045 151.996C72.3034 151.81 72.435 151.565 72.6968 151.453C73.1915 151.24 73.3714 150.29 72.9172 150.288C72.6631 150.287 67.6272 154.369 64.3547 157.228C63.4423 158.026 62.2765 158.918 61.7639 159.211C60.3854 160.001 59.4022 160.655 58.5836 161.328C57.6151 162.124 56.926 162.08 55.6598 161.144C54.5981 160.359 54.3151 159.849 54.9429 159.851C55.1787 159.852 55.1678 159.693 54.9078 159.335C54.6334 158.958 54.6273 158.818 54.8852 158.819C55.7768 158.822 58.2469 157.248 58.2549 156.671C58.2596 156.334 58.5003 155.956 58.7894 155.832C59.0786 155.708 59.5932 155.289 59.9327 154.901C60.2721 154.514 60.9161 153.966 61.3639 153.684C62.3771 153.045 65.2767 149.981 65.2784 149.547C65.2791 149.37 65.0062 149.225 64.6719 149.224C63.8326 149.22 63.9126 148.722 64.8277 148.255C65.2463 148.041 65.5898 147.643 65.5908 147.371C65.5919 147.099 65.7638 146.808 65.9732 146.724C66.75 146.414 65.8717 146.052 63.5652 145.732C62.2365 145.548 57.7958 145.493 53.4739 145.605C47.97 145.749 45.8138 145.7 45.9598 145.436C46.0722 145.232 45.9239 144.911 45.6299 144.723C45.3362 144.535 45.166 144.303 45.2515 144.206C45.5173 143.908 47.9746 144.412 47.7999 144.729C47.7093 144.893 47.9853 145.029 48.4128 145.031C48.8404 145.033 49.1911 144.882 49.1918 144.697C49.1926 144.495 49.7416 144.446 50.5597 144.577C51.4325 144.716 51.9269 144.663 51.9278 144.432C51.9285 144.233 51.7584 143.991 51.55 143.895C51.3413 143.799 51.4787 143.709 51.8547 143.695C52.2306 143.682 52.5391 143.516 52.5399 143.327C52.5406 143.138 53.0198 142.985 53.6048 142.987C54.3475 142.99 54.669 142.836 54.6704 142.475C54.6728 141.862 54.8831 141.859 58.6211 142.423C60.7543 142.745 62.1402 142.767 63.9387 142.507C65.8126 142.235 66.1619 142.107 65.4603 141.948C64.9593 141.835 63.5945 141.332 62.4271 140.829C61.26 140.328 59.9282 139.915 59.4679 139.914C59.0075 139.912 58.6316 139.756 58.6323 139.566C58.6331 139.377 59.3776 139.225 60.2871 139.229C61.1966 139.232 62.0256 139.081 62.1296 138.892C62.2337 138.703 63.0563 138.552 63.9573 138.555C64.8586 138.559 66.3844 138.332 67.3479 138.052C68.3117 137.772 69.6183 137.545 70.2516 137.548C70.8852 137.55 71.4039 137.391 71.4047 137.194C71.4076 136.452 69.5059 132.696 68.9578 132.36C68.6434 132.169 68.381 131.823 68.3743 131.593C68.3679 131.363 67.4814 129.701 66.4045 127.899C63.0581 122.299 61.7722 120.014 60.9169 118.149C60.4628 117.158 60.0105 116.27 59.9115 116.175C59.7362 116.007 57.137 110.568 56.4946 109.025C56.3176 108.6 56.0704 108.251 55.9449 108.249C55.8194 108.247 55.7176 108.094 55.7183 107.908C55.7191 107.722 55.2444 106.722 54.6635 105.684C54.0826 104.646 53.6077 103.706 53.6082 103.594C53.6086 103.482 53.0577 102.557 52.384 101.538C50.8821 99.2662 50.1478 98.8288 49.3069 99.7045C48.5172 100.527 45.1287 103.043 44.8127 103.041C44.6373 103.041 44.4933 103.195 44.4926 103.384C44.4918 103.573 44.2861 103.727 44.0354 103.726C43.7847 103.725 43.5791 103.853 43.5784 104.011C43.5778 104.168 43.2005 104.515 42.7397 104.781C42.2789 105.047 41.8335 105.343 41.7495 105.437C41.6656 105.532 41.3226 105.804 40.9874 106.041C38.4198 107.86 37.4281 108.659 37.0988 109.171C36.8897 109.497 36.4731 109.867 36.1733 109.992C35.6917 110.193 35.7975 110.512 37.0808 112.725C40.4749 118.58 40.3596 120.304 36.8448 116.256C34.1171 113.115 33.9525 113.163 31.8585 117.699C30.0127 121.697 27.2166 126.124 26.431 126.292C25.4605 126.5 25.5387 125.233 26.6576 122.61C28.0194 119.418 29.0216 116.356 29.8159 112.96C30.9024 108.314 31.2812 107.815 36.5863 104.041C38.0417 103.006 39.7669 101.697 40.4203 101.132C41.4912 100.206 43.5262 98.6138 44.796 97.7084C45.0599 97.5202 45.9179 96.8654 46.7025 96.2536C47.4871 95.6416 48.2588 95.1416 48.4172 95.1422C48.5755 95.1428 48.8858 94.8987 49.107 94.5996C49.3893 94.2174 49.785 94.1196 50.4368 94.2697C50.9472 94.3873 51.6225 94.5307 51.9374 94.5884C52.6227 94.7143 53.3489 95.7527 53.1521 96.3262C53.0731 96.5568 53.4795 96.9296 54.0814 97.1787C54.6696 97.4225 55.1507 97.7279 55.1505 97.8576C55.15 97.9873 55.6351 98.7145 56.2287 99.4738C56.8222 100.233 58.2796 102.329 59.467 104.131C60.6548 105.934 61.8189 107.634 62.0542 107.91C62.4254 108.346 62.4535 108.309 62.2677 107.636C62.1437 107.186 62.2041 106.658 62.4116 106.377C62.6587 106.042 62.708 105.11 62.5708 103.367C62.4059 101.276 62.4556 100.764 62.8594 100.388C63.1275 100.138 63.3482 99.5913 63.3498 99.1729C63.3539 98.1325 63.6182 97.9209 64.3064 98.4077C64.7755 98.7392 64.9482 98.7192 65.1914 98.3049C65.4548 97.8562 65.5335 97.8676 65.8046 98.3933C66.1408 99.0456 68.2115 99.2753 68.2139 98.6609C68.2147 98.4716 68.4058 98.3176 68.6386 98.3185C69.0731 98.3202 69.4336 97.6097 69.437 96.7451C69.4381 96.4768 69.2323 96.2565 68.9798 96.2555C68.1942 96.2524 65.798 94.8144 65.7999 94.3471C65.8009 94.0987 66.4721 93.724 67.3226 93.4964C69.2604 92.9784 69.4454 92.0047 67.7105 91.4518C66.1572 90.9565 66.0231 90.9828 66.197 91.7493C66.2836 92.1323 66.1703 92.4924 65.9302 92.5957C65.7003 92.6942 65.5855 92.9935 65.6747 93.2605C65.7642 93.5275 65.6089 93.8441 65.3298 93.9641C64.9371 94.1328 64.8648 94.4432 65.0095 95.3391C65.1676 96.3178 65.0803 96.5814 64.4421 97.0509C63.746 97.5629 63.6664 97.5626 63.4135 97.0458C63.0783 96.3609 63.4962 94.1075 64.1736 92.948C64.4409 92.4901 64.5879 91.8995 64.4999 91.6367C64.4119 91.3735 64.5415 90.5599 64.7884 89.8287C65.035 89.0976 65.3149 88.2395 65.4101 87.9217C65.5169 87.566 65.767 87.4245 66.0612 87.554C66.4244 87.7134 66.4892 87.6149 66.3315 87.1432C66.0267 86.2317 66.4596 83.2411 66.9257 83.0409C67.1664 82.9376 67.6329 83.4666 68.0934 84.3647C69.4245 86.9614 71.648 88.5742 72.7862 87.768C73.6163 87.1802 73.3595 86.1749 72.2161 85.5353C71.6324 85.2088 70.9951 85.0016 70.7997 85.0748C70.2544 85.2791 70.059 84.2792 70.4819 83.4489C71.2043 82.0315 71.7822 81.5273 72.8094 81.4178C74.0233 81.2888 74.7831 80.2809 74.0622 79.7561C73.7092 79.4991 73.7004 79.4244 74.0219 79.4215C74.3285 79.419 74.3844 79.1267 74.2363 78.299C74.1263 77.6838 74.0494 76.6103 74.0652 75.9144C74.081 75.218 73.9548 74.5504 73.7851 74.4307C73.6154 74.3106 73.4788 73.5859 73.4818 72.82C73.4859 71.7737 73.5919 71.4731 73.908 71.6119C74.2108 71.7449 74.2831 71.5955 74.166 71.0793C74.0301 70.4805 74.1116 70.3944 74.6582 70.5586C75.1599 70.7096 75.3138 70.6022 75.3158 70.0995C75.3172 69.7389 75.4551 69.4443 75.6223 69.4449C75.7894 69.4456 75.927 69.2328 75.928 68.972C75.929 68.7116 76.1544 68.2889 76.4292 68.033C76.7037 67.7771 77.1768 66.9181 77.4811 66.1245C77.7851 65.3309 78.4569 64.258 78.9741 63.7406C80.0117 62.7021 79.9262 62.4231 78.4622 62.0678C77.5056 61.8355 77.037 62.3123 77.852 62.6888C78.0604 62.7849 77.9233 62.8749 77.5474 62.8882C77.1714 62.9015 76.8629 63.0675 76.8622 63.2567C76.8614 63.446 76.7241 63.6002 76.5569 63.5996C76.1017 63.5978 76.1908 63.1223 76.7898 62.3564C77.4479 61.5147 78.0366 60.5044 78.2672 59.8217C78.8028 58.2342 79.6102 57.5565 79.6273 58.6803C79.6326 59.0271 80.0221 60.1296 80.4934 61.1303C81.1272 62.4767 81.4003 62.8033 81.5436 62.3861C81.7006 61.9288 81.8223 61.9028 82.1877 62.249C82.4354 62.4836 82.6386 62.5831 82.639 62.4699C82.6395 62.3567 82.9848 62.4145 83.4067 62.5979C84.1127 62.9051 84.1477 62.8771 83.8497 62.2401C83.495 61.4817 83.6843 60.8752 84.2753 60.8775C84.4835 60.8784 85.5303 60.1858 86.6018 59.3384C87.6733 58.4911 88.7968 57.7988 89.0982 57.8C89.4 57.8012 89.6474 57.6284 89.6482 57.4161C89.6493 57.1406 89.7612 57.1355 90.0385 57.3977C90.5668 57.8983 91.3068 57.3387 91.0665 56.6204C90.9605 56.3031 91.0019 56.1398 91.1604 56.2516C91.5613 56.5343 92.0876 55.2995 92.0925 54.0653C92.0947 53.4939 91.779 52.0221 91.3909 50.795C90.9873 49.5183 90.7891 48.3749 90.928 48.1226C91.0988 47.8129 91.2714 47.9846 91.508 48.6984C91.6933 49.2576 92.0309 50.1827 92.2578 50.7541C92.4849 51.3254 92.8346 52.4491 93.0347 53.2512C93.4619 54.9625 94.0508 55.6509 95.6343 56.2889C96.6634 56.7037 96.8361 56.6913 97.1872 56.1763C97.4046 55.8578 97.6591 55.6555 97.7524 55.7268C97.846 55.798 98.5263 55.2891 99.2644 54.5963C100.469 53.4653 102.52 52.7068 104.39 52.7014C104.548 52.701 104.515 52.5141 104.316 52.2862C103.746 51.6365 103.891 51.252 104.608 51.5125C105.127 51.7014 105.222 51.6361 105.074 51.1934C104.637 49.8863 105.764 49.0072 106.348 50.1999C106.615 50.7474 106.75 50.731 108.183 49.9784C109.562 49.2537 109.821 49.2162 110.567 49.6317C111.028 49.8877 111.541 50.1131 111.708 50.1323C111.875 50.1515 111.978 50.5115 111.937 50.9321C111.895 51.3527 111.907 51.6968 111.963 51.6971C112.248 51.6982 113.998 50.5855 114.152 50.3054C114.358 49.9305 115.657 49.1542 116.652 48.8113C117.209 48.6191 117.336 48.7077 117.333 49.2868C117.329 50.3086 118.379 50.1978 120.222 48.9813C124.107 46.4158 126.384 45.5357 125.963 46.7613C125.866 47.0437 125.664 47.1888 125.515 47.0833C125.366 46.9781 125.243 47.0633 125.242 47.2732C125.242 47.4827 124.683 48.596 124.002 49.7476C123.226 51.0578 122.836 52.0472 122.958 52.3931C123.116 52.8393 123.21 52.7818 123.446 52.096C123.606 51.6291 123.834 51.1655 123.951 51.0658C124.069 50.9665 124.372 50.4213 124.625 49.8546C124.878 49.2879 125.394 48.4401 125.771 47.9703C126.149 47.5007 126.459 47.0234 126.459 46.9095C126.461 46.4839 128.974 45.88 129.836 46.0981C130.328 46.2225 131.121 46.6991 131.598 47.1572C132.425 47.9511 132.516 47.9662 133.555 47.4797C134.154 47.1992 135.298 46.977 136.097 46.9864C137.397 47.0011 137.492 47.0528 136.997 47.4747C136.692 47.7343 135.836 48.1469 135.094 48.3917C133.753 48.834 133.471 49.1422 134.04 49.5439C134.415 49.8083 138.609 48.4337 138.61 48.046C138.611 47.8884 139.033 47.6658 139.549 47.5508C140.064 47.4362 140.716 47.0263 140.996 46.6396C141.44 46.0265 141.66 45.9792 142.719 46.2686C143.783 46.5591 143.849 46.6302 143.249 46.8408C142.873 46.9728 142.563 47.2906 142.562 47.5462C142.561 47.8022 142.378 47.9311 142.154 47.8329C141.931 47.7346 141.571 47.8929 141.356 48.1845C141.14 48.4764 140.77 48.7141 140.533 48.7131C140.296 48.7122 139.554 49.0255 138.884 49.4092C138.214 49.7926 136.793 50.1954 135.727 50.3037C133.815 50.4981 133.794 50.5122 134.117 51.3251C134.298 51.7786 134.524 52.01 134.621 51.8401C134.971 51.2273 139.123 50.4602 142.33 50.4161C145.076 50.3781 145.548 50.2939 145.258 49.8947C144.98 49.5127 145.055 49.4177 145.633 49.4138C146.029 49.4112 146.697 49.1077 147.116 48.7391C147.976 47.9835 148.665 47.8799 149.149 48.433C149.386 48.7033 149.536 48.7039 149.684 48.4351C149.797 48.2298 149.779 48.0553 149.644 48.0475C149.508 48.0394 149.859 47.8086 150.422 47.5345C152.336 46.6031 163.532 47.1688 163.528 48.1969C163.527 48.3538 163.834 48.6354 164.209 48.8227C164.816 49.1258 164.79 49.1453 163.98 48.9996C163.479 48.9096 162.25 48.6577 161.248 48.4397C160.246 48.2221 158.187 48.096 156.672 48.1599C154.25 48.2618 153.747 48.3978 152.49 49.2894C151.705 49.8468 151.106 50.4579 151.159 50.6474C151.213 50.8368 151.793 51.0882 152.448 51.2057C153.103 51.3235 153.57 51.4568 153.487 51.5022C153.403 51.5477 149.573 51.6853 144.977 51.8079C137.178 52.0163 136.537 52.0812 135.401 52.781L134.182 53.5314L135.246 53.356C135.832 53.2596 140.14 53.0419 144.821 52.8718C150.848 52.6527 153.949 52.3962 155.45 51.9924C157.023 51.5692 157.415 51.3574 156.973 51.1706C156.557 50.9955 156.745 50.9219 157.591 50.9287C159.733 50.9451 162.607 50.4376 162.609 50.0426C162.61 49.82 163.213 49.651 164.054 49.6382C164.848 49.6261 166.087 49.5244 166.807 49.4123C168.52 49.1459 173.477 47.1847 174.566 46.3426C175.035 45.9797 175.686 45.7628 176.011 45.8607C176.645 46.0511 178.119 45.4307 178.124 44.9704C178.126 44.8173 178.27 44.7924 178.444 44.9152C178.618 45.038 178.926 44.9845 179.128 44.7968C179.378 44.5645 179.764 44.6152 180.33 44.9546ZM182.774 45.1308C182.533 45.402 182.279 45.4037 181.878 45.1376C181.387 44.8119 181.429 44.7653 182.215 44.7591C182.868 44.7541 183.02 44.8548 182.774 45.1308ZM147.143 45.8364C147.502 46.3301 147.469 46.3837 146.871 46.2767C146.497 46.2099 146.186 46.0039 146.181 45.8195C146.165 45.2404 146.717 45.2501 147.143 45.8364ZM128.974 46.6349C129.269 46.8311 129.421 47.1541 129.312 47.3522C129.203 47.5506 129.297 47.8428 129.522 48.0016C129.84 48.2254 129.797 48.3381 129.331 48.5035C129.001 48.6209 128.498 48.8563 128.212 49.0269C127.52 49.4401 127.188 48.7989 127.72 48.075C128.086 47.5762 128.058 47.5613 127.443 47.929C127.066 48.1546 126.758 48.2353 126.758 48.1083C126.759 47.9047 128.223 46.24 128.377 46.2671C128.41 46.2731 128.679 46.4386 128.974 46.6349ZM147.579 47.0206C147.681 47.2103 147.62 47.3648 147.443 47.3641C147.266 47.3634 147.122 47.2081 147.123 47.0188C147.124 46.8296 147.184 46.675 147.258 46.6753C147.332 46.6756 147.476 46.831 147.579 47.0206ZM162.078 49.714C161.869 49.8088 161.527 49.8075 161.319 49.711C161.11 49.6149 161.281 49.5374 161.699 49.5391C162.117 49.5407 162.287 49.6195 162.078 49.714ZM117.544 51.6533C117.749 51.8014 117.952 52.2846 117.996 52.7269C118.065 53.4191 117.72 53.7339 115.515 54.9934C114.107 55.7978 112.463 56.5245 111.862 56.6081C110.402 56.8119 108.795 57.556 108.058 58.3695C107.594 58.8827 107.426 58.9268 107.321 58.5641C107.246 58.3058 107.458 57.8459 107.792 57.542C108.126 57.2382 108.639 56.1822 108.933 55.1952C109.227 54.2086 109.721 53.2485 110.031 53.0622C110.796 52.6028 112.258 52.6409 112.687 53.1312C112.954 53.4354 113.474 53.2716 114.844 52.4516C116.778 51.2953 116.972 51.2379 117.544 51.6533ZM112.379 53.9915C112.857 54.2122 112.563 54.796 111.976 54.7937C111.735 54.7927 111.539 54.5597 111.54 54.2758C111.542 53.7453 111.717 53.6861 112.379 53.9915ZM121.242 54.7875C121.699 55.7634 121.682 55.7984 120.459 56.3709C119.251 56.9362 118.064 57.0888 118.767 56.5879C118.99 56.4294 119.127 55.8609 119.076 55.3044C118.994 54.406 119.083 54.2949 119.953 54.203C120.67 54.1271 121.004 54.2788 121.242 54.7875ZM104.84 56.9159C104.829 57.6391 104.328 58.2912 103.732 58.3562C102.777 58.4612 101.514 59.1705 99.7382 60.5982C98.8035 61.3501 97.9637 61.8794 97.872 61.7748C97.7803 61.6702 98.4773 60.7825 99.4205 59.8022C101.92 57.2044 102.186 56.9884 102.755 57.0997C103.038 57.1551 103.359 57.0387 103.468 56.841C103.746 56.3353 104.847 56.3957 104.84 56.9159ZM160.373 58.3242C160.58 58.8346 160.748 59.619 160.746 60.068C160.741 61.3792 159.942 60.2083 159.789 58.6653C159.64 57.1605 159.851 57.0375 160.373 58.3242ZM156.252 58.2997C156.032 58.3983 155.77 58.3849 155.669 58.2703C155.569 58.1556 155.749 58.0751 156.069 58.0912C156.423 58.1091 156.495 58.1909 156.252 58.2997ZM122.514 59.887C122.295 59.9856 122.033 59.9722 121.932 59.8576C121.832 59.7429 122.012 59.6624 122.332 59.6785C122.686 59.6964 122.757 59.7782 122.514 59.887ZM128.893 60.6003C128.674 60.6989 128.412 60.6855 128.311 60.5708C128.211 60.4562 128.39 60.3757 128.71 60.3918C129.064 60.4097 129.136 60.4915 128.893 60.6003ZM125.644 61.1067C125.309 61.3194 124.924 61.7001 124.789 61.9528C124.655 62.2058 124.416 62.412 124.258 62.4114C124.1 62.4108 124.27 62.0244 124.635 61.5527C125 61.0811 125.514 60.7009 125.776 60.7074C126.136 60.7167 126.104 60.8143 125.644 61.1067ZM79.2765 61.4025C79.2604 61.8032 79.188 61.8845 79.0922 61.6099C79.0053 61.3612 79.0174 61.0643 79.1188 60.9504C79.2201 60.8366 79.291 61.0399 79.2765 61.4025ZM82.9397 63.2807C82.939 63.4699 82.7332 63.6239 82.4825 63.623C82.2318 63.622 82.0273 63.4663 82.0281 63.2771C82.0288 63.0879 82.2346 62.9339 82.4852 62.9348C82.7359 62.9358 82.9405 63.0915 82.9397 63.2807ZM76.4712 64.2292C76.6761 64.3738 76.7211 64.6682 76.5778 64.9277C76.3859 65.2762 76.2861 65.2435 76.1317 64.7818C75.8917 64.0645 75.9966 63.8943 76.4712 64.2292ZM84.0442 64.8481C84.3097 65.6415 84.0658 65.6839 83.4117 64.9585C82.8892 64.3791 82.8828 64.3126 83.3477 64.3145C83.633 64.3156 83.9463 64.5556 84.0442 64.8481ZM75.7654 65.2707C75.8955 65.511 75.9192 65.8001 75.8185 65.9132C75.5453 66.2201 75.2505 65.7661 75.3996 65.2678C75.5037 64.9187 75.5754 64.919 75.7654 65.2707ZM75.1582 66.5898C75.321 67.0807 75.2862 67.1202 74.9873 66.7818C74.7804 66.5474 74.6882 66.2694 74.7822 66.1641C74.8762 66.0585 75.0453 66.2501 75.1582 66.5898ZM78.8938 68.5977C78.8121 69.0704 78.8725 69.4577 79.0281 69.4584C79.6647 69.4609 79.0581 71.0288 78.2538 71.4598C77.7824 71.7122 77.3216 72.1377 77.23 72.405C76.9797 73.1341 76.6077 72.9895 76.462 72.1065C76.3911 71.6758 76.5821 70.8638 76.8864 70.3018C77.1906 69.7398 77.6013 68.9325 77.7987 68.5073C78.3023 67.4231 79.0857 67.4875 78.8938 68.5977ZM71.3389 76.805C71.3377 77.0999 71.2 77.3409 71.0329 77.3402C70.8658 77.3396 70.7296 77.1935 70.7303 77.0153C70.731 76.8371 70.8687 76.5964 71.0363 76.4801C71.2039 76.3638 71.3401 76.5102 71.3389 76.805ZM75.2167 84.2059C75.5216 84.4222 75.5353 84.5616 75.2702 84.7456C74.8521 85.0357 74.5402 84.7761 74.6965 84.2686C74.7606 84.0603 74.9752 84.0347 75.2167 84.2059ZM73.7342 100.294C73.5147 100.392 73.2525 100.379 73.1521 100.264C73.0516 100.15 73.2312 100.069 73.5515 100.085C73.9054 100.103 73.9771 100.185 73.7342 100.294ZM164.183 106.781C164.182 106.97 163.917 107.665 163.595 108.327C163.272 108.988 163.008 109.374 163.009 109.184C163.01 108.995 163.274 108.299 163.597 107.638C163.92 106.977 164.184 106.591 164.183 106.781ZM76.739 108.907C76.5195 109.006 76.2573 108.992 76.1569 108.878C76.0565 108.763 76.2361 108.683 76.5563 108.699C76.9103 108.717 76.982 108.798 76.739 108.907ZM72.728 109.853C72.7277 109.943 72.1533 110.328 71.452 110.708C69.8754 111.562 68.3026 111.612 68.0365 110.817C67.7641 110.002 68.2981 109.531 68.7657 110.175C68.9784 110.467 69.375 110.695 69.647 110.681C69.965 110.665 70.0057 110.593 69.7609 110.481C68.9722 110.117 69.7805 109.677 71.2272 109.683C72.0532 109.686 72.7284 109.762 72.728 109.853ZM66.9604 110.538C67.4854 111.26 67.0439 111.643 66.4576 110.974C66.1747 110.652 66.1033 110.347 66.2815 110.224C66.4461 110.109 66.7515 110.251 66.9604 110.538ZM148.29 116.186C149.951 117.789 152 120.349 151.998 120.819C151.997 120.925 151.754 121.01 151.457 121.009C151.16 121.008 150.642 121.223 150.305 121.488C149.969 121.752 148.877 122.279 147.878 122.658C144.504 123.937 139.066 126.111 138.453 126.424C136.236 127.558 134.775 128.206 132.365 129.122C130.858 129.694 129.352 130.27 129.017 130.4C128.418 130.633 128.419 130.628 129.027 130.114C129.368 129.826 130.807 129.106 132.224 128.514C133.642 127.921 135.624 127.062 136.629 126.604C137.634 126.147 138.695 125.774 138.987 125.776C139.28 125.777 139.521 125.663 139.523 125.521C139.526 125.247 140.975 124.408 141.441 124.41C141.943 124.412 144.091 122.307 144.093 121.811C144.094 121.543 144.283 121.325 144.514 121.326C144.744 121.326 145.103 121.096 145.312 120.813C145.624 120.391 145.603 120.298 145.2 120.296C144.775 120.294 144.542 119.507 144.672 118.509C144.688 118.378 144.445 118.178 144.13 118.063C143.173 117.715 143.197 116.982 144.205 115.824C144.867 115.063 145.205 114.866 145.295 115.187C145.501 115.923 148.478 118.933 149 118.935C149.464 118.937 148.854 117.88 147.449 116.247C146.748 115.431 146.241 114.689 146.322 114.597C146.404 114.506 147.289 115.221 148.29 116.186ZM83.0947 115.469C82.8752 115.568 82.613 115.555 82.5125 115.44C82.4121 115.325 82.5917 115.245 82.912 115.261C83.2659 115.279 83.3376 115.361 83.0947 115.469ZM81.8956 116.146C81.6862 116.24 81.3443 116.239 81.1359 116.143C80.9272 116.046 81.0986 115.969 81.5165 115.971C81.9343 115.972 82.1048 116.051 81.8956 116.146ZM143.193 117.794C143.189 117.936 143.053 118.283 142.89 118.567C142.65 118.983 142.593 118.933 142.592 118.307C142.591 117.882 142.727 117.534 142.894 117.535C143.061 117.535 143.196 117.652 143.193 117.794ZM132.861 118.137C132.859 118.257 131.933 119.002 130.803 119.793C129.674 120.584 128.237 121.768 127.61 122.424C126.984 123.08 126.401 123.487 126.315 123.327C126.14 123.004 124.643 123.681 124.638 124.086C124.636 124.228 124.491 124.343 124.314 124.342C124.138 124.342 123.555 124.809 123.019 125.381C122.104 126.356 117.485 129.084 115.801 129.644L115.04 129.896L115.69 129.082C116.047 128.634 116.576 127.649 116.865 126.894C117.658 124.823 118.312 123.542 119.005 122.704C120.097 121.384 120.361 120.964 120.208 120.79C120.024 120.58 121.584 119.171 121.998 119.172C122.163 119.173 122.127 119.405 121.918 119.688C121.608 120.108 121.625 120.203 122.01 120.205C122.269 120.206 122.527 119.859 122.581 119.433C122.668 118.764 122.888 118.647 124.202 118.569C125.037 118.519 125.927 118.382 126.178 118.263C126.791 117.974 132.866 117.859 132.861 118.137ZM134.068 118.446C134.054 118.796 129.807 122.067 129.629 121.865C129.552 121.776 129.992 121.259 130.607 120.715C131.223 120.172 131.884 119.573 132.077 119.384C132.504 118.967 133.708 118.186 133.923 118.187C134.009 118.188 134.074 118.304 134.068 118.446ZM137.41 119.135C136.578 119.783 136.395 119.943 135.284 120.993C133.993 122.213 130.694 123.794 130.323 123.371C129.912 122.902 130.22 122.547 131.099 122.477C131.476 122.447 131.715 122.347 131.632 122.254C131.397 121.992 132.235 121.178 134.155 119.8C135.369 118.929 136.261 118.541 137.038 118.544L138.163 118.548L137.41 119.135ZM157.155 123.13C158.072 123.69 159.162 124.698 159.577 125.369C159.992 126.041 160.47 126.775 160.639 127.001C161.754 128.492 164.879 133.8 165.145 134.653C165.322 135.222 165.583 135.894 165.725 136.148C165.868 136.404 165.866 136.732 165.719 136.886C165.079 137.561 134.184 137.839 125.495 137.247L120.179 136.886L126.561 136.695C133.386 136.491 133.222 136.528 137.815 134.204C143.741 131.205 148.367 128.314 150.755 126.115C151.338 125.579 151.955 125.133 152.126 125.127C152.297 125.12 152.888 124.426 153.44 123.584C153.992 122.742 154.678 122.066 154.965 122.083C155.253 122.099 156.238 122.571 157.155 123.13ZM85.7468 122.049C85.745 122.505 84.5744 122.829 84.3602 122.432C84.2673 122.261 84.325 122.12 84.4882 122.121C84.6517 122.122 85.0018 122.029 85.2666 121.915C85.5315 121.801 85.7476 121.862 85.7468 122.049ZM38.0997 122.909C38.5389 123.108 38.4792 123.236 37.7191 123.726C36.8618 124.278 36.8031 124.276 36.5196 123.669C36.1037 122.78 36.9349 122.38 38.0997 122.909ZM129.499 123.638C129.498 123.993 128.757 124.36 128.046 124.357C127.643 124.356 127.661 124.268 128.149 123.853C128.817 123.285 129.501 123.176 129.499 123.638ZM48.5135 124.044C48.6161 124.233 49.0336 124.39 49.4417 124.391C49.8498 124.393 50.1829 124.549 50.1821 124.738C50.1814 124.928 50.4202 125.086 50.7125 125.09C51.1671 125.096 51.1778 125.146 50.7872 125.429C50.4175 125.697 50.461 125.762 51.0137 125.769C51.3896 125.773 51.6968 125.938 51.696 126.136C51.6951 126.356 52.1385 126.424 52.8349 126.312C53.4619 126.211 53.8037 126.218 53.5945 126.328C52.9155 126.684 53.186 127.04 54.5015 127.521C55.6133 127.928 55.6883 128.011 55.0445 128.127C54.312 128.259 51.138 127.388 50.1024 126.77C49.8129 126.598 49.3248 126.455 49.0182 126.454C48.2348 126.451 45.6213 125.397 45.6225 125.085C45.6265 124.087 48.0625 123.209 48.5135 124.044ZM39.5477 124C39.9364 124.281 39.9144 124.4 39.3924 124.843C38.6777 125.45 38.3277 125.513 38.3296 125.036C38.3303 124.846 38.4823 124.692 38.6673 124.693C38.8524 124.694 38.9259 124.462 38.8307 124.178C38.6337 123.588 38.8895 123.525 39.5477 124ZM86.19 125.264C89.0537 125.521 89.6071 125.669 90.0589 126.299C90.7059 127.201 90.4648 127.785 89.6766 127.222C88.9242 126.686 88.56 127.11 89.099 127.894C89.483 128.452 89.4727 128.464 88.9827 128.025C88.6872 127.76 88.3582 127.641 88.252 127.761C88.1455 127.88 87.8741 127.804 87.6486 127.59C87.3295 127.288 87.319 127.093 87.6007 126.711C87.9065 126.298 87.7302 126.225 86.4666 126.245C85.6436 126.259 83.9455 126.115 82.6927 125.926C81.44 125.737 79.3207 125.665 77.9832 125.765C76.6457 125.866 75.6497 125.834 75.7697 125.693C75.8897 125.553 76.916 125.385 78.0503 125.321C79.1846 125.257 80.7282 125.151 81.4805 125.084C82.2329 125.019 84.3522 125.099 86.19 125.264ZM36.2013 125.302C36.1992 125.842 36.4567 126.117 37.1643 126.327C38.1313 126.615 38.7282 127.446 37.9655 127.442C37.7427 127.441 36.9097 127.158 36.1146 126.812L34.6687 126.184L35.4365 125.374C36.2009 124.567 36.2042 124.567 36.2013 125.302ZM57.8132 126.591C60.7705 128.222 61.4881 128.568 61.9269 128.569C62.1445 128.57 62.3217 128.709 62.3211 128.877C62.3204 129.045 62.9233 129.507 63.6605 129.904C65.1248 130.69 65.6759 131.337 64.8804 131.333C63.8773 131.33 59.12 129.484 58.0753 128.693C57.4879 128.249 56.4622 127.338 55.7963 126.67C54.2118 125.079 55.0163 125.047 57.8132 126.591ZM72.1117 126.436C71.8922 126.535 71.63 126.521 71.5296 126.407C71.4291 126.292 71.6088 126.211 71.929 126.228C72.2829 126.245 72.3546 126.327 72.1117 126.436ZM113.68 128.043C113.68 128.209 113.484 128.527 113.246 128.749C112.89 129.081 112.842 129.026 112.978 128.446C113.141 127.755 113.683 127.444 113.68 128.043ZM33.4553 128.113C33.4528 128.755 33.3713 128.847 33.089 128.524C32.8068 128.202 32.8075 128.019 33.0923 127.699C33.3771 127.379 33.4579 127.471 33.4553 128.113ZM33.2966 129.833C33.3992 130.022 33.3888 130.348 33.2737 130.558C33.068 130.931 32.5507 130.355 32.5418 129.744C32.5366 129.367 33.0791 129.431 33.2966 129.833ZM32.6182 132.802C32.8599 133.078 32.5834 133.615 32.2002 133.613C32.0428 133.612 31.9152 133.38 31.9163 133.096C31.9184 132.564 32.2776 132.414 32.6182 132.802ZM133.712 134.185C133.71 134.79 133.295 134.841 132.472 134.338C132.014 134.058 131.84 134.096 131.699 134.507C131.551 134.936 130.987 135.026 128.739 134.981C126.175 134.929 126.09 134.906 127.64 134.686C128.564 134.554 129.616 134.269 129.978 134.052C130.985 133.447 133.715 133.544 133.712 134.185ZM117.988 133.835C117.778 133.93 117.436 133.928 117.228 133.832C117.019 133.736 117.191 133.658 117.609 133.66C118.026 133.662 118.197 133.74 117.988 133.835ZM116.087 134.194C116.086 134.504 112.583 135.242 109.852 135.508C108.027 135.686 108.913 135.399 111.982 134.817C113.488 134.532 115.027 134.201 115.404 134.081C115.78 133.961 116.088 134.012 116.087 134.194ZM33.1279 134.096C33.1268 134.36 33.5354 135.076 34.036 135.688C34.7321 136.539 35.0408 136.711 35.3498 136.423C35.6453 136.148 35.9707 136.161 36.5602 136.474C37.0036 136.71 37.3671 136.998 37.3679 137.115C37.3711 137.541 35.1405 137.714 33.7029 137.4C31.9194 137.009 31.0841 136.455 30.8726 135.523C30.6716 134.636 31.2229 133.934 31.5885 134.61C31.7961 134.994 31.9291 134.942 32.2578 134.352C32.7266 133.51 33.1306 133.391 33.1279 134.096ZM35.7059 135.347C35.8085 135.537 35.7474 135.691 35.5706 135.691C35.3937 135.69 35.2494 135.535 35.2501 135.345C35.2509 135.156 35.3116 135.002 35.3855 135.002C35.4593 135.002 35.6034 135.158 35.7059 135.347ZM175.155 138.927C175.249 139.269 175.204 140.272 175.055 141.154C174.906 142.037 174.848 143.151 174.927 143.629C175.054 144.401 174.969 144.498 174.165 144.495C173.318 144.491 173.247 144.388 173.072 142.894C172.791 140.49 172.831 140.2 173.587 139.213C174.4 138.149 174.914 138.056 175.155 138.927ZM33.3899 139.076C33.6982 139.735 34.3665 140.093 36.7477 140.876C37.4988 141.123 38.243 141.454 38.401 141.611C38.559 141.768 38.9742 141.897 39.3233 141.899C39.6722 141.9 40.4302 142.176 41.0075 142.513C42.3694 143.306 45.2384 145.43 45.2376 145.644C45.2372 145.735 43.6989 145.678 41.8194 145.517C37.7546 145.168 35.5822 145.134 35.3317 145.415C35.0008 145.787 35.502 146.3 36.4249 146.533C37.1277 146.711 37.3315 146.95 37.329 147.595C37.3272 148.053 37.3274 148.544 37.3292 148.686C37.3314 148.828 36.6157 148.99 35.7391 149.047C34.8622 149.104 33.9896 149.295 33.7996 149.472C33.5785 149.678 33.0427 149.597 32.3109 149.247L31.1671 148.7L31.3727 146.403C31.4859 145.139 31.6691 142.828 31.7798 141.267C31.9526 138.828 32.0591 138.429 32.5352 138.431C32.84 138.432 33.2245 138.722 33.3899 139.076ZM170.962 139.928C171.154 140.068 171.356 140.725 171.412 141.387C171.502 142.474 171.437 142.593 170.745 142.607C170.323 142.615 169.819 142.731 169.625 142.866C169.053 143.263 168.791 142.343 169.347 141.886C169.662 141.628 169.78 141.242 169.657 140.873C169.376 140.035 170.245 139.407 170.962 139.928ZM109.065 142.41C109.316 142.512 110.339 143.027 111.34 143.555C112.341 144.083 114.047 144.793 115.132 145.132C116.217 145.471 117.235 145.88 117.393 146.042C117.551 146.204 117.986 146.337 118.361 146.339C118.736 146.34 119.12 146.485 119.214 146.66C119.309 146.835 119.829 147.089 120.369 147.224C121.328 147.464 126.211 149.241 127.421 149.792C129.698 150.827 139.935 154.328 146.339 156.261C148.565 156.933 150.639 157.637 150.947 157.825C151.255 158.014 151.772 158.169 152.096 158.17C152.42 158.171 154.144 158.72 155.927 159.389C157.71 160.059 159.578 160.608 160.078 160.61C160.578 160.612 161.397 160.856 161.898 161.151C162.888 161.736 165.989 161.531 165.165 160.935C164.894 160.739 165.123 160.638 165.845 160.638C166.444 160.637 167.011 160.726 167.106 160.834C167.332 161.091 166.574 162.721 166.058 163.088C165.787 163.281 165.928 163.376 166.492 163.382C166.952 163.387 167.329 163.275 167.33 163.133C167.334 162.722 169.16 160.646 169.516 160.647C170.03 160.649 169.504 163.69 168.647 165.673C168.229 166.641 167.251 168.146 166.474 169.019C165.134 170.524 164.973 170.607 163.383 170.601C162.43 170.597 160.291 170.134 158.429 169.529C156.626 168.943 155.024 168.552 154.869 168.66C154.713 168.768 154.5 168.699 154.395 168.505C154.291 168.312 153.851 168.253 153.418 168.374C152.82 168.541 152.689 168.488 152.875 168.151C153.06 167.815 152.931 167.76 152.345 167.924C151.795 168.078 151.519 167.985 151.391 167.605C151.293 167.31 151.065 167.17 150.886 167.295C150.707 167.419 150.33 167.298 150.049 167.026C149.768 166.753 149.061 166.32 148.477 166.064C147.47 165.621 146.591 164.98 143.357 162.331C142.59 161.702 141.485 160.814 140.902 160.356C140.319 159.897 139.258 159.05 138.544 158.473C137.83 157.896 137.173 157.423 137.083 157.423C136.994 157.422 136.326 156.955 135.6 156.385C134.874 155.814 134.149 155.347 133.991 155.346C133.833 155.345 133.534 155.112 133.327 154.827C133.12 154.543 132.835 154.309 132.694 154.309C132.552 154.308 132.514 154.54 132.609 154.825C132.704 155.109 132.973 155.342 133.206 155.343C133.438 155.344 133.628 155.574 133.627 155.854C133.624 156.464 132.398 156.868 131.519 156.548C130.72 156.258 130.714 156.711 131.504 157.68C131.849 158.103 131.961 158.435 131.758 158.434C131.539 158.433 131.613 158.706 131.943 159.123C132.243 159.502 132.69 159.814 132.936 159.815C133.281 159.816 133.303 159.924 133.031 160.291C132.62 160.846 133.158 161.192 134.441 161.197C134.873 161.199 135.141 161.296 135.037 161.412C134.768 161.715 135.416 162.367 136.562 162.945C137.104 163.218 137.547 163.558 137.546 163.701C137.545 164.08 137.005 164.018 136.787 163.615C136.684 163.425 136.335 163.269 136.011 163.267C135.686 163.266 135.422 163.11 135.422 162.921C135.423 162.732 135.217 162.576 134.964 162.575C134.377 162.573 127.277 158.489 125.223 156.972C124.365 156.339 122.553 154.619 121.194 153.15C119.836 151.681 117.812 149.706 116.697 148.761C115.582 147.816 114.504 146.881 114.303 146.682C114.102 146.484 113.866 146.321 113.779 146.321C113.692 146.32 112.845 145.754 111.898 145.062C110.95 144.371 109.413 143.442 108.481 142.999C107.036 142.312 106.921 142.196 107.699 142.21C108.2 142.219 108.815 142.309 109.065 142.41ZM174.396 143.484C174.394 143.873 174.257 144.096 174.09 143.978C173.923 143.861 173.788 143.541 173.789 143.269C173.79 142.996 173.927 142.773 174.095 142.774C174.262 142.775 174.397 143.094 174.396 143.484ZM102.205 143.706C102.529 143.985 102.656 144.213 102.489 144.212C102.322 144.211 101.921 143.982 101.597 143.703C101.274 143.424 101.146 143.197 101.313 143.197C101.48 143.198 101.882 143.426 102.205 143.706ZM53.9752 143.915C53.6792 144.001 53.269 143.994 53.0637 143.899C52.8583 143.804 53.1005 143.733 53.6018 143.742C54.1032 143.751 54.2712 143.829 53.9752 143.915ZM108.001 145.279C108.549 145.971 108.547 145.977 107.834 145.675C107.436 145.507 107.058 145.19 106.994 144.971C106.81 144.335 107.394 144.513 108.001 145.279ZM109.81 145.182C110.141 145.278 110.619 145.625 110.871 145.953C111.122 146.28 111.816 146.811 112.412 147.133C113.008 147.454 113.963 148.217 114.534 148.829C116.523 150.96 117.32 151.551 117.576 151.087C117.706 150.851 117.907 150.766 118.023 150.898C118.238 151.143 117.623 152.185 117.265 152.184C117.157 152.183 116.39 151.567 115.56 150.815C112.656 148.182 112.367 147.97 111.937 148.155C111.637 148.284 111.562 148.173 111.693 147.792C111.843 147.352 111.734 147.284 111.144 147.449C110.739 147.562 110.204 147.508 109.955 147.329C109.594 147.068 109.64 147.002 110.187 147C111.15 146.997 111.038 146.451 109.963 145.907C109.463 145.653 109.054 145.329 109.054 145.186C109.055 145.043 109.089 144.944 109.131 144.966C109.173 144.988 109.479 145.085 109.81 145.182ZM34.3984 144.876C34.482 145.03 34.3606 145.541 34.1287 146.011C33.7118 146.855 33.7066 146.856 33.699 146.091C33.6949 145.665 33.6815 145.205 33.6696 145.067C33.6376 144.701 34.2207 144.548 34.3984 144.876ZM165.651 147.077C165.986 147.459 165.898 151.616 165.55 151.858C165.383 151.974 165.244 152.542 165.241 153.119C165.237 154.108 165.18 154.159 164.25 153.997C161.877 153.584 157.541 152.28 156.868 151.776C156.038 151.155 155.909 150.616 156.591 150.618C156.841 150.619 157.047 150.465 157.048 150.276C157.048 150.087 156.81 149.926 156.517 149.92C156.034 149.908 156.031 149.877 156.485 149.58C156.759 149.4 157.068 148.879 157.171 148.423C157.335 147.697 157.579 147.569 159.108 147.406C163.435 146.945 165.446 146.843 165.651 147.077ZM40.5672 147.494C40.7341 147.803 40.7688 147.791 39.5311 147.861C38.9876 147.891 38.5439 147.762 38.5446 147.573C38.5462 147.176 40.357 147.106 40.5672 147.494ZM42.8555 147.652C42.636 147.751 42.3738 147.738 42.2733 147.623C42.1729 147.508 42.3525 147.428 42.6727 147.444C43.0267 147.462 43.0984 147.544 42.8555 147.652ZM158.868 150.971C158.867 151.161 158.593 151.314 158.259 151.313C157.925 151.312 157.652 151.156 157.653 150.967C157.653 150.777 157.928 150.624 158.262 150.625C158.596 150.626 158.869 150.782 158.868 150.971ZM34.229 150.864C34.4242 151.221 34.8415 151.515 35.1563 151.516C35.4714 151.517 35.8069 151.751 35.9021 152.035C35.997 152.319 36.2325 152.552 36.4254 152.553C36.688 152.554 36.687 152.432 36.4222 152.068C35.2519 150.458 38.6893 151.949 40.0877 153.657C40.8789 154.624 41.1765 154.756 42.5625 154.75C43.8698 154.744 43.9317 154.767 42.926 154.888C42.2593 154.968 41.6129 155.215 41.4895 155.437C41.3197 155.743 41.1137 155.733 40.6379 155.396C39.9848 154.934 39.287 155.127 39.5893 155.686C39.6873 155.867 39.1094 156.004 38.2579 156.001C37.2008 155.997 36.7018 155.841 36.5801 155.478C36.4852 155.194 36.1835 154.96 35.9094 154.959C35.5918 154.958 35.4741 155.145 35.5846 155.474C35.6795 155.758 35.6121 155.99 35.4346 155.99C35.2572 155.989 35.0414 155.679 34.9557 155.3C34.8697 154.921 34.6813 154.611 34.5372 154.61C34.2488 154.609 32.46 151.197 32.4579 150.645C32.4555 150.022 33.8639 150.196 34.229 150.864ZM119.055 152.191C119.054 152.38 118.917 152.534 118.75 152.534C118.583 152.533 118.446 152.377 118.447 152.188C118.448 151.999 118.585 151.845 118.752 151.845C118.92 151.846 119.056 152.001 119.055 152.191ZM35.5716 153.238C35.481 153.622 35.5594 153.926 35.7491 153.927C35.9359 153.927 36.0879 154.083 36.0871 154.272C36.0864 154.461 35.8807 154.615 35.63 154.614C35.3793 154.613 35.175 154.393 35.1761 154.125C35.1771 153.856 35.096 153.391 34.9957 153.092C34.8789 152.743 34.9787 152.547 35.2732 152.548C35.5834 152.55 35.6807 152.774 35.5716 153.238ZM83.5519 153.662C83.3324 153.761 83.0702 153.747 82.9697 153.632C82.8693 153.518 83.0489 153.437 83.3691 153.453C83.7231 153.471 83.7948 153.553 83.5519 153.662ZM78.3277 153.936C78.3243 154.635 77.1254 157.665 77.1146 157.001C77.1083 156.615 77.379 155.693 77.7162 154.952C78.0534 154.211 78.3287 153.754 78.3277 153.936ZM48.413 154.009C48.5059 154.181 48.2319 154.32 47.8043 154.318C46.8732 154.315 46.7987 154.118 47.6359 153.874C47.9703 153.776 48.3201 153.837 48.413 154.009ZM167.344 156.522C166.693 157.253 166.137 157.156 166.14 156.313C166.142 155.991 166.463 155.818 167.054 155.82L167.966 155.824L167.344 156.522ZM169.168 156.51C169.508 156.749 169.495 156.895 169.094 157.345C168.485 158.029 167.653 158.051 167.656 157.383C167.658 156.714 168.648 156.143 169.168 156.51ZM172.497 157.708C172.977 158.369 172.748 159.116 171.908 159.62C171.318 159.974 171.287 159.933 171.479 159.038C171.833 157.387 172.054 157.098 172.497 157.708ZM52.7854 158.122C52.7847 158.312 52.6473 158.466 52.4802 158.465C52.3131 158.465 52.1769 158.309 52.1777 158.12C52.1784 157.931 52.3158 157.777 52.4829 157.777C52.65 157.778 52.7862 157.933 52.7854 158.122ZM106.815 161.484C107.204 162.032 107.548 162.687 107.58 162.94C107.666 163.62 109.958 167.638 110.261 167.639C110.404 167.639 110.44 167.788 110.34 167.969C110.24 168.15 110.572 168.749 111.076 169.299C111.581 169.85 111.993 170.623 111.991 171.017C111.99 171.411 112.136 171.837 112.315 171.964C112.495 172.091 113.371 173.964 114.262 176.126C115.152 178.288 116.079 180.145 116.321 180.251C116.563 180.357 116.925 180.898 117.125 181.453C117.384 182.169 117.7 182.463 118.213 182.465C118.61 182.466 118.935 182.622 118.934 182.812C118.933 183.001 118.796 183.155 118.629 183.154C118.462 183.154 118.324 183.319 118.324 183.522C118.323 183.725 118.116 184.122 117.864 184.405C117.613 184.688 117.407 184.812 117.407 184.68C117.408 184.549 117.204 184.632 116.955 184.864C116.225 185.544 115.706 185.055 114.507 182.558C113.887 181.266 112.738 178.968 111.953 177.451C109.896 173.474 108.823 170.917 107.901 167.795C107.058 164.94 105.956 160.612 106.052 160.533C106.083 160.508 106.426 160.936 106.815 161.484ZM41.7498 162.396C41.9561 162.652 42.0035 162.945 41.8551 163.048C41.7067 163.151 41.5005 162.982 41.3966 162.671C41.1482 161.929 41.286 161.821 41.7498 162.396ZM151.581 163.908C151.361 164.006 151.099 163.993 150.999 163.878C150.898 163.764 151.078 163.683 151.398 163.699C151.752 163.717 151.824 163.799 151.581 163.908ZM154.863 164.904C155.78 165.355 156.839 165.733 157.215 165.743C157.59 165.754 157.898 165.922 157.897 166.117C157.894 166.858 157.011 166.796 155.377 165.942C154.447 165.455 153.566 165.057 153.42 165.056C153.274 165.056 152.891 164.827 152.567 164.548C151.987 164.047 151.988 164.041 152.587 164.062C152.921 164.073 153.945 164.453 154.863 164.904ZM139.063 164.301C139.063 164.484 138.857 164.544 138.607 164.434C138.357 164.324 138.152 164.174 138.153 164.099C138.153 164.025 138.358 163.965 138.609 163.966C138.86 163.967 139.064 164.118 139.063 164.301ZM80.5876 164.963C80.3251 165.258 79.9708 165.401 79.7999 165.281C79.3414 164.957 79.7501 164.422 80.4533 164.425C81.0082 164.427 81.0204 164.477 80.5876 164.963ZM80.1012 166.639C80.1 166.934 79.9623 167.175 79.7952 167.175C79.6281 167.174 79.4919 167.028 79.4926 166.85C79.4933 166.671 79.631 166.431 79.7986 166.314C79.9662 166.198 80.1023 166.345 80.1012 166.639ZM43.3313 166.687C43.5717 166.856 43.6997 167.072 43.6157 167.166C43.5318 167.261 43.2664 167.199 43.0261 167.03C42.7858 166.86 42.6578 166.644 42.7417 166.55C42.8257 166.456 43.091 166.517 43.3313 166.687ZM160.93 167.494C160.93 167.684 161.305 167.861 161.764 167.889C162.454 167.93 162.483 167.964 161.933 168.083C161.566 168.162 160.883 167.989 160.415 167.699C159.62 167.207 159.609 167.172 160.248 167.161C160.624 167.155 160.931 167.305 160.93 167.494ZM131.453 167.722C131.452 167.911 131.315 168.066 131.148 168.065C130.981 168.064 130.844 167.909 130.845 167.72C130.846 167.531 130.983 167.376 131.15 167.377C131.317 167.378 131.454 167.533 131.453 167.722ZM133.834 168.747C133.702 169.19 133.285 169.268 133.249 168.856C133.237 168.719 133.391 168.545 133.592 168.47C133.793 168.396 133.902 168.52 133.834 168.747ZM156.97 170.059C157.273 170.477 157.265 170.575 156.929 170.57C156.153 170.559 155.146 170.146 155.147 169.84C155.149 169.334 156.567 169.505 156.97 170.059ZM135.393 170.42C135.976 170.934 136.561 171.549 136.694 171.786C136.827 172.023 137.058 172.217 137.209 172.218C137.581 172.219 140.171 174.233 140.439 174.729C140.558 174.949 140.118 174.763 139.461 174.316C138.805 173.869 137.654 173.12 136.903 172.65C136.153 172.18 135.353 171.502 135.125 171.142C134.897 170.782 134.522 170.487 134.292 170.486C134.061 170.485 133.874 170.252 133.875 169.968C133.878 169.254 134.167 169.34 135.393 170.42ZM104.343 174.652C106.111 175.053 106.409 175.254 107.749 176.954C109.789 179.541 109.711 179.724 107.19 178.256C105.959 177.539 103.398 177.397 101.025 177.913C100.272 178.077 99.5676 178.106 99.4599 177.978C99.3519 177.85 99.172 176.932 99.0595 175.938L98.8552 174.131L100.631 174.172C101.607 174.194 103.278 174.41 104.343 174.652ZM141.75 175.243C142.423 175.545 143.067 176.371 142.833 176.633C142.72 176.76 142.533 176.693 142.418 176.483C142.302 176.273 141.946 176.044 141.626 175.974C141.305 175.903 140.987 175.652 140.919 175.415C140.787 174.959 141.014 174.912 141.75 175.243ZM145.242 177.338C145.742 177.638 147.039 177.992 148.125 178.124L150.1 178.364L148.428 178.446C146.129 178.559 145.801 178.494 144.611 177.692C142.986 176.597 143.514 176.3 145.242 177.338ZM150.919 177.668C150.699 177.766 150.437 177.753 150.337 177.638C150.236 177.524 150.416 177.443 150.736 177.459C151.09 177.477 151.162 177.559 150.919 177.668ZM53.2982 182.209C53.2975 182.398 53.1601 182.552 52.993 182.552C52.8259 182.551 52.6897 182.396 52.6905 182.206C52.6912 182.017 52.8286 181.863 52.9957 181.863C53.1629 181.864 53.299 182.02 53.2982 182.209ZM124.183 186.11C125.317 187.339 126.37 188.346 126.524 188.346C126.678 188.347 127.138 189.103 127.547 190.027C128.02 191.097 128.699 191.982 129.415 192.464L130.539 193.222L129.582 193.876C127.375 195.382 125.522 196.256 124.541 196.252C123.665 196.249 123.304 195.983 122.305 194.609C121.651 193.708 120.456 191.82 119.652 190.415C118.847 189.01 117.806 187.613 117.34 187.31C116.389 186.693 116.211 185.898 117.023 185.899C117.315 185.9 118.377 185.44 119.382 184.878C120.387 184.315 121.414 183.86 121.665 183.865C121.916 183.87 123.049 184.88 124.183 186.11ZM94.4397 190.96C92.6006 191.097 90.4802 191.325 89.7275 191.467C88.581 191.683 88.4222 191.649 88.7498 191.259C89.0384 190.915 90.2693 190.783 93.462 190.753L97.7833 190.712L94.4397 190.96ZM83.6761 193.596C83.6947 193.739 83.7542 194.305 83.8085 194.854C83.8629 195.404 83.9662 196.03 84.0385 196.245C84.1106 196.461 83.9787 196.931 83.7451 197.29C83.3672 197.87 83.3215 197.688 83.3296 195.639C83.3345 194.373 83.407 193.337 83.4906 193.338C83.5741 193.338 83.6575 193.454 83.6761 193.596ZM84.5367 197.763C84.5345 198.334 83.3728 199.71 83.1274 199.431C82.9964 199.282 83.2601 198.774 83.7135 198.301C84.1669 197.829 84.5374 197.587 84.5367 197.763ZM199.99 203.366C199.988 203.789 198.729 205.218 198.544 205.007C198.323 204.755 199.323 203.084 199.694 203.085C199.857 203.086 199.99 203.212 199.99 203.366Z" fill="#010872"/>
</svg>
